<?xml version="1.0" encoding="UTF-8"?>
<svg id="Layer_1" data-name="Layer 1" xmlns="http://www.w3.org/2000/svg" width="133.9" height="29.1" viewBox="0 0 133.9 29.1">
  <defs>
    <style>
      .cls-1 {
        fill: #f58766;
      }

      .cls-2 {
        fill: #f0592d;
      }

      .cls-3 {
        fill: #f15b2e;
      }

      .cls-4 {
        fill: #354b4e;
      }

      .cls-5 {
        fill: #596b6c;
      }
    </style>
  </defs>
  <path class="cls-4" d="M30.5,11.2c-3.9,0-6.5,2.7-6.5,6.4s2.7,6.4,6.5,6.4,2.3-.3,3.3-.9h0v-2.8h0c-.9,.6-1.9,.9-3,.9-2.4,0-3.8-1.4-3.8-3.6s1.5-3.6,3.8-3.6,2.1,.3,3,.9h0v-2.8h0c-1-.6-2.2-.9-3.3-.9Z"/>
  <path class="cls-4" d="M41.5,11.2c-3.8,0-6.5,2.7-6.5,6.4s2.7,6.4,6.5,6.4,6.4-2.6,6.4-6.3-2.7-6.4-6.4-6.4h0Zm0,9.9c-2.1,0-3.4-1.4-3.4-3.6s1.3-3.6,3.4-3.6,3.4,1.5,3.4,3.6-1.3,3.6-3.4,3.6Z"/>
  <path class="cls-4" d="M56.5,11.2c-1.6,0-3.2,.8-4.1,2.1h0v-1.8h-2.6v12h3v-7.5h0c.6-1.3,1.5-2.1,2.8-2.1s2,.8,2,2.4v7.1h3v-7.5c0-3.2-1.5-4.8-4.2-4.8h.1Z"/>
  <path class="cls-4" d="M70.5,11.5h0l-2.9,7.8h0l-2.9-7.8h-3.2l4.7,12h2.6l4.7-12h0s-3,0-3,0Z"/>
  <path class="cls-4" d="M80.1,11.2c-3.8,0-6.2,2.5-6.2,6.3s2.7,6.4,7,6.4,3.2-.4,4.4-1.2h0v-2.8h0c-1.1,1-2.6,1.5-4.1,1.5-2.3,0-3.8-1-4.2-2.8h8.8c0-.6,0-1.1,0-1.7,0-3.4-2.3-5.7-5.8-5.7Zm3,5.2h-6.1c.3-1.7,1.4-2.6,3.1-2.6s2.8,.9,3,2.6q.1,1.1,0,0h0Z"/>
  <path class="cls-4" d="M90.3,13.6h0l-.2-2h-2.4v12h3v-6.9c.6-1.6,1.7-2.4,3.3-2.4s.6,0,.9,0v-3.1h-.8c-1.7,0-2.9,.8-3.7,2.4h-.1Z"/>
  <path class="cls-4" d="M96.4,20c0,2.6,1.4,3.9,4,3.9s1.7-.2,2.5-.6h0v-2.7h0c-.5,.4-1.2,.6-1.8,.6-1.1,0-1.6-.6-1.6-1.7v-5.4h3.4v-2.4h-3.4v-3.1h-2.9"/>
  <path class="cls-4" d="M105.2,11.5h3v12h-3V11.5h0Z"/>
  <path class="cls-4" d="M106.3,6.8c-.9,0-1.5,.9-1.5,1.8s.8,1.9,1.8,1.9,1.9-.8,1.9-1.8-.8-1.9-1.9-2h-.3Z"/>
  <path class="cls-4" d="M114.1,21h0l6.2-7.4h0v-2.1h-9.5v2.5h5.6l-6.2,7.4h0v2.1h10.3v-2.5h-6.4Z"/>
  <path class="cls-4" d="M128.1,11.2c-3.8,0-6.2,2.5-6.2,6.3s2.7,6.4,7,6.4,3.2-.4,4.4-1.2h0v-2.8h0c-1.1,1-2.6,1.5-4.1,1.5-2.3,0-3.8-1-4.1-2.8h8.7c0-.6,.1-1.1,.1-1.7,0-3.4-2.3-5.7-5.8-5.7Zm3,5.2h-6.1c.3-1.7,1.4-2.6,3.1-2.6s2.8,.9,3,2.6q.1,1.1,0,0c-.2-1.7,0,0,0,0h0Z"/>
  <path class="cls-3" d="M3.7,25.9l-.2-.2s0,.1,.2,.2Z"/>
  <path class="cls-2" d="M21.3,23.9c0,.7-.3,1.3-.7,1.8h0c-4.7,4.6-12.1,4.6-16.8,0l-.2-.2c-1-1-1-2.7,0-3.7,1-1,2.7-1,3.7,0h0c2.7,2.6,6.9,2.6,9.5,0h0c1.1-1,2.7-1,3.7,0s.7,1.1,.7,1.8v.3Z"/>
  <path class="cls-1" d="M5.2,17.2c0-1.8,.7-3.4,1.9-4.7-1.1,.9-2.8,.8-3.7-.4-.8-1-.8-2.5,0-3.4h0C-1.2,13.4-1.2,21,3.5,25.8h0c-1-1-1-2.7,0-3.7,1-1,2.7-1,3.7,0-1.3-1.3-2-3-2-4.9Z"/>
  <path class="cls-2" d="M16.8,12.3h0c1.1,1,2.7,1,3.7,0s1-2.4,.1-3.4c0,0,0-.1-.1-.2s0,0-.2-.1c-2.2-2.2-5.2-3.4-8.3-3.4h0c-3.2,0-6.2,1.2-8.5,3.5h0c-1,1.1-1,2.7,0,3.7,1,.9,2.5,1,3.5,.1h0c1.2-1.3,2.9-2,4.6-2h.2c1.8,0,3.5,.7,4.8,1.9h.1Z"/>
  <g>
    <path class="cls-5" d="M25.4,.5c.5,0,1,0,1.8,0s1.6,.2,2,.6c.4,.3,.6,.9,.6,1.5s-.2,1.2-.6,1.6c-.5,.5-1.3,.8-2.2,.8s-.5,0-.8,0v2.9h-.9V.5h.1Zm.9,3.5h.8c1.1,0,1.8-.6,1.8-1.6s-.7-1.4-1.7-1.4-.7,0-.9,0c0,0,0,3,0,3Z"/>
    <path class="cls-5" d="M35.6,5c0,1.9-1.3,2.8-2.6,2.8s-2.5-1-2.5-2.7,1.1-2.8,2.6-2.8,2.5,1.1,2.5,2.7Zm-4.1,0c0,1.1,.7,2,1.6,2s1.6-.9,1.6-2-.4-2-1.6-2-1.6,1-1.6,2Z"/>
    <path class="cls-5" d="M37.1,2.4l.7,2.7c.2,.6,.3,1.1,.4,1.7h0c0-.5,.3-1.1,.5-1.7l.9-2.7h.8l.8,2.6c.2,.6,.3,1.2,.5,1.7h0c0-.5,.2-1.1,.4-1.7l.7-2.6h.9l-1.7,5.2h-.9l-.8-2.5c-.2-.6-.3-1.1-.5-1.7h0c0,.6-.3,1.2-.5,1.7l-.8,2.5h-.9l-1.6-5.2h1.1Z"/>
    <path class="cls-5" d="M45.1,5.2c0,1.3,.8,1.8,1.8,1.8s1.1,0,1.4-.3l.2,.7c-.3,.2-.9,.3-1.7,.3-1.6,0-2.6-1.1-2.6-2.6s.9-2.8,2.5-2.8,2.2,1.5,2.2,2.5,0,.3,0,.4h-3.8Zm2.8-.7c0-.6-.2-1.5-1.3-1.5s-1.4,.9-1.5,1.5h2.8Z"/>
    <path class="cls-5" d="M49.9,4.1v-1.6h.8v1h0c.2-.7,.8-1.1,1.4-1.1s.2,0,.3,0v.9h-.3c-.7,0-1.1,.5-1.3,1.2v3.2h-.9v-3.6Z"/>
    <path class="cls-5" d="M53.9,5.2c0,1.3,.8,1.8,1.8,1.8s1.1,0,1.4-.3l.2,.7c-.3,.2-.9,.3-1.7,.3-1.6,0-2.6-1.1-2.6-2.6s.9-2.8,2.5-2.8,2.2,1.5,2.2,2.5,0,.3,0,.4h-3.8Zm2.8-.7c0-.6-.2-1.5-1.3-1.5s-1.4,.9-1.5,1.5h2.8Z"/>
    <path class="cls-5" d="M63.3,0V7.7h-.9v-.9h0c-.3,.6-.9,1-1.8,1-1.3,0-2.2-1.1-2.2-2.7s1.1-2.8,2.3-2.8,1.3,.4,1.6,.8h0V0h1Zm-1,4.6v-.4c0-.6-.7-1.1-1.4-1.1s-1.6,.9-1.6,2,.5,1.9,1.5,1.9,1.2-.4,1.4-1.1v-1.3h0Z"/>
    <path class="cls-5" d="M67.1,7.7V0h.9V3.3h0c.3-.6,.9-1,1.8-1,1.3,0,2.2,1.1,2.2,2.7s-1.2,2.8-2.3,2.8-1.4-.3-1.7-1h0v.9s-.9,0-.9,0Zm1-2.1v.3c.2,.7,.7,1.1,1.4,1.1,1,0,1.6-.8,1.6-2s-.5-1.9-1.6-1.9-1.3,.4-1.4,1.2v.4s0,.9,0,.9Z"/>
    <path class="cls-5" d="M73.6,2.4l1.1,3.1c0,.3,.2,.8,.3,1.1h0c0-.3,.2-.7,.3-1.1l1-3.1h1l-1.4,3.7c-.7,1.8-1.1,2.7-1.8,3.3-.5,.4-.9,.6-1.2,.6l-.2-.8c.2,0,.6-.2,.8-.5,.3-.2,.6-.6,.8-1.1v-.4l-1.9-4.8h1.2Z"/>
  </g>
</svg>