<?xml version="1.0" encoding="UTF-8"?><svg id="Layer_1" xmlns="http://www.w3.org/2000/svg" viewBox="0 0 31.03 7.39"><defs><style>.cls-1{fill:#f8aa9a;}.cls-2{fill:#f15a38;}.cls-3{fill:#283943;}</style></defs><path class="cls-2" d="m6.05.85h0c-.64-.53-1.46-.85-2.35-.85S1.98.32,1.34.84h0c-.19.16-.31.4-.31.66,0,.47.38.85.85.85.19,0,.36-.06.5-.16.03-.02.06-.05.08-.07.34-.26.76-.42,1.22-.42s.92.17,1.26.45h0c.15.12.34.2.55.2.47,0,.85-.38.85-.85,0-.26-.12-.5-.31-.66Z"/><path class="cls-2" d="m5.51,5.03c-.21,0-.4.07-.54.19h0c-.34.28-.79.46-1.27.46s-.89-.16-1.23-.43c0,0,0,0,0,0-.02-.02-.04-.04-.06-.05,0,0,0,0,0,0-.14-.11-.32-.17-.51-.17-.47,0-.85.38-.85.85,0,.28.13.53.34.68h0c.63.52,1.44.82,2.32.82s1.71-.32,2.35-.85c.19-.16.31-.39.31-.66,0-.47-.38-.85-.85-.85Z"/><path class="cls-1" d="m2.4,5.2c-.14-.11-.32-.17-.51-.17-.47,0-.85.38-.85.85,0,.28.13.53.34.68h0c-.84-.67-1.38-1.71-1.38-2.87S.52,1.52,1.34.84h0c-.19.16-.31.4-.31.66,0,.47.38.85.85.85.19,0,.36-.06.5-.16-.42.36-.68.9-.68,1.5s.27,1.14.69,1.51Z"/><path class="cls-3" d="m7.56,3.7c0-.75.57-1.32,1.33-1.32.42,0,.77.18.99.46.03.04.02.08-.01.11l-.31.31s-.1.04-.14,0c-.14-.14-.29-.21-.5-.21-.41,0-.67.29-.67.66s.26.69.69.69c.2,0,.35-.07.49-.21.04-.04.09-.04.14,0l.31.31s.04.07.01.11c-.22.28-.57.46-.98.46-.77,0-1.35-.58-1.35-1.35Z"/><path class="cls-3" d="m10.07,3.71c0-.75.57-1.33,1.33-1.33s1.33.58,1.33,1.33-.57,1.33-1.33,1.33-1.33-.58-1.33-1.33Zm1.33.68c.36,0,.64-.26.64-.68s-.28-.68-.64-.68-.64.26-.64.68.28.68.64.68Z"/><path class="cls-3" d="m13.13,4.9v-2.39s.03-.08.08-.08h.54s.08.02.08.08l.02.3c.15-.26.39-.45.77-.45.53,0,.92.38.92,1.05v1.48s-.04.08-.08.08h-.56s-.08-.03-.08-.08v-1.32c0-.36-.17-.55-.47-.55s-.5.19-.5.55v1.32s-.03.08-.08.08h-.56s-.08-.03-.08-.08Z"/><path class="cls-3" d="m16.66,4.92l-.95-2.39c-.02-.06,0-.09.06-.09h.57s.08.02.09.06l.6,1.66.6-1.66s.05-.06.09-.06h.57c.06,0,.08.03.06.09l-.95,2.39s-.05.06-.09.06h-.57s-.08-.02-.09-.06Z"/><path class="cls-3" d="m18.43,3.7c0-.75.52-1.32,1.31-1.32s1.22.57,1.22,1.22c0,.25-.06.39-.28.39h-1.55c.08.32.34.5.75.5.2,0,.38-.04.59-.16.04-.02.06-.02.09.02l.19.26s.02.07-.03.11c-.22.22-.55.32-.9.32-.84,0-1.4-.58-1.4-1.35Zm1.89-.22c-.04-.34-.27-.51-.58-.51s-.56.17-.62.51h1.2Z"/><path class="cls-3" d="m21.36,4.9v-2.39s.03-.08.08-.08h.54s.07.02.08.08l.02.33c.09-.27.25-.47.55-.47.12,0,.19.03.23.06.04.03.05.06.05.1v.46c0,.06-.04.08-.1.06-.06-.02-.11-.03-.19-.03-.35,0-.54.23-.54.6v1.27s-.03.08-.08.08h-.56s-.08-.03-.08-.08Z"/><path class="cls-3" d="m23.58,4.27v-1.28h-.32s-.08-.03-.08-.08v-.4s.03-.08.08-.08h.32v-.6s.03-.08.08-.08h.57s.08.03.08.08v.6h.4s.08.03.08.08v.4s-.03.08-.08.08h-.4v1.2c0,.15.09.22.22.22.05,0,.1,0,.16,0,.06,0,.09.02.09.07v.38c0,.12-.26.15-.43.15-.41,0-.77-.19-.77-.74Z"/><path class="cls-3" d="m25.13,1.58c0-.22.17-.39.4-.39s.39.18.39.39-.17.4-.39.4-.4-.18-.4-.4Zm.04.93s.03-.08.08-.08h.57s.08.03.08.08v2.39s-.03.08-.08.08h-.57s-.08-.03-.08-.08v-2.39Z"/><path class="cls-3" d="m26.32,4.9v-.45s.01-.07.04-.1l1.19-1.34h-1.14s-.08-.03-.08-.08v-.43s.03-.08.08-.08h1.85s.08.03.08.08v.45s-.01.07-.04.1l-1.19,1.34h1.15s.08.03.08.08v.43s-.03.08-.08.08h-1.87s-.08-.03-.08-.08Z"/><path class="cls-3" d="m28.5,3.7c0-.75.52-1.32,1.31-1.32s1.22.57,1.22,1.22c0,.25-.06.39-.28.39h-1.55c.08.32.34.5.75.5.2,0,.38-.04.59-.16.04-.02.06-.02.09.02l.19.26s.02.07-.03.11c-.22.22-.55.32-.9.32-.84,0-1.4-.58-1.4-1.35Zm1.89-.22c-.04-.34-.27-.51-.58-.51s-.56.17-.62.51h1.2Z"/></svg>