<?xml version="1.0" encoding="UTF-8"?>
<svg id="Layer_1" data-name="Layer 1" xmlns="http://www.w3.org/2000/svg" width="1139" height="34" xmlns:xlink="http://www.w3.org/1999/xlink" viewBox="0 0 1139 34">
  <defs>
    <style>
      .cls-1 {
        fill: url(#linear-gradient-2);
        isolation: isolate;
        opacity: .65;
      }

      .cls-2 {
        fill: url(#linear-gradient);
      }

      .cls-3 {
        fill: #f79e1b;
      }

      .cls-4 {
        fill: #f9f9fa;
      }

      .cls-5 {
        fill: #0079be;
      }

      .cls-6 {
        fill: #f79410;
      }

      .cls-7 {
        fill: #eb001b;
      }

      .cls-8 {
        fill: #ec1c24;
      }

      .cls-9 {
        fill: #fff;
      }

      .cls-10, .cls-11 {
        fill: #f37421;
      }

      .cls-12 {
        fill: #e6a540;
      }

      .cls-13 {
        fill: #ef3120;
      }

      .cls-14 {
        fill: #ff5f00;
      }

      .cls-15 {
        fill: #fbc707;
      }

      .cls-16 {
        fill: #6c6bbd;
      }

      .cls-17 {
        fill: #0099df;
      }

      .cls-18 {
        fill: #939598;
      }

      .cls-19 {
        fill: #b82126;
      }

      .cls-20 {
        fill: #d32011;
      }

      .cls-21 {
        fill: #d52b1e;
      }

      .cls-22 {
        fill: #203c92;
      }

      .cls-23 {
        fill: #231f20;
      }

      .cls-24 {
        fill: #21c25e;
      }

      .cls-25 {
        fill: #110f0d;
      }

      .cls-26 {
        fill: #0a9b4a;
      }

      .cls-27 {
        fill: #26a6d1;
      }

      .cls-28 {
        fill: #2c2a7a;
      }

      .cls-29 {
        fill: #38a7e4;
      }

      .cls-30 {
        fill: #2566af;
      }

      .cls-31 {
        fill: #32bcad;
      }

      .cls-32 {
        fill: url(#radial-gradient);
      }

      .cls-33 {
        fill: #faa929;
      }

      .cls-33, .cls-34, .cls-35, .cls-36, .cls-37, .cls-38, .cls-39, .cls-11, .cls-40, .cls-41 {
        fill-rule: evenodd;
      }

      .cls-34 {
        fill: #479951;
      }

      .cls-35 {
        fill: #49aa53;
      }

      .cls-36 {
        fill: #265797;
      }

      .cls-37 {
        fill: #dd3738;
      }

      .cls-38 {
        fill: #ca4638;
      }

      .cls-39 {
        fill: #a78e3f;
      }

      .cls-40 {
        fill: #ffe700;
      }

      .cls-41 {
        fill: #005a9b;
      }

      .cls-42 {
        fill: #ea1f27;
        stroke: #ea1f27;
        stroke-miterlimit: 10;
        stroke-width: .16px;
      }
    </style>
    <linearGradient id="linear-gradient" x1="430.25" y1="600.64" x2="427.37" y2="596.12" gradientTransform="translate(949.13 -500.97) rotate(80.78)" gradientUnits="userSpaceOnUse">
      <stop offset="0" stop-color="#f89f20"/>
      <stop offset=".25" stop-color="#f79a20"/>
      <stop offset=".53" stop-color="#f68d20"/>
      <stop offset=".62" stop-color="#f58720"/>
      <stop offset=".72" stop-color="#f48120"/>
      <stop offset="1" stop-color="#f37521"/>
    </linearGradient>
    <linearGradient id="linear-gradient-2" x1="429.8" y1="600.58" x2="425.58" y2="592.34" gradientTransform="translate(949.13 -500.97) rotate(80.78)" gradientUnits="userSpaceOnUse">
      <stop offset="0" stop-color="#f58720"/>
      <stop offset=".36" stop-color="#e16f27"/>
      <stop offset=".7" stop-color="#d4602c"/>
      <stop offset=".98" stop-color="#d05b2e"/>
    </linearGradient>
    <radialGradient id="radial-gradient" cx="193.05" cy="215.56" fx="193.05" fy="215.56" r="4.92" gradientTransform="translate(-1894.68 2536.58) rotate(-2.45) scale(13.96 -11.16)" gradientUnits="userSpaceOnUse">
      <stop offset="0" stop-color="#ee2e60"/>
      <stop offset="1" stop-color="#ee2e60" stop-opacity="0"/>
    </radialGradient>
  </defs>
  <rect class="cls-4" width="56" height="34" rx="5" ry="5"/>
  <rect class="cls-4" x="57" width="56" height="34" rx="5" ry="5"/>
  <rect class="cls-4" x="114" width="56" height="34" rx="5" ry="5"/>
  <rect class="cls-4" x="171" width="56" height="34" rx="5" ry="5"/>
  <rect class="cls-4" x="228" width="56" height="34" rx="5" ry="5"/>
  <rect class="cls-4" x="285" width="56" height="34" rx="5" ry="5"/>
  <rect class="cls-4" x="342" width="56" height="34" rx="5" ry="5"/>
  <rect class="cls-4" x="399" width="56" height="34" rx="5" ry="5"/>
  <rect class="cls-4" x="456" width="56" height="34" rx="5" ry="5"/>
  <rect class="cls-4" x="513" width="56" height="34" rx="5" ry="5"/>
  <rect class="cls-4" x="570" width="56" height="34" rx="5" ry="5"/>
  <rect class="cls-4" x="627" width="56" height="34" rx="5" ry="5"/>
  <rect class="cls-4" x="684" width="56" height="34" rx="5" ry="5"/>
  <rect class="cls-4" x="741" width="56" height="34" rx="5" ry="5"/>
  <rect class="cls-4" x="798" width="56" height="34" rx="5" ry="5"/>
  <rect class="cls-4" x="855" width="56" height="34" rx="5" ry="5"/>
  <rect class="cls-4" x="912" width="56" height="34" rx="5" ry="5"/>
  <rect class="cls-4" x="969" width="56" height="34" rx="5" ry="5"/>
  <rect class="cls-4" x="1026" width="56" height="34" rx="5" ry="5"/>
  <rect class="cls-4" x="1083" width="56" height="34" rx="5" ry="5"/>
  <g>
    <path class="cls-30" d="M25.46,22.99h-3.12l1.95-11.97h3.12l-1.95,11.97Zm-5.74-11.97l-2.97,8.23-.35-1.77h0s-1.05-5.38-1.05-5.38c0,0-.13-1.08-1.48-1.08h-4.91l-.06,.2s1.5,.31,3.26,1.37l2.71,10.4h3.25l4.96-11.97h-3.35Zm24.51,11.97h2.86l-2.49-11.97h-2.5c-1.16,0-1.44,.89-1.44,.89l-4.65,11.08h3.25l.65-1.78h3.96l.36,1.78h0Zm-3.43-4.23l1.64-4.48,.92,4.48h-2.56Zm-4.55-4.86l.44-2.57s-1.37-.52-2.8-.52c-1.55,0-5.22,.68-5.22,3.96,0,3.09,4.31,3.13,4.31,4.75s-3.87,1.33-5.14,.31l-.46,2.69s1.39,.68,3.52,.68,5.33-1.1,5.33-4.1-4.35-3.4-4.35-4.75c0-1.35,3.04-1.18,4.37-.44h0Z"/>
    <path class="cls-12" d="M16.4,17.48l-1.05-5.38s-.13-1.08-1.48-1.08h-4.91l-.06,.2s2.36,.49,4.62,2.32c2.16,1.75,2.87,3.94,2.87,3.94Z"/>
  </g>
  <g>
    <path class="cls-23" d="M101.81,30.54v.07h.07s.02,0,.03,0c0,0,.01-.02,.01-.03,0-.01,0-.02-.01-.03-.01,0-.02,0-.03,0h-.07Zm.07-.05s.06,0,.08,.02c.02,.02,.03,.04,.03,.06,0,.02,0,.04-.02,.05-.02,.02-.04,.02-.06,.03l.09,.1h-.07l-.08-.1h-.03v.1h-.06v-.26h.12Zm-.02,.36s.06,0,.09-.02c.03-.01,.05-.03,.07-.05,.02-.02,.04-.04,.05-.07,.02-.06,.02-.12,0-.17-.01-.03-.03-.05-.05-.07-.02-.02-.04-.04-.07-.05-.03-.01-.06-.02-.09-.02-.03,0-.06,0-.09,.02-.03,.01-.05,.03-.07,.05-.06,.06-.08,.16-.05,.24,.01,.03,.03,.05,.05,.07,.02,.02,.04,.04,.07,.05,.03,.01,.06,.02,.09,.02m0-.51c.08,0,.15,.03,.21,.08,.03,.03,.05,.06,.06,.09,.03,.07,.03,.15,0,.22-.01,.03-.04,.06-.06,.09-.03,.03-.06,.05-.09,.06-.04,.02-.07,.02-.11,.02-.04,0-.08,0-.11-.02-.03-.01-.07-.04-.09-.06-.03-.03-.05-.06-.06-.09-.03-.07-.03-.15,0-.22,.01-.03,.04-.06,.06-.09,.03-.03,.06-.05,.09-.06,.04-.02,.08-.02,.11-.02m-26.79-1.02c0-.5,.33-.92,.87-.92s.87,.4,.87,.92-.35,.92-.87,.92-.87-.41-.87-.92m2.33,0v-1.44h-.62v.35c-.2-.26-.5-.42-.91-.42-.8,0-1.44,.63-1.44,1.51s.63,1.51,1.44,1.51c.41,0,.71-.16,.91-.42v.35h.62v-1.44h0Zm21.1,0c0-.5,.33-.92,.87-.92s.87,.4,.87,.92-.35,.92-.87,.92-.87-.41-.87-.92m2.33,0v-2.59h-.63v1.5c-.2-.26-.5-.42-.91-.42-.8,0-1.44,.63-1.44,1.51s.63,1.51,1.44,1.51c.41,0,.71-.16,.91-.42v.35h.63v-1.44Zm-15.68-.95c.4,0,.66,.25,.73,.7h-1.49c.07-.41,.32-.7,.76-.7m.01-.56c-.84,0-1.43,.61-1.43,1.51s.61,1.51,1.47,1.51c.43,0,.83-.11,1.18-.4l-.31-.46c-.24,.19-.55,.3-.84,.3-.4,0-.77-.19-.86-.7h2.13c0-.08,.01-.16,.01-.24,0-.9-.56-1.51-1.36-1.51m7.54,1.51c0-.5,.33-.92,.87-.92s.87,.4,.87,.92-.35,.92-.87,.92-.87-.41-.87-.92m2.33,0v-1.44h-.62v.35c-.2-.26-.5-.42-.91-.42-.8,0-1.44,.63-1.44,1.51s.63,1.51,1.44,1.51c.41,0,.71-.16,.91-.42v.35h.62v-1.44h0Zm-5.85,0c0,.87,.61,1.51,1.53,1.51,.43,0,.72-.1,1.03-.34l-.3-.5c-.23,.17-.48,.26-.75,.26-.5,0-.87-.37-.87-.92s.37-.91,.87-.92c.27,0,.52,.09,.75,.26l.3-.5c-.31-.25-.6-.34-1.03-.34-.93,0-1.53,.64-1.53,1.51m8.05-1.51c-.36,0-.59,.17-.76,.42v-.35h-.62v2.87h.63v-1.61c0-.48,.2-.74,.61-.74,.13,0,.27,.02,.39,.07l.19-.59c-.14-.05-.32-.08-.44-.08m-16.74,.3c-.3-.2-.71-.3-1.17-.3-.73,0-1.2,.35-1.2,.92,0,.47,.35,.76,.99,.85l.3,.04c.34,.05,.5,.14,.5,.3,0,.22-.23,.35-.65,.35s-.74-.14-.96-.3l-.29,.49c.34,.25,.77,.37,1.24,.37,.83,0,1.31-.39,1.31-.94,0-.5-.38-.77-1-.86l-.29-.04c-.27-.03-.49-.09-.49-.28,0-.21,.2-.34,.55-.34,.37,0,.72,.14,.9,.25l.27-.5h0Zm8.06-.3c-.36,0-.59,.17-.76,.42v-.35h-.62v2.87h.62v-1.61c0-.48,.2-.74,.61-.74,.13,0,.27,.02,.39,.07l.19-.59c-.14-.05-.32-.08-.44-.08m-5.33,.07h-1.02v-.87h-.63v.87h-.58v.57h.58v1.31c0,.67,.26,1.06,1,1.06,.27,0,.58-.08,.78-.22l-.18-.53c-.19,.11-.39,.16-.55,.16-.31,0-.41-.19-.41-.48v-1.3h1.02v-.57Zm-9.34,2.87v-1.8c0-.68-.43-1.14-1.13-1.14-.37,0-.74,.11-1.01,.51-.2-.32-.51-.51-.95-.51-.31,0-.61,.09-.84,.43v-.36h-.63v2.87h.63v-1.59c0-.5,.28-.76,.7-.76s.62,.27,.62,.76v1.6h.63v-1.59c0-.5,.29-.76,.7-.76s.63,.27,.63,.76v1.6h.63Z"/>
    <path class="cls-6" d="M102.16,21.2v-.42h-.11l-.13,.29-.13-.29h-.11v.42h.08v-.32l.12,.27h.08l.12-.27v.32h.08Zm-.69,0v-.35h.14v-.07h-.36v.07h.14v.35h.08Z"/>
    <path class="cls-14" d="M89.73,23.01h-9.46V6h9.46V23.01Z"/>
    <path class="cls-7" d="M80.87,14.5c0-3.45,1.62-6.52,4.13-8.5-1.9-1.5-4.26-2.32-6.68-2.31-5.97,0-10.82,4.84-10.82,10.82s4.84,10.82,10.82,10.82c2.42,0,4.78-.81,6.68-2.31-2.52-1.98-4.13-5.05-4.13-8.5"/>
    <path class="cls-3" d="M102.5,14.5c0,5.97-4.84,10.82-10.82,10.82-2.43,0-4.78-.81-6.69-2.31,2.52-1.98,4.13-5.05,4.13-8.5s-1.62-6.52-4.13-8.5c1.9-1.5,4.26-2.32,6.68-2.31,5.97,0,10.82,4.84,10.82,10.82"/>
  </g>
  <path class="cls-27" d="M124.35,11.6l-5.15,11.39h6.16l.76-1.82h1.75l.76,1.82h6.78v-1.39l.6,1.39h3.51l.6-1.42v1.42h14.1l1.71-1.77,1.61,1.77h7.24s-5.16-5.66-5.16-5.66l5.16-5.73h-7.13l-1.67,1.74-1.56-1.74h-15.34l-1.32,2.94-1.35-2.94h-6.15v1.34l-.68-1.34s-5.26,0-5.26,0Zm1.19,1.62h3l3.41,7.72v-7.72h3.29l2.64,5.54,2.43-5.54h3.27v8.17h-1.99l-.02-6.4-2.9,6.4h-1.78l-2.92-6.4v6.4h-4.1l-.78-1.83h-4.2l-.78,1.83h-2.2s3.61-8.17,3.61-8.17Zm19.87,0h8.1l2.48,2.68,2.56-2.68h2.48l-3.76,4.11,3.76,4.06h-2.59l-2.48-2.71-2.57,2.71h-7.97V13.22h0Zm-18.41,1.38l-1.38,3.26h2.76l-1.38-3.26Zm20.41,.31v1.49h4.42v1.66h-4.42v1.63h4.96l2.3-2.4-2.2-2.39h-5.05Z"/>
  <g>
    <path class="cls-5" d="M211.42,17.39c0-6.1-5.09-10.32-10.68-10.32h-4.8c-5.65,0-10.3,4.22-10.3,10.32,0,5.58,4.65,10.17,10.3,10.14h4.8c5.58,.03,10.68-4.56,10.68-10.14Z"/>
    <path class="cls-9" d="M195.97,7.93c-5.16,0-9.34,4.19-9.35,9.37,0,5.17,4.18,9.37,9.35,9.37,5.16,0,9.35-4.19,9.35-9.37,0-5.17-4.18-9.37-9.35-9.37h0Z"/>
    <path class="cls-5" d="M190.07,17.28c0-2.53,1.58-4.68,3.8-5.54v11.08c-2.22-.86-3.8-3.01-3.8-5.54h0Zm8.04,5.54V11.73c2.22,.85,3.8,3.01,3.81,5.54,0,2.53-1.58,4.69-3.81,5.54h0Z"/>
  </g>
  <g>
    <path class="cls-19" d="M245.69,7.38h-4.72c-2.09,.1-3.79,.94-4.28,2.67-.26,.9-.4,1.9-.6,2.83-1.02,4.76-1.93,9.66-2.9,14.33h36.77c2.84,0,4.79-.6,5.32-2.86,.24-1.05,.48-2.24,.71-3.39,.91-4.49,1.83-8.98,2.76-13.59h-33.06"/>
    <path class="cls-9" d="M264.66,19.23c-.51,.5-1.94,.64-1.79-.55,.12-.99,1.2-1.2,2.37-1.06-.09,.54-.19,1.23-.58,1.61Zm-1.61-3.87c-.05,.27-.12,.52-.18,.78,.58-.15,2.4-.6,2.58,.18,.06,.26-.04,.53-.12,.74-1.64-.16-2.98,.12-3.34,1.29-.24,.78,.03,1.56,.53,1.77,.97,.41,2.15-.06,2.55-.71-.04,.23-.08,.45-.07,.74h.85c0-.82,.13-1.48,.25-2.21,.11-.62,.31-1.24,.28-1.79-.07-1.26-2.17-.82-3.34-.78Zm8.54,4.26c-.67,.01-1-.4-1.01-1.08-.03-1.2,.5-2.53,1.56-2.65,.5-.06,.86,.06,1.22,.18-.33,1.34-.21,3.51-1.77,3.54Zm2.21-6.33c-.08,.74-.2,1.46-.35,2.14-2.43-.77-3.92,1.02-3.89,3.22,0,.43,.08,.85,.35,1.15,.46,.52,1.77,.64,2.44,.21,.13-.08,.26-.24,.35-.35,.06-.08,.17-.29,.18-.23-.03,.23-.09,.45-.09,.71h.9c.17-2.48,.71-4.6,1.1-6.86h-.99Zm-25.33,5.96c-.53,.56-1.83,.55-1.93-.39-.04-.41,.11-.84,.18-1.27,.08-.43,.13-.84,.21-1.22,.52-.64,2.05-.71,2.21,.35,.13,.92-.23,2.07-.67,2.53Zm.78-3.89c-.84-.31-1.86,.06-2.3,.42,0,.02-.01,.02-.02,.02,0,0,.02-.01,.02-.02,0,0,0,0,0,0,0-.15,.06-.26,.07-.41h-.85c-.35,2.36-.78,4.65-1.22,6.93h.99c.14-.88,.24-1.82,.44-2.65,.23,.87,1.7,.7,2.32,.37,1.28-.69,2.28-4,.55-4.65Zm4.69,1.66h-2.32c.07-.53,.55-1.12,1.31-1.15,.71-.03,1.22,.26,1.01,1.15Zm-.94-1.75c-.71,.06-1.32,.26-1.75,.71-.53,.56-.95,1.78-.83,2.9,.18,1.59,2.16,1.54,3.75,1.15,.03-.28,.09-.52,.14-.78-.65,.24-1.79,.59-2.46,.16-.51-.32-.51-1.13-.35-1.84,1.07-.03,2.18-.03,3.24,0,.07-.5,.26-1.05,.09-1.54-.22-.65-1.03-.82-1.84-.76Zm-8.7,.09s-.03,.04-.02,.07c-.22,1.63-.51,3.18-.83,4.72h.99c.24-1.64,.51-3.25,.85-4.79h-.99Zm25.82,.02c-.87-.44-1.6,.3-1.89,.74,.08-.23,.09-.53,.16-.76h-.87c-.24,1.64-.52,3.24-.85,4.79h1.01c0-.63,.13-1.1,.23-1.73,.21-1.33,.52-2.79,2.07-2.35,.05-.22,.07-.48,.14-.69Zm-11.11,3.64c-.09-.24-.11-.62-.09-.92,.05-.66,.29-1.47,.67-1.84,.52-.51,1.53-.42,2.35-.14,.03-.27,.08-.52,.12-.78-1.33-.22-2.6-.08-3.27,.62-.66,.69-1.09,2.27-.78,3.27,.36,1.17,1.95,1.23,3.24,.78,.06-.23,.09-.5,.14-.74-.71,.37-2.06,.56-2.37-.25Zm-.55-3.66c-.88-.35-1.57,.24-1.89,.81,.07-.25,.1-.54,.16-.81h-.87c-.21,1.66-.53,3.21-.83,4.79h.99c.14-.93,.2-2.19,.51-3.08,.25-.71,.89-1.32,1.82-.99,.01-.26,.09-.46,.12-.71Zm-15.95-1.93c-.14,.92-.3,1.82-.46,2.72-1.03,.01-2.07,.05-3.06-.02,.19-.88,.32-1.81,.51-2.69h-1.1c-.4,2.24-.76,4.52-1.2,6.72h1.13c.18-1.13,.34-2.27,.58-3.34,.96-.02,2.11-.06,3.04,.02-.19,1.11-.42,2.19-.6,3.31h1.13c.36-2.28,.74-4.53,1.2-6.72h-1.15Zm2.81,1.01c.2-.14,.45-.75,.16-1.01-.09-.08-.25-.11-.46-.07-.2,.03-.31,.1-.39,.21-.13,.17-.24,.68-.05,.87,.19,.19,.61,.09,.74,0h0Z"/>
  </g>
  <g>
    <polygon class="cls-10" points="291.62 9.23 291.62 22.17 294.56 22.17 294.56 16.76 299.38 16.76 299.38 22.17 302.3 22.17 302.3 9.23 299.38 9.23 299.38 14.2 294.56 14.2 294.56 9.23 291.62 9.23"/>
    <path class="cls-10" d="M327.59,18.41c.04-.21,.1-.65,.1-1.15,0-2.32-1.15-4.69-4.19-4.69-3.26,0-4.74,2.63-4.74,5.02,0,2.94,1.83,4.79,5.02,4.79,1.26,0,2.44-.19,3.4-.58l-.38-1.98c-.78,.25-1.6,.38-2.6,.38-1.36,0-2.55-.58-2.65-1.78h6.04Zm-6.07-2c.07-.78,.58-1.9,1.8-1.9,1.35,0,1.65,1.19,1.65,1.9h-3.45Z"/>
    <path class="cls-10" d="M328.62,22.17h2.92v-4.76c0-.23,.02-.46,.06-.65,.19-.9,.92-1.48,2-1.48,.33,0,.58,.04,.78,.07v-2.74c-.21-.04-.35-.04-.61-.04-.9,0-2.06,.58-2.54,1.94h-.07l-.1-1.73h-2.52c.04,.81,.07,1.71,.07,3.09v6.3h0Z"/>
    <path class="cls-40" d="M305.27,8.71c.83,0,1.5,.67,1.5,1.5s-.67,1.5-1.5,1.5-1.5-.67-1.5-1.5,.67-1.5,1.5-1.5h0Z"/>
    <path class="cls-11" d="M311.44,19.98h1.46c1.47,0,2.14-.94,2.14-1.92s-.07-3.2-1.89-3.2c-2.09,0-1.75,2.76-1.74,4.2,0,.31,.01,.62,.02,.92h0Zm-7.67-7.21h3v5.3c0,.98,.55,1.92,1.75,1.92,0-2.38,0-4.84-.08-7.22h2.51c.05,.46,.1,.92,.15,1.38,1.18-2.37,4.92-1.85,6.18,.16,1.29,2.06,1.74,7.98-4.37,7.98h-1.42c.01,1.2,.01,2.4,.01,3.61h-3c0-1.15,0-2.37,.01-3.61-3.25-.01-4.74-2.07-4.74-4.22v-5.3h0Z"/>
  </g>
  <g>
    <g id="g56">
      <path id="path58" class="cls-15" d="M354.29,12.5c.5-.17,1.04-.26,1.6-.26,2.44,0,4.49,1.74,4.95,4.05l3.47-.71c-.8-3.92-4.26-6.87-8.42-6.87-.95,0-1.87,.16-2.73,.44l1.12,3.35Z"/>
    </g>
    <g id="g60">
      <path id="path62" class="cls-29" d="M350.2,23.74l2.34-2.65c-1.05-.93-1.71-2.28-1.71-3.79s.66-2.86,1.7-3.78l-2.34-2.65c-1.78,1.57-2.9,3.87-2.9,6.43s1.12,4.86,2.9,6.44"/>
    </g>
    <g id="g64">
      <path id="path66" class="cls-13" d="M360.84,18.32c-.47,2.31-2.51,4.04-4.95,4.04-.56,0-1.1-.09-1.6-.26l-1.12,3.36c.86,.29,1.77,.44,2.73,.44,4.15,0,7.62-2.95,8.42-6.87l-3.47-.71Z"/>
    </g>
    <g id="g68">
      <path id="path70" class="cls-23" d="M374.27,20.15s0,0,0,0l-.1-.07c-.28,.46-.73,.83-1.29,1.08-1.06,.46-2.05,.34-2.76-.28l-.07,.1h0s-1.21,1.8-1.21,1.8c.3,.21,.62,.38,.96,.53,1.33,.55,2.7,.53,4.04-.06,.97-.42,1.73-1.06,2.26-1.88l-1.84-1.23Zm-3.77-4.45c-1.12,.48-1.7,1.54-1.58,2.77l4.76-2.05c-.82-.96-1.88-1.28-3.17-.72m-3.16,5.5c-.11-.18-.27-.48-.36-.69-.55-1.27-.58-2.59-.11-3.86,.51-1.39,1.48-2.45,2.74-2.99,1.58-.68,3.33-.55,4.85,.35,.96,.55,1.64,1.4,2.16,2.61,.07,.15,.12,.32,.18,.46l-9.46,4.12Z"/>
    </g>
    <g id="g72">
      <path id="path74" class="cls-23" d="M380.11,10.99v10.04l1.56,.63-.89,2.07-1.72-.72c-.39-.17-.65-.42-.85-.71-.19-.29-.33-.7-.33-1.24V10.99h2.23Z"/>
    </g>
    <g id="g76">
      <path id="path78" class="cls-23" d="M384.15,18.47c0-.85,.38-1.62,.98-2.14l-1.6-1.78c-1.09,.96-1.77,2.36-1.77,3.92,0,1.56,.68,2.97,1.77,3.93l1.6-1.79c-.59-.52-.97-1.29-.97-2.14"/>
    </g>
    <g id="g80">
      <path id="path82" class="cls-23" d="M386.99,21.32c-.32,0-.62-.05-.9-.15l-.76,2.27c.52,.18,1.08,.27,1.66,.27,2.53,0,4.65-1.8,5.14-4.19l-2.35-.48c-.27,1.3-1.42,2.27-2.79,2.27"/>
    </g>
    <g id="g84">
      <path id="path86" class="cls-23" d="M387,13.23c-.58,0-1.14,.09-1.66,.27l.76,2.28c.28-.09,.59-.15,.9-.15,1.38,0,2.53,.98,2.79,2.28l2.35-.48c-.48-2.39-2.6-4.2-5.14-4.2"/>
    </g>
  </g>
  <g>
    <path class="cls-34" d="M548.53,17.72h2.04s.02,0,.03,0c.01,0,.02,0,.03,0,.01,0,.02,0,.03,0,.01,0,.02,0,.03,0,.01,0,.02,0,.03,0,.01,0,.02,0,.03,0,0,0,.01,0,.02,0h.01s.02,0,.03,.01c.01,0,.02,0,.03,0,.01,0,.02,0,.03,.01,.01,0,.02,0,.03,.01,.01,0,.02,0,.03,.01,.01,0,.02,.01,.03,.02,.01,0,.02,.01,.03,.02,.01,0,.02,.01,.03,.02,.01,0,.02,.01,.03,.02,.01,0,.02,.02,.03,.02,.01,0,.02,.02,.03,.03,.01,0,.02,.02,.03,.03,.01,.01,.02,.02,.03,.03,.01,.01,.02,.02,.03,.04,.01,.01,.02,.03,.03,.04,.01,.01,.02,.03,.03,.05,.01,.02,.02,.04,.03,.05,.01,.02,.02,.04,.03,.06,.01,.03,.02,.05,.03,.08,.01,.04,.02,.07,.03,.11,.02,.07,.02,.14,.02,.21s0,.15-.02,.21c0,.04-.02,.08-.03,.11-.01,.03-.02,.05-.03,.08-.01,.02-.02,.04-.03,.06-.01,.02-.02,.04-.03,.05-.01,.02-.02,.03-.03,.05-.01,.01-.02,.03-.03,.04-.01,.01-.02,.02-.03,.04-.01,.01-.02,.02-.03,.03-.01,.01-.02,.02-.03,.03-.01,0-.02,.02-.03,.03-.01,0-.02,.02-.03,.02-.01,0-.02,.01-.03,.02-.01,0-.02,.01-.03,.02-.01,0-.02,.01-.03,.02-.01,0-.02,.01-.03,.02-.01,0-.02,0-.03,.01-.01,0-.02,0-.03,.01-.01,0-.02,0-.03,.01-.01,0-.02,0-.03,0-.01,0-.02,0-.03,0h-.01s-.01,0-.02,0c-.01,0-.02,0-.03,0-.01,0-.02,0-.03,0-.01,0-.02,0-.03,0-.01,0-.02,0-.03,0-.01,0-.02,0-.03,0-.01,0-.02,0-.03,0h-.02s-.02,0-.02,0h-2v-1.84h0Z"/>
    <path class="cls-34" d="M551.24,15.64c.01,.06,.02,.13,.02,.2s0,.13-.02,.2c0,.04-.02,.08-.03,.11,0,.03-.02,.05-.03,.08-.01,.02-.02,.04-.03,.06-.01,.02-.02,.03-.03,.05-.01,.01-.02,.03-.03,.04-.01,.01-.02,.03-.03,.04-.01,.01-.02,.02-.03,.03-.01,.01-.02,.02-.03,.03-.01,0-.02,.02-.03,.03-.01,0-.02,.02-.03,.02-.01,0-.02,.01-.03,.02-.01,0-.02,.01-.03,.02-.01,0-.02,.01-.03,.02-.01,0-.02,.01-.03,.02-.01,0-.02,0-.03,.01-.01,0-.02,0-.03,.01-.01,0-.02,0-.03,.01-.01,0-.02,0-.03,0-.01,0-.02,0-.03,0-.01,0-.02,0-.03,0h0s-.02,0-.03,0c0,0-.02,0-.03,0-.01,0-.02,0-.03,0-.01,0-.02,0-.03,0-.01,0-.02,0-.03,0-.01,0-.02,0-.03,0h0s-.03,0-.03,0h-1.8v-1.7h1.87s.02,0,.03,0c.01,0,.02,0,.03,0,.01,0,.02,0,.03,0,.01,0,.02,0,.03,0,.01,0,.02,0,.03,0h0s.02,0,.03,0c.01,0,.02,0,.03,0,.01,0,.02,0,.03,0,.01,0,.02,0,.03,.01,.01,0,.02,0,.03,.01,.01,0,.02,0,.03,.01,.01,0,.02,.01,.03,.02,.01,0,.02,.01,.03,.02,.01,0,.02,.01,.03,.02,.01,0,.02,.01,.03,.02,.01,0,.02,.02,.03,.02,.01,0,.02,.02,.03,.03,.01,0,.02,.02,.03,.03,.01,.01,.02,.02,.03,.03,.01,.01,.02,.02,.03,.04,.01,.01,.02,.03,.03,.04,.01,.02,.02,.03,.03,.05,.01,.02,.02,.04,.03,.06,.01,.02,.02,.05,.03,.08,.01,.04,.02,.07,.03,.11,0,0,0-.04,0,0h0Z"/>
    <path class="cls-34" d="M555.43,6.84V24.27c0,.1,0,.21-.01,.31,0,.09-.02,.18-.03,.27,0,.06-.02,.12-.03,.17-.01,.05-.02,.09-.03,.14-.01,.04-.02,.08-.03,.12-.01,.04-.02,.07-.03,.11-.01,.03-.02,.06-.03,.09-.01,.03-.02,.06-.03,.09-.01,.03-.02,.05-.03,.08-.01,.03-.02,.05-.03,.08-.01,.02-.02,.05-.03,.07-.01,.02-.02,.05-.03,.07-.01,.02-.02,.04-.03,.06-.01,.02-.02,.04-.03,.06-.01,.02-.02,.04-.03,.06-.01,.02-.02,.04-.03,.06-.01,.02-.02,.04-.03,.05-.01,.02-.02,.03-.03,.05-.01,.02-.02,.03-.03,.05-.01,.02-.02,.03-.03,.05-.01,.02-.02,.03-.03,.05-.01,.01-.02,.03-.03,.04-.01,.01-.02,.03-.03,.04-.01,.01-.02,.03-.03,.04-.01,.01-.02,.03-.03,.04-.01,.01-.02,.03-.03,.04-.01,.01-.02,.03-.03,.04-.01,.01-.02,.02-.03,.04-.01,.01-.02,.02-.03,.04-.01,.01-.02,.02-.03,.03-.01,.01-.02,.02-.03,.03-.01,.01-.02,.02-.03,.03-.01,.01-.02,.02-.03,.03-.01,.01-.02,.02-.03,.03-.01,.01-.02,.02-.03,.03-.01,.01-.02,.02-.03,.03-.01,0-.02,.02-.03,.03-.01,0-.02,.02-.03,.03-.01,0-.02,.02-.03,.03-.01,0-.02,.02-.03,.03-.01,0-.02,.02-.03,.03-.01,0-.02,.02-.03,.03-.01,0-.02,.02-.03,.02-.01,0-.02,.02-.03,.02-.01,0-.02,.02-.03,.02-.01,0-.02,.02-.03,.02-.01,0-.02,.01-.03,.02-.01,0-.02,.01-.03,.02-.01,0-.02,.01-.03,.02-.01,0-.02,.01-.03,.02-.01,0-.02,.01-.03,.02l-.03,.02s-.02,.01-.03,.02c-.01,0-.02,.01-.03,.02-.01,0-.02,.01-.03,.02-.01,0-.02,.01-.03,.02-.01,0-.02,.01-.03,.02-.01,0-.02,.01-.03,.02s-.02,.01-.03,.02c-.01,0-.02,.01-.03,.02l-.03,.02-.03,.02s-.02,0-.03,.01c-.01,0-.02,0-.03,.01-.01,0-.02,0-.03,.01-.01,0-.02,0-.03,.01-.01,0-.02,0-.03,.01-.01,0-.02,0-.03,.01h-.03s-.02,.02-.03,.02c-.01,0-.02,0-.03,.01-.01,0-.02,0-.03,.01h-.03s-.02,.02-.03,.02h-.03s-.02,.02-.03,.02c-.01,0-.02,0-.03,0-.01,0-.02,0-.03,0h-.03s-.03,.02-.03,.02h-.03s-.02,.01-.03,.02c-.01,0-.02,0-.03,0h-.03s-.03,.01-.03,.01c-.01,0-.02,0-.03,0-.01,0-.02,0-.03,0h-.03s-.03,.01-.03,.01h-.03s-.02,0-.03,0c-.01,0-.02,0-.03,0-.01,0-.02,0-.03,0-.01,0-.02,0-.03,0-.01,0-.02,0-.03,0-.01,0-.02,0-.03,0-.01,0-.02,0-.03,0h-.03s-.02,0-.03,0c-.01,0-.02,0-.03,0h-.03s-.03,0-.03,0c-.01,0-.02,0-.03,0h-.03s0,0,0,0h-5.12v-7.11h5.43s.03,0,.03,0h.03s.02,0,.03,0c.01,0,.02,0,.03,0h.03s.03,0,.03,0h.03s.03,0,.03,0h.03s.02,0,.03,0c.01,0,.02,0,.03,0h.03s.02,0,.03,0c.01,0,.02,0,.03,0,.01,0,.02,0,.03,0h.03s.03-.01,.03-.01c.01,0,.02,0,.03,0,.01,0,.02,0,.03,0h.03s.02-.01,.03-.01c.01,0,.02,0,.03,0,.01,0,.02,0,.03,0,.01,0,.02,0,.03,0,.01,0,.02,0,.03,0,.01,0,.02,0,.03,0h.03s.02-.02,.03-.02c.01,0,.02,0,.03-.01,.01,0,.02,0,.03-.01,.01,0,.02,0,.03-.01,.01,0,.02,0,.03-.01,.01,0,.02,0,.03-.01,.01,0,.02,0,.03-.01,.01,0,.02-.01,.03-.02,.01,0,.02-.01,.03-.02,.01,0,.02-.01,.03-.02,.01,0,.02-.01,.03-.02,.01,0,.02-.01,.03-.02,.01,0,.02-.01,.03-.02,.01,0,.02-.01,.03-.02,.01,0,.02-.01,.03-.02,.01,0,.02-.01,.03-.02,.01,0,.02-.01,.03-.02,.01,0,.02-.02,.03-.02,.01,0,.02-.02,.03-.02,.01,0,.02-.02,.03-.03,.01,0,.02-.02,.03-.03,.01,0,.02-.02,.03-.03,.01,0,.02-.02,.03-.03,.01-.01,.02-.02,.03-.03,.01-.01,.02-.02,.03-.03,.01-.01,.02-.02,.03-.04,.01-.01,.02-.02,.03-.04,.01-.01,.02-.03,.03-.04,.01-.01,.02-.03,.03-.04,.01-.01,.02-.03,.03-.05,.01-.02,.02-.03,.03-.05,.01-.02,.02-.04,.03-.05,.01-.02,.02-.04,.03-.06,.01-.02,.02-.04,.03-.07,.01-.03,.02-.05,.03-.08,.01-.03,.02-.06,.03-.09,.01-.04,.02-.08,.03-.11,.01-.06,.03-.12,.03-.18,0-.07,.01-.15,.01-.22s0-.15-.01-.22c0-.06-.02-.11-.03-.17,0-.04-.02-.07-.03-.11-.01-.03-.02-.06-.03-.09-.01-.02-.02-.05-.03-.07-.01-.02-.02-.04-.03-.06-.01-.02-.02-.04-.03-.06-.01-.02-.02-.03-.03-.05-.01-.02-.02-.03-.03-.05-.01-.01-.02-.03-.03-.04-.01-.01-.02-.03-.03-.04-.01-.01-.02-.03-.03-.04-.01-.01-.02-.02-.03-.04-.01-.01-.02-.02-.03-.03-.01-.01-.02-.02-.03-.03-.01-.01-.02-.02-.03-.03-.01,0-.02-.02-.03-.03-.01,0-.02-.02-.03-.03-.01,0-.02-.02-.03-.03-.01,0-.02-.02-.03-.02-.01,0-.02-.02-.03-.02-.01,0-.02-.02-.03-.02-.01,0-.02-.01-.03-.02-.01,0-.02-.01-.03-.02-.01,0-.02-.01-.03-.02-.01,0-.02-.01-.03-.02-.01,0-.02-.01-.03-.02-.01,0-.02-.01-.03-.02-.01,0-.02-.01-.03-.02-.01,0-.02-.01-.03-.02-.01,0-.02-.01-.03-.02-.01,0-.02,0-.03-.01-.01,0-.02,0-.03-.01-.01,0-.02,0-.03-.01-.01,0-.02,0-.03-.01-.01,0-.02,0-.03-.01-.01,0-.02,0-.03-.01-.01,0-.02,0-.03-.01-.01,0-.02,0-.03-.01-.01,0-.02,0-.03-.01h-.03s-.02-.02-.03-.02c-.01,0-.02,0-.03,0-.01,0-.02,0-.03,0-.01,0-.02,0-.03,0-.01,0-.02,0-.03,0-.01,0-.02,0-.03,0-.01,0-.02,0-.03,0h-.03s-.03-.01-.03-.01c-.01,0-.02,0-.03,0h-.03s-.02,0-.03-.01h-.03s-.03,0-.03,0h-.03s-.03,0-.03,0h-.03s-.03,0-.03,0h-.03s0-.04,0-.04h.03s.03-.01,.03-.01c.01,0,.02,0,.03,0h.03s.02-.01,.03-.01h.03s.02-.01,.03-.02c.01,0,.02,0,.03,0,.01,0,.02,0,.03,0,.01,0,.02,0,.03,0,.01,0,.02,0,.03,0,.01,0,.02,0,.03-.01,.01,0,.02,0,.03-.01,.01,0,.02,0,.03-.01,.01,0,.02,0,.03-.01,.01,0,.02,0,.03-.01,.01,0,.02,0,.03-.01,.01,0,.02,0,.03-.01,.01,0,.02,0,.03-.02,.01,0,.02-.01,.03-.02,.01,0,.02-.01,.03-.02,.01,0,.02-.01,.03-.02,.01,0,.02-.01,.03-.02,.01,0,.02-.01,.03-.02,.01,0,.02-.01,.03-.02,.01,0,.02-.01,.03-.02,.01,0,.02-.01,.03-.02,.01,0,.02-.02,.03-.02,.01,0,.02-.02,.03-.02,.01,0,.02-.02,.03-.03,.01,0,.02-.02,.03-.03,.01,0,.02-.02,.03-.03,.01-.01,.02-.02,.03-.03,.01-.01,.02-.02,.03-.03,.01-.01,.02-.02,.03-.03,.01-.01,.02-.02,.03-.04,.01-.01,.02-.03,.03-.04,.01-.01,.02-.03,.03-.04,.01-.01,.02-.03,.03-.05,.01-.02,.02-.03,.03-.05,.01-.02,.02-.04,.03-.05,.01-.02,.02-.04,.03-.06,.01-.02,.02-.04,.03-.07,.01-.03,.02-.05,.03-.08,.01-.03,.02-.06,.03-.09,.01-.04,.02-.08,.03-.12,.02-.07,.03-.13,.03-.2,0-.05,0-.11,0-.16,0-.06,0-.11,0-.17,0-.07-.02-.14-.03-.2,0-.04-.02-.08-.03-.12-.01-.03-.02-.06-.03-.09-.01-.03-.02-.05-.03-.08-.01-.02-.02-.04-.03-.07-.01-.02-.02-.04-.03-.06-.01-.02-.02-.04-.03-.05-.01-.02-.02-.03-.03-.05-.01-.01-.02-.03-.03-.04-.01-.01-.02-.03-.03-.04-.01-.01-.02-.03-.03-.04-.01-.01-.02-.02-.03-.04-.01-.01-.02-.02-.03-.03-.01-.01-.02-.02-.03-.03-.01,0-.02-.02-.03-.03-.01,0-.02-.02-.03-.03-.01,0-.02-.02-.03-.03-.01,0-.02-.02-.03-.02-.01,0-.02-.02-.03-.02-.01,0-.02-.02-.03-.02-.01,0-.02-.01-.03-.02-.01,0-.02-.01-.03-.02-.01,0-.02-.01-.03-.02-.01,0-.02-.01-.03-.02-.01,0-.02-.01-.03-.02-.01,0-.02-.01-.03-.02-.01,0-.02-.01-.03-.02-.01,0-.02-.01-.03-.02-.01,0-.02,0-.03-.01-.01,0-.02,0-.03-.01-.01,0-.02,0-.03-.01-.01,0-.02,0-.03-.01-.01,0-.02,0-.03-.01-.01,0-.02,0-.03-.01-.01,0-.02,0-.03-.01-.01,0-.02,0-.03-.01-.01,0-.02,0-.03-.01-.01,0-.02,0-.03,0-.01,0-.02,0-.03,0h-.03s-.02-.01-.03-.02c-.01,0-.02,0-.03,0h-.03s-.02-.01-.03-.01c-.01,0-.02,0-.03,0h-.03s-.02,0-.03-.01h-.03s-.03,0-.03,0h-.03s-.03,0-.03,0h-.03s-.03,0-.03,0h-.03s-.03,0-.03,0h-.03s-.03,0-.03,0h-.01s-.02,0-.02,0h-.03s-.03,0-.03,0h-.03s-.03,0-.03,0h-.03s-.03,0-.03,0h-.03s-.03,0-.03,0h-.03s-.02,0-.02,0h-4.94v-3.62c0-.24,.03-.48,.07-.71,.01-.05,.02-.1,.03-.15,.01-.04,.02-.08,.03-.12,.01-.04,.02-.07,.03-.11,.01-.03,.02-.07,.03-.1,.01-.03,.02-.06,.03-.09,.01-.03,.02-.06,.03-.08,.01-.03,.02-.05,.03-.08,.01-.02,.02-.05,.03-.07,.01-.02,.02-.05,.03-.07,.01-.02,.02-.04,.03-.06,.01-.02,.02-.04,.03-.06,.01-.02,.02-.04,.03-.06,.01-.02,.02-.04,.03-.06,.01-.02,.02-.04,.03-.05,.01-.02,.02-.03,.03-.05,.01-.02,.02-.03,.03-.05,.01-.02,.02-.03,.03-.05,.01-.02,.02-.03,.03-.05,.01-.02,.02-.03,.03-.04,.01-.01,.02-.03,.03-.04,.01-.01,.02-.03,.03-.04,.01-.01,.02-.03,.03-.04,.01-.01,.02-.03,.03-.04,.01-.01,.02-.03,.03-.04,.01-.01,.02-.03,.03-.04,.01-.01,.02-.02,.03-.04,.01-.01,.02-.02,.03-.04,.01-.01,.02-.02,.03-.03,.01-.01,.02-.02,.03-.03"/>
    <path id="Shape" class="cls-36" d="M536.17,6.84V24.27c0,.15,0,.3-.03,.45,0,.07-.02,.14-.03,.21-.01,.05-.02,.1-.03,.16-.01,.04-.02,.09-.03,.13-.01,.04-.02,.08-.03,.11-.01,.03-.02,.07-.03,.1-.01,.03-.02,.06-.03,.09-.01,.03-.02,.06-.03,.08-.01,.03-.02,.05-.03,.08-.01,.02-.02,.05-.03,.07-.01,.02-.02,.05-.03,.07-.01,.02-.02,.04-.03,.07-.01,.02-.02,.04-.03,.06-.01,.02-.02,.04-.03,.06-.01,.02-.02,.04-.03,.06-.01,.02-.02,.04-.03,.05-.01,.02-.02,.04-.03,.05-.01,.02-.02,.03-.03,.05-.01,.02-.02,.03-.03,.05-.01,.02-.02,.03-.03,.05-.01,.02-.02,.03-.03,.05-.01,.01-.02,.03-.03,.04-.01,.01-.02,.03-.03,.04-.01,.01-.02,.03-.03,.04-.01,.01-.02,.03-.03,.04-.01,.01-.02,.03-.03,.04-.01,.01-.02,.03-.03,.04-.01,.01-.02,.02-.03,.04-.01,.01-.02,.02-.03,.04-.01,.01-.02,.02-.03,.03-.01,.01-.02,.02-.03,.03-.01,.01-.02,.02-.03,.03-.01,.01-.02,.02-.03,.03-.01,.01-.02,.02-.03,.03-.01,.01-.02,.02-.03,.03-.01,0-.02,.02-.03,.03-.01,0-.02,.02-.03,.03-.01,0-.02,.02-.03,.03-.01,0-.02,.02-.03,.03-.01,0-.02,.02-.03,.03-.01,0-.02,.02-.03,.03-.01,0-.02,.02-.03,.03-.01,0-.02,.02-.03,.02-.01,0-.02,.02-.03,.02-.01,0-.02,.02-.03,.02-.01,0-.02,.02-.03,.02-.01,0-.02,.01-.03,.02-.01,0-.02,.01-.03,.02-.01,0-.02,.01-.03,.02-.01,0-.02,.01-.03,.02-.01,0-.02,.01-.03,.02-.01,0-.02,.01-.03,.02-.01,0-.02,.01-.03,.02-.01,0-.02,.01-.03,.02-.01,0-.02,.01-.03,.02l-.03,.02s-.02,.01-.03,.02c-.01,0-.02,.01-.03,.02-.01,0-.02,.01-.03,.02-.01,0-.02,.01-.03,.02-.01,0-.02,.01-.03,.02-.01,0-.02,0-.03,.01h-.03s-.03,.03-.03,.03c-.01,0-.02,0-.03,.01-.01,0-.02,0-.03,.01-.01,0-.02,0-.03,.01-.01,0-.02,0-.03,.01-.01,0-.02,0-.03,.01h-.03s-.03,.02-.03,.02c-.01,0-.02,0-.03,.01-.01,0-.02,0-.03,.01-.01,0-.02,0-.03,.01h-.03s-.03,.02-.03,.02c-.01,0-.02,0-.03,0-.01,0-.02,0-.03,0-.01,0-.02,0-.03,0-.01,0-.02,0-.03,0h-.03s-.03,.02-.03,.02c-.01,0-.02,0-.03,0-.01,0-.02,0-.03,0-.01,0-.02,0-.03,0h-.03s-.02,0-.03,.01c-.01,0-.02,0-.03,0-.01,0-.02,0-.03,0h-.03s-.02,0-.03,0c-.01,0-.02,0-.03,0-.01,0-.02,0-.03,0-.01,0-.02,0-.03,0h-.03s-.02,0-.03,0c-.01,0-.02,0-.03,0h-.03s-.03,0-.03,0c-.01,0-.02,0-.03,0-.01,0-.02,0-.03,0-.01,0-.02,0-.03,0h-.03s-.02,0-.03,0h-5.12v-7.35s.02,0,.07,.02h.03s.03,.02,.03,.02h.03s.03,.02,.03,.02h.03s.03,.02,.03,.02h.03s.03,.02,.03,.02h.03s.03,.01,.03,.01h.03s.03,.01,.03,.01h.03s.03,.01,.03,.01h.03s.03,.01,.03,.01h.03s.03,.01,.03,.01h.03s.03,.01,.03,.01h.03s.03,.01,.03,.01h.03s.03,.01,.03,.01h.03s.03,.01,.03,.01h.03s.03,.01,.03,.01h.03s.03,.01,.03,.01h.03s.03,.01,.03,.01h.03s.03,.01,.03,.01h.03s.03,.01,.03,.01h.03s.03,.01,.03,.01h.03s.03,0,.03,0h.03s.03,0,.03,0h.03s.03,0,.03,0h.03s.03,0,.03,0h.03s.03,0,.03,0h.03s.03,0,.03,0h.03s.03,0,.03,0h.03s.03,0,.03,0h.03s.03,0,.03,0h.03s.03,0,.03,0h.03s.03,0,.03,0h.03s.03,0,.03,0h.03s.03,0,.03,0h.03s.03,0,.03,0h.03s.03,0,.03,0h.03s.03,0,.03,0h.03s.03,0,.03,0h.03s.03,0,.03,0h.03s.03,0,.03,0h.03s.03,0,.03,0h.03s.03,0,.03,0h.03s.03,0,.03,0h.03s.03,0,.03,0h.03s.03,0,.03,0h.03s.03,0,.03,0h.03s.03,0,.03,0h.03s.03,0,.03,0h.03s.03,0,.03,0h.03s.03,0,.03,0h.03s.03,0,.03,0h.03s.03,0,.03,0h.03s.03,0,.03,0h.03s.03,0,.03,0h.01s.02,0,.02,0h.03s.03,0,.03,0h.03s.03,0,.03,0h.03s.03,0,.03,0h.03s.03,0,.03,0h.03s.03,0,.03,0h.03s.03,0,.03,0h.03s.03,0,.03,0h.03s.03,0,.03,0h.03s.03,0,.03,0h.03s.03,0,.03,0h.03s.03,0,.03,0h.03s.03,0,.03,0h.03s.03,0,.03,0h.03s.03,0,.03,0h.03s.03,0,.03,0h.03s.03,0,.03,0h.03s.03,0,.03,0h.03s.03,0,.03,0h.03s.03,0,.03,0h.03s.03,0,.03,0h.03s.02,0,.03,0h.03s.03-.01,.03-.01h.03s.02,0,.03-.01h.03s.02,0,.03-.01c.01,0,.02,0,.03,0h.03s.03-.01,.03-.01h.03s.02-.01,.03-.01h.03s.03-.01,.03-.01c.01,0,.02,0,.03,0h.03s.02-.01,.03-.02c.01,0,.02,0,.03,0h.03s.02-.01,.03-.02c.01,0,.02,0,.03,0h.03s.02-.01,.03-.02c.01,0,.02,0,.03,0h.03s.02-.02,.03-.02h.03s.03-.02,.03-.02c.01,0,.02,0,.03-.01h.03s.03-.02,.03-.02c.01,0,.02,0,.03-.01,.01,0,.02,0,.03-.01h.03s.02-.02,.03-.02c.01,0,.02,0,.03-.01,.01,0,.02,0,.03-.01h.03s.03-.03,.03-.03c.01,0,.02,0,.03-.01,.01,0,.02-.01,.03-.02l.03-.02,.03-.02s.02-.01,.03-.02c.01,0,.02-.01,.03-.02,.01,0,.02-.01,.03-.02,.01,0,.02-.01,.03-.02,.01,0,.02-.01,.03-.02,.01,0,.02-.01,.03-.02,.01,0,.02-.01,.03-.02,.01,0,.02-.01,.03-.02,.01,0,.02-.01,.03-.02,.01,0,.02-.01,.03-.02,.01,0,.02-.01,.03-.02,.01,0,.02-.01,.03-.02,.01,0,.02-.02,.03-.02,.01,0,.02-.02,.03-.02,.01,0,.02-.02,.03-.02,.01,0,.02-.02,.03-.03,.01,0,.02-.02,.03-.03,.01,0,.02-.02,.03-.03,.01,0,.02-.02,.03-.03,.01,0,.02-.02,.03-.03,.01-.01,.02-.02,.03-.03,.01-.01,.02-.02,.03-.03,.01-.01,.02-.02,.03-.03,.01-.01,.02-.02,.03-.03,.01-.01,.02-.02,.03-.04,.01-.01,.02-.02,.03-.04,.01-.01,.02-.03,.03-.04,.01-.01,.02-.03,.03-.04,.01-.01,.02-.03,.03-.04,.01-.01,.02-.03,.03-.05,.01-.02,.02-.03,.03-.05,.01-.02,.02-.03,.03-.05,.01-.02,.02-.04,.03-.05,.01-.02,.02-.04,.03-.06,.01-.02,.02-.04,.03-.06,.01-.02,.02-.04,.03-.07,.01-.02,.02-.05,.03-.07,.01-.03,.02-.05,.03-.08,.01-.03,.02-.06,.03-.09,.01-.03,.02-.07,.03-.1,.01-.04,.02-.08,.03-.12,.01-.05,.02-.1,.03-.16,.01-.08,.03-.16,.03-.24,.01-.11,.02-.23,.02-.35v-4.04h-3v4.04c0,.06,0,.13,0,.19,0,.08-.02,.15-.03,.23,0,.05-.02,.09-.03,.13-.01,.03-.02,.07-.03,.1-.01,.03-.02,.06-.03,.09-.01,.02-.02,.05-.03,.07-.01,.02-.02,.04-.03,.07-.01,.02-.02,.04-.03,.06-.01,.02-.02,.04-.03,.05-.01,.02-.02,.03-.03,.05-.01,.02-.02,.03-.03,.05-.01,.01-.02,.03-.03,.04-.01,.01-.02,.03-.03,.04-.01,.01-.02,.02-.03,.04-.01,.01-.02,.02-.03,.03-.01,.01-.02,.02-.03,.03-.01,.01-.02,.02-.03,.03-.01,0-.02,.02-.03,.03-.01,0-.02,.02-.03,.03-.01,0-.02,.02-.03,.03-.01,0-.02,.02-.03,.02-.01,0-.02,.02-.03,.02-.01,0-.02,.01-.03,.02-.01,0-.02,.01-.03,.02-.01,0-.02,.01-.03,.02-.01,0-.02,.01-.03,.02-.01,0-.02,.01-.03,.02-.01,0-.02,.01-.03,.02-.01,0-.02,.01-.03,.02-.01,0-.02,0-.03,.01-.01,0-.02,0-.03,.01-.01,0-.02,0-.03,.01-.01,0-.02,0-.03,.01-.01,0-.02,0-.03,.01-.01,0-.02,0-.03,.01-.01,0-.02,0-.03,.01-.01,0-.02,0-.03,0-.01,0-.02,0-.03,0-.01,0-.02,0-.03,0-.01,0-.02,0-.03,0-.01,0-.02,0-.03,0-.01,0-.02,0-.03,0-.01,0-.02,0-.03,0-.01,0-.02,0-.03,0h-.03s-.02,0-.03,0c-.01,0-.02,0-.03,0h-.03s-.02,0-.03,0c-.01,0-.02,0-.03,0-.01,0-.02,0-.03,0-.01,0-.02,0-.03,0-.01,0-.02,0-.03,0-.01,0-.02,0-.03,0h-.03s-.02,0-.03,0h-.01s-.02,0-.02,0h-.03s-.03,0-.03,0h-.03s-.03,0-.03,0h-.03s-.03,0-.03,0h-.03s-.03,0-.03,0h-.03s-.03,0-.03,0h-.03s-.03,0-.03,0h-.03s-.03,0-.03,0h-.03s-.03,0-.03,0h-.03s-.03,0-.03,0h-.03s-.03,0-.03,0h-.03s-.03,0-.03,0h-.03s-.03,0-.03,0h-.03s-.03-.01-.03-.01h-.03s-.03-.01-.03-.01h-.03s-.03-.01-.03-.01h-.03s-.03-.01-.03-.01h-.03s-.03-.01-.03-.01h-.03s-.03-.01-.03-.01h-.03s-.03-.02-.03-.02h-.03s-.03-.02-.03-.02h-.03s-.03-.02-.03-.02h-.03s-.03-.02-.03-.02h-.03s-.03-.02-.03-.02h-.03s-.03-.02-.03-.02h-.03s-.03-.02-.03-.02h-.03s-.03-.02-.03-.02h-.03s-.03-.02-.03-.02h-.03s-.03-.02-.03-.02h-.03s-.03-.02-.03-.02h-.03s-.03-.02-.03-.02h-.03s-.03-.02-.03-.02h-.03s-.03-.02-.03-.02h-.03s-.03-.03-.03-.03h-.03s-.03-.03-.03-.03h-.03s-.03-.03-.03-.03h-.03s-.03-.03-.03-.03h-.03s-.03-.03-.03-.03h-.03s-.03-.03-.03-.03h-.03s-.03-.03-.03-.03h-.03s-.03-.03-.03-.03h-.03s-.03-.03-.03-.03l-.03-.02-.03-.02-.03-.02-.03-.02-.03-.02h0s-.05-.02-.07-.03V10.33c0-.24,.02-.48,.07-.71,.01-.05,.02-.1,.03-.15,.01-.04,.02-.08,.03-.12,.01-.04,.02-.07,.03-.11,.01-.03,.02-.07,.03-.1,.01-.03,.02-.06,.03-.09,.01-.03,.02-.06,.03-.08,.01-.03,.02-.05,.03-.08,.01-.02,.02-.05,.03-.07,.01-.02,.02-.05,.03-.07,.01-.02,.02-.04,.03-.06,.01-.02,.02-.04,.03-.06,.01-.02,.02-.04,.03-.06,.01-.02,.02-.04,.03-.06,.01-.02,.02-.04,.03-.05,.01-.02,.02-.03,.03-.05,.01-.02,.02-.03,.03-.05,.01-.02,.02-.03,.03-.05,.01-.02,.02-.03,.03-.05,.01-.02,.02-.03,.03-.04,.01-.01,.02-.03,.03-.04,.01-.01,.02-.03,.03-.04,.01-.01,.02-.03,.03-.04,.01-.01,.02-.03,.03-.04,.01-.01,.02-.03,.03-.04,.01-.01,.02-.03,.03-.04,.01-.01,.02-.02,.03-.04,.01-.01,.02-.02,.03-.04,.01-.01,.02-.02,.03-.03,.01-.01,.02-.02,.03-.03"/>
    <path id="Shape-2" data-name="Shape" class="cls-38" d="M545.94,6.84V24.27c0,.15,0,.3-.03,.45,0,.07-.02,.14-.03,.21-.01,.05-.02,.1-.03,.16-.01,.04-.02,.09-.03,.13-.01,.04-.02,.08-.03,.11-.01,.03-.02,.07-.03,.1-.01,.03-.02,.06-.03,.09-.01,.03-.02,.06-.03,.08-.01,.03-.02,.05-.03,.08-.01,.02-.02,.05-.03,.07-.01,.02-.02,.05-.03,.07-.01,.02-.02,.04-.03,.07-.01,.02-.02,.04-.03,.06-.01,.02-.02,.04-.03,.06-.01,.02-.02,.04-.03,.06-.01,.02-.02,.04-.03,.05-.01,.02-.02,.04-.03,.05-.01,.02-.02,.03-.03,.05-.01,.02-.02,.03-.03,.05-.01,.02-.02,.03-.03,.05-.01,.02-.02,.03-.03,.05-.01,.01-.02,.03-.03,.04-.01,.01-.02,.03-.03,.04-.01,.01-.02,.03-.03,.04-.01,.01-.02,.03-.03,.04-.01,.01-.02,.03-.03,.04-.01,.01-.02,.03-.03,.04-.01,.01-.02,.02-.03,.04-.01,.01-.02,.02-.03,.04-.01,.01-.02,.02-.03,.03-.01,.01-.02,.02-.03,.03-.01,.01-.02,.02-.03,.03-.01,.01-.02,.02-.03,.03-.01,.01-.02,.02-.03,.03-.01,.01-.02,.02-.03,.03-.01,0-.02,.02-.03,.03-.01,0-.02,.02-.03,.03-.01,0-.02,.02-.03,.03-.01,0-.02,.02-.03,.03-.01,0-.02,.02-.03,.03-.01,0-.02,.02-.03,.03-.01,0-.02,.02-.03,.03-.01,0-.02,.02-.03,.02-.01,0-.02,.02-.03,.02-.01,0-.02,.02-.03,.02-.01,0-.02,.02-.03,.02-.01,0-.02,.01-.03,.02-.01,0-.02,.01-.03,.02-.01,0-.02,.01-.03,.02-.01,0-.02,.01-.03,.02-.01,0-.02,.01-.03,.02-.01,0-.02,.01-.03,.02-.01,0-.02,.01-.03,.02l-.03,.02-.03,.02-.03,.02s-.02,.01-.03,.02c-.01,0-.02,.01-.03,.02-.01,0-.02,.01-.03,.02-.01,0-.02,.01-.03,.02-.01,0-.02,.01-.03,.02-.01,0-.02,0-.03,.01h-.03s-.03,.03-.03,.03h-.03s-.02,.02-.03,.03c-.01,0-.02,0-.03,.01-.01,0-.02,0-.03,.01-.01,0-.02,0-.03,.01h-.03s-.03,.02-.03,.02c-.01,0-.02,0-.03,.01-.01,0-.02,0-.03,.01-.01,0-.02,0-.03,.01h-.03s-.03,.02-.03,.02c-.01,0-.02,0-.03,0-.01,0-.02,0-.03,0-.01,0-.02,0-.03,0-.01,0-.02,0-.03,0h-.03s-.03,.02-.03,.02c-.01,0-.02,0-.03,0-.01,0-.02,0-.03,0h-.03s-.03,.01-.03,.01c-.01,0-.02,0-.03,0-.01,0-.02,0-.03,0-.01,0-.02,0-.03,0h-.03s-.02,0-.03,0c-.01,0-.02,0-.03,0-.01,0-.02,0-.03,0-.01,0-.02,0-.03,0h-.03s-.02,0-.03,0c-.01,0-.02,0-.03,0h-.03s-.03,0-.03,0c-.01,0-.02,0-.03,0-.01,0-.02,0-.03,0-.01,0-.02,0-.03,0h-.03s-.02,0-.03,0h-5.12v-8.05s.05,.04,.07,.06c.01,0,.02,.02,.03,.03,.01,0,.02,.02,.03,.03,.01,0,.02,.02,.03,.03,.01,0,.02,.02,.03,.02,.01,0,.02,.02,.03,.02,.01,0,.02,.02,.03,.02l.03,.02s.02,.01,.03,.02l.03,.02s.02,.01,.03,.02c.01,0,.02,.01,.03,.02l.03,.02s.02,.01,.03,.02c.01,0,.02,.01,.03,.02l.03,.02,.03,.02,.03,.02s.02,.01,.03,.02c.01,0,.02,.01,.03,.02l.03,.02,.03,.02,.03,.02s.02,.01,.03,.02l.03,.02,.03,.02h.03s.03,.03,.03,.03h.03s.03,.03,.03,.03h.03s.03,.03,.03,.03h.03s.03,.03,.03,.03c.01,0,.02,0,.03,.01h.03s.02,.02,.03,.02c.01,0,.02,0,.03,.01h.03s.03,.02,.03,.02c.01,0,.02,0,.03,.01,.01,0,.02,0,.03,.01h.03s.03,.02,.03,.02h.03s.03,.02,.03,.02h.03s.03,.02,.03,.02h.03s.03,.02,.03,.02h.03s.03,.02,.03,.02h.03s.03,.02,.03,.02h.03s.03,.02,.03,.02h.03s.03,.02,.03,.02h.03s.03,.01,.03,.01h.03s.03,.01,.03,.01h.03s.03,.01,.03,.01h.03s.03,.01,.03,.01h.03s.03,.01,.03,.01h.03s.03,.01,.03,.01h.03s.03,.01,.03,.01h.03s.03,.01,.03,.01h.03s.03,.01,.03,.01h.03s.03,0,.03,0h.03s.03,0,.03,0h.03s.03,0,.03,0h.03s.03,0,.03,0h.03s.03,0,.03,0h.03s.03,0,.03,0h.03s.03,0,.03,0h.03s.03,0,.03,0h.03s.03,0,.03,0h.03s.03,0,.03,0h.03s.03,0,.03,0h.03s.03,0,.03,0h.03s.03,0,.03,0h.03s.03,0,.03,0h.03s.03,0,.03,0h.03s.03,0,.03,0h.03s.03,0,.03,0h.03s.03,0,.03,0h.03s.03,0,.03,0h.03s.03,0,.03,0h.03s.03,0,.03,0h.03s.03,0,.03,0h.03s.03,0,.03,0h.03s.03,0,.03,0h.03s.03,0,.03,0h.03s.03,0,.03,0h.03s.03,0,.03,0h.03s.03,0,.03,0h.03s.03,0,.03,0h.03s.03,0,.03,0h.03s.03,0,.03,0h.03s.03,0,.03,0h.03s.03,0,.03,0h.03s.03,0,.03,0h.02s.02,0,.02,0h.03s.03,0,.03,0h.03s.03,0,.03,0h.03s.03,0,.03,0h.03s.03,0,.03,0h.03s.03,0,.03,0h.03s.03,0,.03,0h.03s.03,0,.03,0h.03s.03,0,.03,0h.03s.03,0,.03,0h.03s.03,0,.03,0h.03s.03,0,.03,0h.03s.03,0,.03,0h.03s.03,0,.03,0h.03s.03,0,.03,0h.03s.03,0,.03,0h.03s.03,0,.03,0h.03s.03,0,.03,0h.03s.03,0,.03,0h.03s.03-.01,.03-.01h.03s.03-.01,.03-.01h.03s.03-.01,.03-.01h.03s.03-.01,.03-.01h.03s.03-.01,.03-.01h.03s.03-.01,.03-.01h.03s.03-.01,.03-.01h.03s.03-.01,.03-.01h.03s.03-.01,.03-.01h.03s.03-.01,.03-.01h.03s.03-.01,.03-.01h.03s.03-.01,.03-.01h.03s.03-.01,.03-.01h.03s.03-.01,.03-.01h.03s.03-.01,.03-.01h.03s.03-.01,.03-.01h.03s.03-.01,.03-.01h.03s.03-.01,.03-.01h.03s.03-.01,.03-.01h.03s.03-.02,.03-.02h.03s.03-.02,.03-.02h.03s.03-.02,.03-.02h.03v-1.48l-.03,.02-.03,.02-.03,.02-.03,.02-.03,.02-.03,.02-.03,.02-.03,.02-.03,.02-.03,.02-.03,.02h-.03s-.03,.03-.03,.03h-.03s-.03,.03-.03,.03h-.03s-.03,.03-.03,.03h-.03s-.03,.03-.03,.03h-.03s-.03,.03-.03,.03h-.03s-.03,.03-.03,.03h-.03s-.03,.03-.03,.03h-.03s-.03,.02-.03,.02h-.03s-.03,.02-.03,.02h-.03s-.03,.02-.03,.02h-.03s-.03,.02-.03,.02h-.03s-.03,.02-.03,.02h-.03s-.03,.02-.03,.02h-.03s-.03,.02-.03,.02h-.03s-.03,.02-.03,.02h-.03s-.03,.02-.03,.02h-.03s-.03,.02-.03,.02h-.03s-.03,.02-.03,.02h-.03s-.03,.02-.03,.02h-.03s-.03,.02-.03,.02h-.03s-.03,.01-.03,.01h-.03s-.03,.01-.03,.01h-.03s-.03,.01-.03,.01h-.03s-.03,.01-.03,.01h-.03s-.03,.01-.03,.01h-.03s-.03,.01-.03,.01h-.03s-.03,.01-.03,.01h-.03s-.03,0-.03,0h-.03s-.03,0-.03,0h-.03s-.03,0-.03,0h-.03s-.03,0-.03,0h-.03s-.03,0-.03,0h-.03s-.03,0-.03,0h-.03s-.02,0-.02,0h-.01s-.03,0-.03,0h-.03s-.03,0-.03,0h-.03s-.03,0-.03,0h-.03s-.03,0-.03,0h-.03s-.03,0-.03,0h-.03s-.02,0-.03,0h-.03s-.03,0-.03,0h-.03s-.03,0-.03,0c-.01,0-.02,0-.03,0-.01,0-.02,0-.03,0h-.03s-.03,0-.03,0h-.03s-.03,0-.03,0c-.01,0-.02,0-.03,0-.01,0-.02,0-.03,0h-.03s-.03,0-.03,0h-.03s-.03,0-.03,0h-.03s-.02,0-.03,0c-.01,0-.02,0-.03,0s-.02,0-.03,0c-.01,0-.02,0-.03,0-.01,0-.02,0-.03,0-.01,0-.02,0-.03,0s-.02,0-.03,0c-.01,0-.02,0-.03,0h-.03s-.02-.01-.03-.02c-.01,0-.02,0-.03,0-.01,0-.02,0-.03,0-.01,0-.02,0-.03,0-.01,0-.02,0-.03-.01-.01,0-.02,0-.03-.01-.01,0-.02,0-.03-.01-.01,0-.02,0-.03-.01-.01,0-.02,0-.03-.01-.01,0-.02,0-.03-.01-.01,0-.02,0-.03-.01-.01,0-.02,0-.03-.01-.01,0-.02,0-.03-.01-.01,0-.02,0-.03-.01-.01,0-.02-.01-.03-.02-.01,0-.02-.01-.03-.02-.01,0-.02-.01-.03-.02-.01,0-.02-.01-.03-.02-.01,0-.02-.01-.03-.02-.01,0-.02-.01-.03-.02-.01,0-.02-.01-.03-.02-.01,0-.02-.01-.03-.02-.01,0-.02-.01-.03-.02-.01,0-.02-.01-.03-.02-.01,0-.02-.02-.03-.02-.01,0-.02-.02-.03-.02-.01,0-.02-.02-.03-.02-.01,0-.02-.02-.03-.03-.01,0-.02-.02-.03-.03-.01,0-.02-.02-.03-.03-.01,0-.02-.02-.03-.03-.01-.01-.02-.02-.03-.03-.01-.01-.02-.02-.03-.03-.01-.01-.02-.02-.03-.03-.01-.01-.02-.02-.03-.04-.01-.01-.02-.02-.03-.04-.01-.01-.02-.03-.03-.04-.01-.01-.02-.03-.03-.04-.01-.01-.02-.03-.03-.04-.01-.02-.02-.03-.03-.05-.01-.02-.02-.03-.03-.05-.01-.02-.02-.03-.03-.05-.01-.02-.02-.04-.03-.06-.01-.02-.02-.04-.03-.06-.01-.02-.02-.04-.03-.07-.01-.02-.02-.05-.03-.07-.01-.03-.02-.05-.03-.08-.01-.03-.02-.06-.03-.09-.01-.03-.02-.07-.03-.1-.01-.04-.02-.08-.03-.12-.01-.05-.02-.1-.03-.16-.01-.08-.03-.16-.03-.25,0-.1-.01-.2-.01-.3s0-.2,.01-.3c0-.08,.02-.17,.03-.25,0-.05,.02-.11,.03-.16,.01-.04,.02-.08,.03-.12,.01-.03,.02-.07,.03-.1,.01-.03,.02-.06,.03-.09,.01-.03,.02-.05,.03-.08,.01-.02,.02-.05,.03-.07,.01-.02,.02-.04,.03-.07,.01-.02,.02-.04,.03-.06,.01-.02,.02-.04,.03-.06,.01-.02,.02-.04,.03-.05,.01-.02,.02-.03,.03-.05,.01-.02,.02-.03,.03-.05,.01-.01,.02-.03,.03-.04,.01-.01,.02-.03,.03-.04,.01-.01,.02-.03,.03-.04,.01-.01,.02-.02,.03-.04,.01-.01,.02-.02,.03-.04,.01-.01,.02-.02,.03-.03,.01-.01,.02-.02,.03-.03,.01-.01,.02-.02,.03-.03,.01,0,.02-.02,.03-.03,.01,0,.02-.02,.03-.03,.01,0,.02-.02,.03-.03,.01,0,.02-.02,.03-.03,.01,0,.02-.02,.03-.02,.01,0,.02-.02,.03-.02,.01,0,.02-.02,.03-.02,.01,0,.02-.01,.03-.02,.01,0,.02-.01,.03-.02,.01,0,.02-.01,.03-.02,.01,0,.02-.01,.03-.02,.01,0,.02-.01,.03-.02,.01,0,.02-.01,.03-.02,.01,0,.02-.01,.03-.02,.01,0,.02-.01,.03-.02,.01,0,.02-.01,.03-.02,.01,0,.02-.01,.03-.02,.01,0,.02,0,.03-.01,.01,0,.02,0,.03-.01,.01,0,.02,0,.03-.01,.01,0,.02,0,.03-.01,.01,0,.02,0,.03-.01,.01,0,.02,0,.03-.01,.01,0,.02,0,.03-.01,.01,0,.02,0,.03-.01,.01,0,.02,0,.03-.01,.01,0,.02,0,.03-.01h.03s.02-.02,.03-.02c.01,0,.02,0,.03,0,.01,0,.02,0,.03,0h.03s.02-.01,.03-.02c.01,0,.02,0,.03,0s.02,0,.03,0c.01,0,.02,0,.03,0,.01,0,.02,0,.03,0,.01,0,.02,0,.03,0,.01,0,.02,0,.03,0h.03s.03,0,.03,0h.03s.03,0,.03,0h.03s.03,0,.03,0c.01,0,.02,0,.03,0,.01,0,.02,0,.03,0h.03s.03,0,.03,0h.03s.03,0,.03,0c.01,0,.02,0,.03,0s.02,0,.03,0h.03s.03,0,.03,0h.03s.03,0,.03,0c.01,0,.02,0,.03,0h.03s.03,0,.03,0h.03s.03,0,.03,0h.03s.03,0,.03,0h.03s.03,0,.03,0h.03s.03,0,.03,0h.01s.02,0,.02,0h.03s.03,0,.03,0h.03s.03,0,.03,0h.03s.03,0,.03,0h.03s.03,0,.03,0h.03s.03,0,.03,0h.03s.03,0,.03,0h.03s.03,0,.03,0h.03s.03,.01,.03,.01h.03s.03,.01,.03,.01h.03s.03,.01,.03,.01h.03s.03,.01,.03,.01h.03s.03,.01,.03,.01h.03s.03,.01,.03,.01h.03s.03,.02,.03,.02h.03s.03,.02,.03,.02h.03s.03,.02,.03,.02h.03s.03,.02,.03,.02h.03s.03,.02,.03,.02h.03s.03,.02,.03,.02h.03s.03,.02,.03,.02h.03s.03,.02,.03,.02h.03s.03,.02,.03,.02h.03s.03,.02,.03,.02h.03s.03,.02,.03,.02h.03s.03,.02,.03,.02h.03s.03,.02,.03,.02h.03s.03,.03,.03,.03h.03s.03,.03,.03,.03h.03s.03,.03,.03,.03h.03s.03,.03,.03,.03h.03s.03,.03,.03,.03h.03s.03,.03,.03,.03h.03s.03,.03,.03,.03l.03,.02,.03,.02,.03,.02,.03,.02,.03,.02,.03,.02,.03,.02,.03,.02,.03,.02,.03,.02,.03,.02,.03,.02v-1.48h-.03s-.03-.02-.03-.02h-.03s-.03-.02-.03-.02h-.03s-.03-.02-.03-.02h-.03s-.03-.02-.03-.02h-.03s-.03-.01-.03-.01h-.03s-.03-.01-.03-.01h-.03s-.03-.01-.03-.01h-.03s-.03-.01-.03-.01h-.03s-.03-.01-.03-.01h-.03s-.03-.01-.03-.01h-.03s-.03-.01-.03-.01h-.03s-.03-.01-.03-.01h-.03s-.03-.01-.03-.01h-.03s-.03-.01-.03-.01h-.03s-.03-.01-.03-.01h-.03s-.03-.01-.03-.01h-.03s-.03-.01-.03-.01h-.03s-.03-.01-.03-.01h-.03s-.03-.01-.03-.01h-.03s-.03-.01-.03-.01h-.03s-.03-.01-.03-.01h-.03s-.03-.01-.03-.01h-.03s-.03,0-.03,0h-.03s-.03,0-.03,0h-.03s-.03,0-.03,0h-.03s-.03,0-.03,0h-.03s-.03,0-.03,0h-.03s-.03,0-.03,0h-.03s-.03,0-.03,0h-.03s-.03,0-.03,0h-.03s-.03,0-.03,0h-.03s-.03,0-.03,0h-.03s-.03,0-.03,0h-.03s-.03,0-.03,0h-.03s-.03,0-.03,0h-.03s-.03,0-.03,0h-.03s-.03,0-.03,0h-.03s-.03,0-.03,0h-.03s-.03,0-.03,0h-.03s-.03,0-.03,0h-.03s-.02,0-.02,0h-.02s-.03,0-.03,0h-.03s-.03,0-.03,0h-.03s-.03,0-.03,0h-.03s-.03,0-.03,0h-.03s-.03,0-.03,0h-.03s-.03,0-.03,0h-.03s-.03,0-.03,0h-.03s-.03,0-.03,0h-.03s-.03,0-.03,0h-.03s-.03,0-.03,0h-.03s-.03,0-.03,0h-.03s-.03,0-.03,0h-.03s-.03,0-.03,0h-.03s-.03,0-.03,0h-.03s-.03,0-.03,0h-.03s-.03,0-.03,0h-.03s-.03,0-.03,0h-.03s-.03,0-.03,0h-.03s-.03,0-.03,0h-.03s-.03,0-.03,0h-.03s-.03,0-.03,0h-.03s-.03,0-.03,0h-.03s-.03,0-.03,0h-.03s-.03,0-.03,0h-.03s-.03,0-.03,0h-.03s-.03,0-.03,0h-.03s-.03,0-.03,0h-.03s-.03,0-.03,0h-.03s-.03,0-.03,0h-.03s-.03,0-.03,0h-.03s-.03,0-.03,0h-.03s-.03,0-.03,0h-.03s-.03,0-.03,0h-.03s-.03,0-.03,0h-.03s-.03,0-.03,0h-.03s-.03,.01-.03,.01h-.03s-.03,.01-.03,.01h-.03s-.03,.01-.03,.01h-.03s-.03,.01-.03,.01h-.03s-.03,.01-.03,.01h-.03s-.03,.01-.03,.01h-.03s-.03,.01-.03,.01h-.03s-.03,.01-.03,.01h-.03s-.03,.02-.03,.02h-.03s-.03,.02-.03,.02h-.03s-.03,.02-.03,.02h-.03s-.03,.02-.03,.02h-.03s-.03,.02-.03,.02h-.03s-.03,.02-.03,.02h-.03s-.03,.02-.03,.02h-.03s-.03,.02-.03,.02h-.03s-.02,.02-.03,.02h-.03s-.02,.02-.03,.02h-.03s-.03,.02-.03,.02c-.01,0-.02,0-.03,.01-.01,0-.02,0-.03,.01h-.03s-.02,.02-.03,.03h-.03s-.03,.03-.03,.03h-.03s-.03,.03-.03,.03h-.03s-.03,.03-.03,.03h-.03s-.03,.03-.03,.03l-.03,.02s-.02,.01-.03,.02l-.03,.02-.03,.02-.03,.02s-.02,.01-.03,.02c-.01,0-.02,.01-.03,.02l-.03,.02-.03,.02s-.02,.01-.03,.02c-.01,0-.02,.01-.03,.02-.01,0-.02,.01-.03,.02-.01,0-.02,.01-.03,.02-.01,0-.02,.01-.03,.02-.01,0-.02,.01-.03,.02l-.03,.02s-.02,.01-.03,.02l-.03,.02s-.02,.02-.03,.02c-.01,0-.02,.02-.03,.02-.01,0-.02,.02-.03,.02-.01,0-.02,.02-.03,.03-.01,0-.02,.02-.03,.03-.01,0-.02,.02-.03,.03h0s-.05,.04-.07,.06v-4.56c0-.24,.02-.48,.07-.71,.01-.05,.02-.1,.03-.15,.01-.04,.02-.08,.03-.12,.01-.04,.02-.07,.03-.11,.01-.03,.02-.07,.03-.1,.01-.03,.02-.06,.03-.09,.01-.03,.02-.06,.03-.08,.01-.03,.02-.05,.03-.08,.01-.02,.02-.05,.03-.07,.01-.02,.02-.05,.03-.07,.01-.02,.02-.04,.03-.06,.01-.02,.02-.04,.03-.06,.01-.02,.02-.04,.03-.06,.01-.02,.02-.04,.03-.06,.01-.02,.02-.04,.03-.05,.01-.02,.02-.03,.03-.05,.01-.02,.02-.03,.03-.05,.01-.02,.02-.03,.03-.05,.01-.02,.02-.03,.03-.05,.01-.02,.02-.03,.03-.04,.01-.01,.02-.03,.03-.04,.01-.01,.02-.03,.03-.04,.01-.01,.02-.03,.03-.04,.01-.01,.02-.03,.03-.04,.01-.01,.02-.03,.03-.04,.01-.01,.02-.03,.03-.04,.01-.01,.02-.02,.03-.04,.01-.01,.02-.02,.03-.04,.01-.01,.02-.02,.03-.03,.01-.01,.02-.02,.03-.03"/>
  </g>
  <g>
    <polygon class="cls-16" points="602.73 23.04 593.27 23.04 593.27 6.03 602.73 6.03 602.73 23.04"/>
    <path class="cls-20" d="M593.87,14.54c0-3.45,1.62-6.52,4.13-8.5-1.84-1.45-4.16-2.31-6.68-2.31-5.97,0-10.82,4.84-10.82,10.82s4.84,10.82,10.82,10.82c2.52,0,4.84-.86,6.68-2.31-2.52-1.98-4.13-5.05-4.13-8.5"/>
    <path class="cls-17" d="M615.5,14.54c0,5.97-4.84,10.82-10.82,10.82-2.52,0-4.84-.86-6.69-2.31,2.52-1.98,4.13-5.05,4.13-8.5s-1.62-6.52-4.13-8.5c1.84-1.45,4.16-2.31,6.69-2.31,5.97,0,10.82,4.84,10.82,10.82"/>
    <path class="cls-25" d="M605.93,27.85c.13,0,.31,.02,.44,.08l-.19,.59c-.13-.05-.26-.07-.39-.07-.41,0-.61,.26-.61,.74v1.61h-.63v-2.87h.62v.35c.16-.25,.4-.42,.76-.42h0Zm-2.31,.64h-1.02v1.3c0,.29,.1,.48,.41,.48,.16,0,.37-.05,.55-.16l.18,.53c-.2,.14-.51,.22-.78,.22-.74,0-1-.4-1-1.06v-1.31h-.58v-.57h.58v-.87h.63v.87h1.02v.57h0Zm-8,.61c.07-.41,.32-.7,.76-.7,.4,0,.66,.25,.73,.7h-1.49Zm2.14,.25c0-.9-.56-1.51-1.36-1.51s-1.43,.61-1.43,1.51,.61,1.51,1.47,1.51c.43,0,.83-.11,1.18-.4l-.31-.46c-.24,.19-.55,.3-.83,.3-.4,0-.77-.19-.86-.7h2.13c0-.08,.01-.16,.01-.24h0Zm2.75-.7c-.17-.11-.53-.25-.89-.25-.34,0-.55,.13-.55,.34,0,.19,.22,.25,.49,.28l.29,.04c.63,.09,1,.35,1,.86,0,.55-.48,.94-1.31,.94-.47,0-.9-.12-1.24-.37l.29-.49c.21,.16,.52,.3,.96,.3s.65-.13,.65-.35c0-.16-.16-.25-.5-.3l-.29-.04c-.64-.09-.99-.38-.99-.85,0-.57,.47-.92,1.2-.92,.46,0,.87,.1,1.17,.3l-.27,.5h0Zm7.71-.21c-.13,0-.25,.02-.36,.07-.11,.05-.21,.11-.29,.19s-.14,.18-.19,.29c-.05,.11-.07,.24-.07,.37s.02,.26,.07,.37c.05,.11,.11,.21,.19,.29s.18,.14,.29,.19c.11,.05,.23,.07,.36,.07s.25-.02,.36-.07c.11-.05,.21-.11,.29-.19,.08-.08,.15-.18,.19-.29,.05-.11,.07-.24,.07-.37s-.02-.26-.07-.37c-.05-.11-.11-.21-.19-.29-.08-.08-.18-.14-.29-.19-.11-.04-.23-.07-.36-.07h0Zm0-.59c.22,0,.43,.04,.62,.12,.19,.08,.35,.18,.49,.32,.14,.14,.25,.3,.33,.48,.08,.18,.12,.39,.12,.6s-.04,.42-.12,.6c-.08,.18-.19,.35-.33,.48-.14,.14-.3,.24-.49,.32-.19,.08-.4,.12-.62,.12s-.43-.04-.62-.12c-.19-.08-.35-.18-.49-.32-.14-.14-.25-.3-.32-.48-.08-.18-.12-.39-.12-.6s.04-.42,.12-.6c.08-.18,.19-.34,.32-.48,.14-.14,.3-.24,.49-.32,.19-.08,.4-.12,.62-.12h0Zm-16.24,1.51c0-.5,.33-.92,.87-.92s.87,.4,.87,.92-.35,.92-.87,.92-.87-.41-.87-.92h0Zm2.33,0v-1.44h-.62v.35c-.2-.26-.5-.42-.91-.42-.81,0-1.44,.63-1.44,1.51s.63,1.51,1.44,1.51c.41,0,.71-.16,.91-.42v.35h.62v-1.44Zm-3.52,1.44v-1.8c0-.68-.43-1.14-1.13-1.14-.37,0-.75,.11-1.01,.51-.2-.32-.51-.51-.95-.51-.31,0-.61,.09-.84,.43v-.35h-.62v2.87h.63v-1.59c0-.5,.28-.76,.7-.76s.63,.27,.63,.76v1.6h.63v-1.59c0-.5,.29-.76,.7-.76s.63,.27,.63,.76v1.6h.63Z"/>
  </g>
  <g>
    <path class="cls-33" d="M644.09,20.01c5.2-2.23,12.5-4.25,22.17-2.23l.1-2.45c-10.2-1.11-17.52,2.13-22.27,4.44v.24h0Z"/>
    <polygon class="cls-41" points="634.7 21.82 639.6 21.82 639.6 23.29 636.56 23.29 636.54 24.66 639.57 24.66 639.57 26.07 636.53 26.07 636.54 27.44 639.54 27.44 639.54 28.91 634.7 28.91 634.7 21.82 634.7 21.82"/>
    <polygon class="cls-41" points="640.83 21.22 642.62 21.22 642.62 28.91 640.84 28.91 640.83 21.22 640.83 21.22"/>
    <path class="cls-41" d="M648.76,28.33c-.61,.51-1.53,.77-2.35,.77-1.88,0-2.73-1.33-2.73-2.66,0-1.56,1.17-2.88,2.78-2.88,1.97,0,2.58,1.39,2.58,3.17h-3.58c0,.4,.26,1.08,1.24,1.08,.63,0,.97-.18,1.46-.51l.59,1.04h0Zm-1.31-2.65c0-.53-.26-1.02-.85-1.02-.56,0-.99,.5-1.11,1.02h1.96Z"/>
    <path class="cls-41" d="M654.46,28.57c-.49,.31-1.3,.53-1.9,.53-1.64,0-2.82-.94-2.82-2.65s1.17-2.89,2.93-2.89c.62,0,1.35,.19,1.75,.45l-.57,1.17c-.27-.11-.55-.21-.84-.21-.89,0-1.49,.53-1.49,1.38,0,.74,.57,1.32,1.33,1.32,.34,0,.68-.15,.96-.3l.64,1.18h0Z"/>
    <path class="cls-41" d="M655.12,23.75h.81v-1.75s1.72,0,1.72,0l-.04,1.75h1.47l-.03,1.29h-1.47c0,.72-.05,1.48-.05,1.92s.11,.67,.51,.67c.25,0,.45-.12,.66-.25l.39,1.21c-.52,.32-1.16,.51-1.76,.51-1.45,0-1.52-.91-1.52-2.1,0-.64,.05-1.27,.05-1.96h-.77l.04-1.29h0Z"/>
    <path class="cls-41" d="M659.98,23.75h1.78v.73h.02c.27-.44,.62-.87,1.31-.87,.19,0,.4,.02,.58,.06l-.24,1.76c-.17-.05-.37-.1-.64-.1-.59,0-1.06,.5-1.06,.61l-.03,2.98h-1.78l.04-5.17h0Z"/>
    <path class="cls-41" d="M666.92,23.56c1.91,0,2.89,1.21,2.89,2.77s-.98,2.77-2.89,2.77-2.89-1.21-2.89-2.77,.98-2.77,2.89-2.77h0Zm0,4.18c.85,0,1.11-.74,1.11-1.42s-.26-1.42-1.11-1.42-1.11,.74-1.11,1.42,.26,1.42,1.11,1.42h0Z"/>
    <path class="cls-41" d="M670.78,23.75h1.78v.56c.41-.4,1.04-.75,1.67-.75,1.1,0,1.69,.61,1.69,2.02,0,1.06-.01,2.19-.02,3.33h-1.78c.01-.99,.02-2,.02-3.07,0-.42-.11-.75-.65-.75-.29,0-.7,.25-.93,.47v3.34h-1.83l.04-5.17h0Z"/>
    <polygon class="cls-41" points="649.38 13.1 651.63 5.66 653.65 5.66 651.39 13.1 649.38 13.1 649.38 13.1"/>
    <path class="cls-41" d="M648.48,5.67l-1.81,3.15c-.46,.83-.73,1.24-.86,1.76h-.03c.03-.66-.06-1.47-.07-1.93l-.2-2.98h-3.39l-.04,.2c.87,0,1.39,.44,1.53,1.33l.66,5.9h2.08l4.21-7.43h-2.1Z"/>
    <path class="cls-41" d="M664.12,13.1l-.06-1.11h-2.51s-.51,1.11-.51,1.11h-2.18l3.96-7.42h2.68l.67,7.42h-2.05Zm-.23-4.38c-.02-.55-.04-1.3,0-1.75h-.03c-.12,.37-.65,1.48-.88,2.02l-.75,1.63h1.76s-.1-1.9-.1-1.9h0Z"/>
    <path class="cls-41" d="M655.76,13.31c-1.42,0-2.36-.45-3.04-.85l.96-1.46c.6,.34,1.08,.73,2.17,.73,.35,0,.69-.09,.88-.42,.28-.48-.06-.74-.85-1.19l-.39-.25c-1.16-.8-1.67-1.55-1.12-2.87,.35-.84,1.28-1.48,2.8-1.48,1.05,0,2.04,.46,2.62,.9l-1.1,1.29c-.56-.45-1.03-.68-1.56-.68-.42,0-.75,.16-.86,.38-.21,.42,.07,.7,.68,1.08l.46,.29c1.41,.89,1.75,1.83,1.4,2.7-.61,1.51-1.8,1.84-3.05,1.84h0Z"/>
  </g>
  <g>
    <path class="cls-23" d="M404.48,13.35h-2.24v7.84h2.24c1.18,0,2.04-.29,2.79-.9,.9-.74,1.43-1.85,1.43-3.01-.01-2.32-1.74-3.93-4.22-3.93Zm1.8,5.9c-.48,.43-1.1,.63-2.09,.63h-.41v-5.19h.41c.98,0,1.58,.17,2.09,.63,.53,.47,.84,1.2,.84,1.95,0,.76-.31,1.51-.84,1.98Z"/>
    <rect class="cls-23" x="409.39" y="13.35" width="1.52" height="7.84"/>
    <path class="cls-23" d="M414.65,16.36c-.91-.34-1.18-.57-1.18-.98,0-.5,.48-.87,1.14-.87,.46,0,.84,.19,1.23,.64l.8-1.04c-.66-.57-1.44-.87-2.31-.87-1.38,0-2.45,.97-2.45,2.25,0,1.08,.5,1.64,1.92,2.15,.6,.21,.9,.36,1.05,.44,.3,.2,.46,.48,.46,.81,0,.64-.5,1.11-1.18,1.11-.73,0-1.31-.37-1.67-1.04l-.98,.95c.7,1.04,1.55,1.5,2.71,1.5,1.58,0,2.71-1.05,2.71-2.58,.03-1.27-.5-1.84-2.24-2.48Z"/>
    <path class="cls-23" d="M417.39,17.29c0,2.31,1.81,4.09,4.13,4.09,.66,0,1.23-.13,1.91-.46v-1.8c-.61,.61-1.15,.86-1.84,.86-1.54,0-2.64-1.11-2.64-2.71,0-1.51,1.13-2.69,2.57-2.69,.73,0,1.28,.26,1.91,.88v-1.8c-.67-.34-1.23-.48-1.88-.48-2.29,0-4.16,1.82-4.16,4.1Z"/>
    <polygon class="cls-23" points="435.57 18.63 433.48 13.35 431.81 13.35 435.13 21.39 435.96 21.39 439.33 13.35 437.68 13.35 435.57 18.63"/>
    <polygon class="cls-23" points="440.03 21.19 444.36 21.19 444.36 19.87 441.56 19.87 441.56 17.76 444.26 17.76 444.26 16.43 441.56 16.43 441.56 14.69 444.36 14.69 444.36 13.35 440.03 13.35 440.03 21.19"/>
    <path class="cls-23" d="M450.42,15.68c0-1.47-1.01-2.31-2.78-2.31h-2.27v7.84h1.52v-3.15h.2l2.11,3.15h1.88l-2.47-3.31c1.15-.24,1.8-1.03,1.8-2.22Zm-3.08,1.3h-.44v-2.38h.47c.95,0,1.47,.4,1.47,1.17s-.51,1.21-1.5,1.21Z"/>
    <circle class="cls-2" cx="428.12" cy="17.3" r="4.18" transform="translate(342.47 437.12) rotate(-80.78)"/>
    <circle class="cls-1" cx="428.12" cy="17.3" r="4.18" transform="translate(342.47 437.12) rotate(-80.78)"/>
    <g>
      <path class="cls-23" d="M451.39,13.65c0-.14-.1-.21-.26-.21h-.23v.68h.17v-.27l.2,.27h.2l-.23-.29c.09-.01,.14-.09,.14-.19Zm-.29,.1h-.03v-.19h.03c.09,0,.13,.03,.13,.09,0,.07-.04,.1-.13,.1Z"/>
      <path class="cls-23" d="M451.16,13.18c-.33,0-.6,.27-.6,.6s.27,.6,.6,.6,.6-.27,.6-.6-.27-.6-.6-.6Zm0,1.1c-.26,0-.48-.21-.48-.5s.21-.5,.48-.5c.26,0,.47,.23,.47,.5,0,.27-.21,.5-.47,.5Z"/>
    </g>
  </g>
  <g id="g18">
    <path id="path6" class="cls-28" d="M711.5,13.26c-2.22,0-3.07,.54-3.61,2.13-.02,.06,.02,.12,.08,.14l1.6,.45c.06,.02,.11-.02,.12-.08,.06-.23,.3-.78,.87-.78h1.71c.33,0,.61,.23,.61,.51v1.04h-2.69c-1.35,0-2.64,1.09-2.64,2.74,0,1.54,.86,2.72,3.77,2.72,2.61,0,3.56-1.01,3.56-2.4v-3.83c.02-.82-.4-2.66-3.38-2.66h0Zm1.37,6.53c0,.19-.11,.53-.68,.53h-1.9c-.4,0-.78-.42-.78-.92s.25-.92,.86-.92h2.52s-.02,1.12-.02,1.31Z"/>
    <path id="path8" class="cls-28" d="M731.07,22.13c2.22,0,3.07-.54,3.61-2.13,.02-.06-.02-.12-.08-.14l-1.6-.45c-.06-.02-.11,.02-.12,.08-.06,.23-.3,.78-.87,.78h-1.71c-.33,0-.61-.23-.61-.51v-1.04h2.69c1.35,0,2.64-1.09,2.64-2.74,0-1.54-.86-2.72-3.77-2.72-2.61,0-3.56,1.01-3.56,2.4v3.83c-.02,.82,.4,2.66,3.38,2.66h0Zm-1.51-6.47c0-.19,.11-.51,.65-.51h1.91c.51,0,.75,.33,.75,.81s-.09,.89-.82,.89h-2.49v-1.18h0Z"/>
    <path id="path10" class="cls-28" d="M721.31,18.19c1.4,0,2.57-1.98,2.8-2.38,.03-.05,.08-.08,.12-.08h0c.08,0,.14,.06,.14,.14v6.11c0,.09,.08,.16,.16,.16h1.71c.09,0,.16-.08,.16-.16v-7.16c0-.87-.7-1.59-1.59-1.59h0c-.86,0-1.31,.36-1.84,1.01-.51,.65-1.37,2.07-1.68,2.07s-1.17-1.43-1.68-2.07c-.51-.65-.96-1.01-1.84-1.01h0c-.87,0-1.59,.7-1.59,1.59v7.16c0,.09,.08,.16,.16,.16h1.71c.09,0,.16-.08,.16-.16v-6.11c0-.08,.06-.14,.14-.14h0s.09,.03,.12,.08c.25,.42,1.43,2.38,2.83,2.38Z"/>
    <g id="g16">
      <path id="path12" class="cls-32" d="M696.33,23.62h0c.44,0,.84-.17,1.15-.48l6.99-6.99c.28-.28,.45-.67,.45-1.07v-.08c0-.4-.16-.79-.45-1.07l-2.69-2.64c-.2-.2-.47-.31-.75-.31h-9.4c-.28,0-.54,.11-.75,.31l-2.69,2.64c-.3,.28-.45,.67-.45,1.07v.08c0,.4,.16,.79,.45,1.07l6.99,6.99c.3,.31,.72,.48,1.15,.48h0Z"/>
      <path id="path14" class="cls-28" d="M691.52,10.98v.02c.31,0,.61,.11,.82,.31l3.16,2.85c.17,.16,.39,.23,.62,.23h.37c.23,0,.45-.09,.62-.23l3.16-2.85c.23-.2,.53-.31,.82-.31v-.02h-9.58Z"/>
    </g>
  </g>
  <path class="cls-24" d="M755.21,21.95h2.19v-6.38h-2.19v6.38Zm2.95-10.73h-1.47v1.47h1.47v-1.47Zm-8.27,.72h-2.12v1.85h1.96c1.25,0,1.96,.6,1.96,1.74s-.72,1.78-1.96,1.78h-1.96v-3.47h-2.19v8.12h2.19v-2.8h2.08c2.53,0,4-1.36,4-3.7,0-2.19-1.44-3.51-3.97-3.51Zm9.75-2.19h-4.42v4.42h4.42v-4.42Zm-.72,3.66h-2.95v-2.95h2.95v2.95Zm12.84-1.47h-2v1.85h1.89c1.25,0,1.96,.6,1.96,1.74s-.72,1.78-1.96,1.78h-1.89v-3.47h-2.19v8.12h2.19v-2.8h2c2.53,0,4-1.36,4-3.7,0-2.19-1.47-3.51-4-3.51Zm18.4,2.34l-1.89,4.76-1.89-4.76h-2.27l3.02,7.67-1.17,2.91h2.3l4.16-10.58h-2.27Zm-9.82-.04c-1.32,0-2.34,.3-3.48,.87l.68,1.51c.79-.45,1.59-.68,2.3-.68,1.06,0,1.59,.45,1.59,1.28v.15h-2.12c-1.89,0-2.91,.87-2.91,2.3s.98,2.38,2.64,2.38c1.06,0,1.81-.38,2.42-1.02v.83h2.15v-4.99c-.07-1.62-1.25-2.64-3.28-2.64h0Zm1.28,5.14c-.23,.64-.87,1.17-1.78,1.17-.76,0-1.21-.38-1.21-.98s.42-.87,1.25-.87h1.74v.68Zm-18.62,.91c-1.06,0-1.81-.83-1.81-2.08s.76-2.04,1.81-2.04c.76,0,1.32,.3,1.74,.83l1.47-1.06c-.68-1.02-1.85-1.62-3.32-1.62-2.3-.04-3.89,1.55-3.89,3.89s1.59,3.89,3.89,3.89c1.59,0,2.76-.64,3.4-1.7l-1.51-1.02c-.38,.6-.98,.91-1.78,.91Z"/>
  <g>
    <g>
      <path class="cls-22" d="M842.47,6.47c.3-.71,.59-1.42,.9-2.13,.08,.72,.17,1.44,.26,2.16,.61-.23,1.21-.51,1.83-.72-.44,.61-.86,1.23-1.28,1.85,.46,.41,.92,.8,1.37,1.22-.62,.07-1.23,.11-1.84,.16-.02,.74-.07,1.49-.1,2.24-.36-.54-.68-1.09-1.03-1.64-.5,.53-1.02,1.06-1.51,1.6,.19-.75,.38-1.51,.56-2.26-.59-.08-1.19-.18-1.78-.27,.58-.37,1.16-.75,1.73-1.13-.23-.65-.48-1.29-.71-1.93,.53,.29,1.06,.55,1.59,.84h0Z"/>
      <path class="cls-42" d="M836.77,16.2c1.55-1.51,2.96-3.23,4.28-5-.6,2.34-1.76,4.51-3.32,6.17-.37,.33-.71,.73-1.12,1.02-1.35,1.04-2.94,1.71-4.59,1.73l.04-.03c1.29-.86,2.54-1.81,3.69-2.88,.34-.33,.71-.64,1.02-1h0Z"/>
      <path class="cls-22" d="M806.09,13.83c.68-.21,1.39-.3,2.1-.29,.77,0,1.56,.05,2.32,.21-.11,.33-.23,.66-.32,1-1.1-.09-2.24-.18-3.33,.11-.33,.1-.76,.25-.84,.7-.01,.33,.26,.53,.5,.61,.79,.25,1.62,.21,2.37,.61,.34,.18,.64,.52,.7,.95,.1,.68-.07,1.43-.5,1.94-.48,.59-1.19,.85-1.86,1-1.4,.25-2.83,.11-4.19-.27,.07-.36,.16-.71,.23-1.06,1.18,.17,2.38,.38,3.55,.1,.44-.11,.94-.38,1.02-.94,.09-.37-.2-.66-.48-.76-.75-.26-1.54-.2-2.28-.52-.32-.13-.62-.37-.75-.74-.22-.64,0-1.41,.43-1.87,.39-.37,.84-.62,1.32-.77h0Z"/>
      <path class="cls-22" d="M833.47,13.54c.49,0,.97,.02,1.44,0,.6,.91,1.23,1.79,1.89,2.62l-.03,.04c-.32,.36-.68,.67-1.02,1-.82-1.16-1.58-2.39-2.28-3.66h0Z"/>
      <path class="cls-22" d="M825.11,10.66c-.16,.92-.32,1.84-.47,2.77-1.27-.04-2.61-.15-3.8,.46-.99,.47-1.81,1.46-2.08,2.66-.27,.97-.23,2.13,.33,2.96,.55,.78,1.45,1.12,2.32,1.17,.96,.05,2-.12,2.8-.8,.74-.63,1.16-1.65,1.33-2.66,.38-2.22,.75-4.45,1.12-6.69-.51,.04-1.03,.08-1.55,.13Zm-1.2,6.63c-.1,.56-.28,1.15-.66,1.54-.47,.49-1.16,.6-1.77,.52-.43-.05-.88-.28-1.08-.74-.24-.53-.17-1.16-.04-1.71,.17-.79,.6-1.51,1.24-1.88,.86-.51,1.85-.5,2.79-.38-.17,.89-.32,1.78-.48,2.66Z"/>
      <path class="cls-22" d="M832.72,14.1c-.51-.5-1.22-.62-1.87-.64-1.23-.03-2.52,.39-3.43,1.37-.71,.74-1.12,1.81-1.17,2.9-.05,.68,.1,1.39,.49,1.92,.46,.7,1.22,1.08,1.97,1.21,1.14,.22,2.36,0,3.32-.74l.04-.03c-1.11,.13-2.31,.17-3.32-.45-.64-.41-.95-1.27-.88-2.08,1.28,.26,2.63,.32,3.87-.22,.51-.23,1.02-.61,1.28-1.19,.28-.66,.21-1.56-.3-2.06Zm-1.8,2.31c-.91,.35-1.9,.26-2.83,.08,.26-.69,.73-1.31,1.34-1.63,.53-.27,1.14-.38,1.71-.21,.27,.07,.51,.33,.52,.66,.07,.53-.34,.94-.74,1.1Z"/>
      <path class="cls-22" d="M817.93,15.79c-.09-.75-.5-1.42-1.07-1.79-.77-.51-1.71-.59-2.57-.49-1.17,.13-2.31,.75-3.06,1.79-.61,.85-.94,1.96-.84,3.06,.06,.77,.48,1.48,1.06,1.87,.75,.51,1.66,.59,2.51,.51,1.29-.13,2.58-.85,3.32-2.08,.5-.82,.77-1.87,.65-2.86Zm-1.68,.85c-.07,.63-.27,1.24-.61,1.74-.49,.7-1.27,1.14-2.06,1.1-.43,0-.88-.12-1.19-.48-.22-.25-.31-.6-.33-.94-.05-1.45,.79-2.96,2.07-3.3,.56-.15,1.22-.1,1.67,.33,.38,.38,.5,1,.44,1.54Z"/>
      <path class="cls-22" d="M847.99,15.7c-.12-.82-.64-1.52-1.3-1.85-.83-.45-1.77-.47-2.66-.33-1.3,.22-2.54,1.07-3.21,2.38-.41,.83-.63,1.82-.45,2.77,.13,.78,.62,1.43,1.25,1.77,.81,.43,1.75,.48,2.62,.35,1.25-.19,2.47-.96,3.15-2.18,.48-.84,.74-1.9,.59-2.9Zm-3.36,3.62c-.58,.27-1.26,.31-1.85,.04-.41-.17-.69-.63-.73-1.13-.11-1.52,.77-3.14,2.12-3.48,.53-.14,1.15-.1,1.59,.27,.36,.29,.54,.79,.54,1.28,.01,1.25-.62,2.54-1.67,3.02Z"/>
      <path class="cls-22" d="M836.61,18.39c.41-.29,.75-.68,1.12-1.02,.91,1.13,1.83,2.25,2.76,3.36-.64-.01-1.29,.01-1.94,0-.17-.12-.28-.29-.42-.44-.53-.62-1.04-1.24-1.52-1.9h0Z"/>
    </g>
    <g>
      <g>
        <path class="cls-22" d="M823.86,24.7h-.22v1.16c0,.15-.03,.26-.09,.34-.06,.07-.13,.11-.22,.12-.1,0-.18-.03-.24-.1-.05-.07-.08-.18-.08-.33v-2.78c0-.16,.03-.27,.09-.34,.06-.07,.17-.11,.3-.11l1.02-.02c.14,0,.27,0,.37,.02,.1,.01,.19,.04,.27,.08,.1,.04,.18,.1,.26,.19,.08,.08,.13,.18,.17,.29,.04,.11,.06,.23,.06,.35,0,.26-.06,.47-.19,.63-.13,.17-.33,.28-.6,.36,.11,.06,.22,.15,.32,.28,.1,.12,.19,.25,.27,.4,.07,.14,.14,.27,.18,.38,.04,.12,.07,.19,.07,.24,0,.04-.02,.09-.04,.13-.03,.05-.06,.09-.11,.12-.04,.03-.09,.04-.16,.04-.06,0-.12,0-.17-.04-.06-.03-.09-.08-.13-.13-.04-.05-.08-.14-.14-.25l-.25-.46c-.1-.17-.17-.29-.24-.39-.07-.09-.14-.14-.22-.18-.08-.03-.17-.04-.28-.03Zm.36-1.5h-.58v.99l.56-.02c.15,0,.28-.02,.38-.06,.1-.03,.18-.08,.23-.16,.06-.07,.09-.17,.09-.29,0-.1-.02-.18-.06-.25-.05-.07-.11-.13-.18-.17-.07-.03-.22-.04-.44-.04Z"/>
        <path class="cls-22" d="M828.18,23.12l-1.41,.03v.83s1.29-.04,1.29-.04c.1,0,.17,.02,.22,.06,.04,.04,.06,.1,.06,.17,0,.08-.02,.14-.06,.19-.05,.06-.12,.08-.22,.09l-1.31,.05v.97l1.46-.09c.1,0,.17,.02,.22,.06,.05,.04,.07,.1,.07,.19,0,.08-.02,.14-.07,.2-.05,.05-.13,.08-.22,.09l-1.71,.11c-.13,.01-.23-.01-.29-.07-.06-.06-.1-.17-.09-.33l.02-2.58c0-.1,0-.18,.04-.24,.03-.06,.07-.11,.12-.14,.06-.03,.13-.04,.22-.04l1.65-.02c.11,0,.18,.02,.23,.06,.05,.05,.07,.11,.07,.19s-.02,.14-.07,.19c-.05,.05-.12,.07-.23,.08Z"/>
        <path class="cls-22" d="M830.89,23.06l-1.24,.03v.83s1.03-.03,1.03-.03c.09,0,.16,.01,.21,.05,.05,.04,.07,.1,.07,.18,0,.07-.03,.13-.08,.18-.04,.04-.12,.07-.21,.07l-1.04,.05v1.07c-.01,.13-.04,.23-.1,.3-.06,.07-.13,.11-.23,.12-.09,0-.17-.02-.23-.09-.05-.06-.08-.16-.08-.3l.03-2.52c0-.09,.01-.17,.04-.23,.03-.06,.07-.11,.13-.13,.06-.03,.13-.04,.22-.04l1.49-.02c.1,0,.18,.02,.22,.06,.05,.04,.07,.1,.06,.17,0,.08-.02,.14-.07,.18-.05,.05-.13,.07-.22,.07Z"/>
        <path class="cls-22" d="M833.69,23l-1.42,.03v.77s1.29-.05,1.29-.05c.1,0,.17,.02,.22,.05,.05,.04,.07,.09,.07,.17,0,.07-.03,.13-.08,.17-.05,.04-.12,.07-.22,.08l-1.3,.05v.89s1.44-.1,1.44-.1c.11,0,.18,.02,.22,.06,.06,.04,.07,.1,.07,.17,0,.07-.02,.13-.08,.18-.05,.05-.12,.07-.22,.08l-1.7,.11c-.14,.01-.23-.02-.29-.07-.05-.06-.09-.16-.08-.29l.04-2.35c0-.09,.01-.17,.04-.23,.03-.05,.07-.1,.13-.12,.06-.02,.13-.04,.23-.04l1.65-.02c.11,0,.18,.02,.22,.06,.05,.04,.07,.1,.07,.17,0,.07-.02,.13-.08,.17-.05,.05-.12,.07-.22,.07Z"/>
        <path class="cls-22" d="M834.52,25.17l.05-2.34c0-.12,.04-.21,.1-.28,.06-.06,.13-.09,.22-.09s.17,.03,.23,.08c.05,.06,.08,.15,.08,.28l-.05,2.31c0,.12-.04,.21-.1,.28-.06,.06-.14,.1-.23,.11-.09,0-.17-.02-.22-.08-.06-.06-.08-.15-.08-.27Z"/>
        <path class="cls-22" d="M837.22,25.34l-.02,.05c.15,0,.25,.03,.33,.08,.08,.05,.11,.12,.1,.22,0,.08-.03,.14-.09,.21-.06,.06-.13,.11-.24,.15-.11,.04-.24,.07-.39,.08-.07,0-.14,0-.21,0-.07,0-.14-.01-.21-.03-.01,0-.02,0-.03-.02-.01-.02-.02-.03-.02-.05,0-.04,.02-.07,.05-.08,.04-.03,.09-.04,.15-.04,.02,0,.04,0,.05,0h.18c.22-.02,.34-.08,.34-.19,0-.05-.02-.08-.06-.11-.04-.03-.1-.03-.16-.03-.03,0-.06,0-.11,.02-.05,0-.08,.02-.09,.02-.03,0-.05-.01-.07-.03-.01-.02-.03-.05-.02-.08,0-.08,.11-.14,.35-.18-.11,0-.21,0-.31-.02-.11-.02-.2-.04-.28-.07-.08-.03-.17-.08-.24-.13-.1-.08-.2-.18-.27-.29-.08-.12-.14-.25-.17-.41-.04-.14-.06-.31-.06-.49,0-.23,.05-.44,.12-.63,.08-.19,.19-.35,.32-.49,.15-.13,.3-.23,.49-.3,.18-.07,.38-.11,.59-.11,.25,0,.47,.04,.66,.12,.19,.09,.34,.2,.44,.33,.11,.13,.15,.25,.15,.37,0,.06-.03,.12-.08,.18-.05,.05-.11,.07-.18,.07-.06,0-.12,0-.16-.03-.04-.03-.08-.07-.11-.12-.05-.09-.1-.17-.16-.24-.05-.06-.13-.12-.22-.16-.09-.05-.2-.06-.35-.06-.26,0-.46,.1-.62,.29-.16,.18-.23,.44-.25,.78,0,.22,.02,.41,.09,.55,.06,.14,.16,.24,.28,.31,.13,.07,.27,.09,.44,.09,.19-.01,.35-.07,.49-.18,.14-.11,.23-.22,.27-.35,.06-.16,.16-.26,.3-.27,.07,0,.14,.03,.19,.06,.05,.04,.08,.1,.07,.17,0,.07-.02,.14-.06,.24-.04,.09-.1,.18-.18,.27-.07,.09-.16,.17-.26,.25-.2,.15-.46,.23-.78,.25Z"/>
        <path class="cls-22" d="M841.02,24.74l-.13-.32-1.26,.07-.16,.36c-.06,.14-.12,.23-.16,.28-.05,.05-.11,.08-.21,.08-.07,0-.14-.02-.2-.06-.06-.05-.09-.11-.09-.17,0-.03,.01-.08,.03-.12,.02-.04,.04-.1,.08-.17l.84-1.8s.06-.11,.09-.19c.03-.07,.07-.12,.11-.17,.04-.05,.08-.08,.14-.12,.06-.03,.13-.04,.22-.04,.09,0,.16,.01,.22,.04,.06,.03,.1,.06,.14,.11,.03,.05,.06,.09,.08,.14,.02,.05,.05,.12,.09,.2l.75,1.65c.06,.13,.09,.21,.08,.27,0,.06-.03,.11-.09,.17-.06,.05-.14,.08-.23,.08-.05,0-.09,0-.12,0-.03-.02-.06-.03-.08-.06-.02-.02-.05-.06-.07-.12-.03-.04-.05-.09-.07-.13Zm-1.11-2.7c-.06,0-.12,.04-.15,.13-.03,.07-.07,.11-.12,.11-.03,0-.06-.01-.08-.04-.02-.03-.04-.06-.04-.1,0-.06,.02-.12,.06-.17,.03-.06,.08-.11,.13-.14,.06-.04,.12-.05,.18-.05s.12,0,.17,.02c.05,0,.13,.04,.22,.07,.09,.04,.15,.06,.18,.07,.03,.01,.07,.02,.11,.02s.08,0,.1-.03c.02-.02,.05-.04,.06-.09,.02-.07,.07-.11,.12-.11,.03,0,.06,0,.08,.03,.02,.03,.04,.06,.04,.1,0,.07-.04,.14-.1,.23-.06,.08-.16,.13-.28,.13-.05,0-.1,0-.15-.02-.05,0-.11-.03-.21-.07-.09-.03-.15-.06-.2-.07-.04-.02-.09-.02-.13-.02Zm-.1,2.03l.93-.05-.43-1.08-.5,1.12Z"/>
        <path class="cls-22" d="M843.62,22.34c.32,0,.6,.04,.82,.14,.23,.1,.4,.24,.5,.42,.11,.18,.16,.4,.15,.65-.01,.19-.05,.36-.12,.52-.07,.15-.17,.29-.31,.41-.14,.12-.3,.22-.49,.29-.2,.07-.41,.12-.66,.14-.24,.02-.45,0-.64-.06-.19-.05-.35-.13-.48-.24-.11-.11-.21-.25-.27-.4-.06-.17-.09-.34-.08-.53,.01-.2,.05-.38,.13-.54,.07-.17,.18-.31,.31-.43,.13-.12,.3-.2,.49-.27,.19-.06,.4-.09,.64-.09Zm.83,1.24c0-.18-.02-.34-.09-.46-.06-.12-.17-.22-.3-.28-.13-.06-.29-.1-.47-.1-.12,0-.24,.03-.35,.06-.11,.05-.2,.1-.29,.18-.07,.07-.14,.17-.19,.28-.05,.12-.08,.25-.08,.39,0,.14,.01,.27,.05,.38,.04,.12,.1,.21,.18,.29,.07,.07,.17,.12,.27,.15,.11,.03,.21,.04,.34,.04,.16-.01,.31-.05,.45-.12,.14-.07,.25-.17,.33-.31,.09-.15,.13-.3,.14-.5Z"/>
      </g>
      <g>
        <path class="cls-8" d="M835.62,28.39l-.56-.04-.02,.7c0,.1-.04,.17-.1,.22-.06,.05-.13,.06-.21,.06-.1,0-.17-.04-.23-.1-.06-.05-.07-.13-.07-.22l.07-1.86c0-.1,.04-.18,.1-.23,.06-.04,.16-.07,.29-.07h.78c.23-.02,.4,0,.52,.03,.12,.03,.23,.08,.32,.14,.09,.07,.16,.15,.19,.25,.05,.1,.07,.22,.06,.34,0,.27-.1,.47-.29,.61-.19,.12-.48,.18-.85,.16Zm-.12-1.17h-.4l-.02,.76h.41c.14,.02,.26,.01,.36,0,.1-.02,.17-.06,.22-.12,.05-.06,.08-.13,.09-.23,0-.11-.04-.2-.11-.28-.09-.08-.26-.11-.54-.12Z"/>
        <path class="cls-8" d="M838.79,29.36l-.13-.38-1.22-.08-.16,.34c-.05,.13-.1,.22-.15,.26-.04,.04-.1,.06-.2,.06-.07-.01-.14-.04-.2-.1-.06-.05-.09-.11-.08-.17,0-.04,0-.07,.02-.12,.01-.03,.04-.09,.08-.15l.8-1.72c.02-.06,.05-.12,.08-.19,.04-.07,.07-.13,.1-.18,.05-.05,.08-.09,.14-.12,.06-.03,.12-.04,.21-.05,.08,0,.15,.01,.21,.04,.06,.03,.1,.07,.13,.12,.04,.05,.06,.1,.08,.16,.03,.05,.06,.12,.1,.22l.75,1.91c.06,.15,.09,.26,.09,.32,0,.07-.03,.13-.09,.18-.06,.06-.13,.07-.22,.06-.04,0-.08-.01-.12-.03-.04-.02-.06-.04-.09-.08-.02-.03-.04-.08-.07-.14-.03-.06-.05-.11-.07-.16Zm-1.19-.87l.9,.05-.43-1.18-.47,1.13Z"/>
        <path class="cls-8" d="M842.18,29.04c0,.2-.05,.37-.14,.52-.1,.16-.24,.26-.42,.33-.18,.07-.39,.09-.64,.07-.3-.03-.54-.11-.73-.24-.14-.1-.25-.22-.33-.36-.09-.13-.12-.27-.12-.4,0-.07,.02-.13,.08-.19,.05-.05,.11-.07,.19-.07,.07,0,.12,.03,.17,.07,.04,.05,.08,.11,.11,.19,.03,.11,.07,.19,.11,.26,.05,.07,.11,.13,.19,.18,.08,.05,.18,.07,.32,.08,.18,.02,.33-.01,.44-.1,.11-.08,.17-.19,.17-.32,0-.11-.02-.2-.08-.27-.06-.07-.14-.13-.24-.17-.1-.04-.23-.08-.39-.13-.21-.06-.39-.13-.54-.21-.14-.08-.26-.17-.34-.29-.08-.12-.12-.27-.12-.44,0-.16,.05-.31,.14-.44,.09-.13,.22-.23,.39-.3,.17-.08,.37-.11,.6-.12,.18,0,.34,.02,.48,.06,.13,.05,.24,.11,.33,.2,.09,.08,.15,.17,.19,.25,.04,.09,.06,.18,.06,.26s-.02,.15-.07,.21c-.06,.06-.12,.09-.19,.09-.07,0-.12-.02-.16-.06-.03-.03-.07-.09-.11-.18-.05-.13-.12-.22-.19-.29-.07-.07-.2-.1-.36-.1s-.28,.04-.39,.11c-.09,.07-.14,.15-.14,.25,0,.06,0,.12,.05,.16,.03,.05,.08,.08,.13,.12,.06,.03,.11,.06,.17,.09,.05,.02,.16,.04,.28,.08,.17,.05,.32,.1,.45,.15,.15,.05,.26,.12,.35,.2,.1,.08,.17,.17,.22,.29,.05,.12,.08,.26,.08,.43Z"/>
        <path class="cls-8" d="M844.97,29.22c0,.22-.05,.41-.14,.58-.1,.16-.23,.28-.41,.37-.18,.08-.39,.1-.65,.08-.29-.02-.54-.12-.73-.26-.13-.11-.25-.24-.33-.39-.09-.16-.13-.3-.13-.45,0-.08,.02-.15,.08-.21,.05-.05,.12-.07,.19-.07,.06,0,.12,.03,.16,.07,.05,.06,.09,.13,.11,.22,.04,.11,.08,.2,.12,.28,.05,.08,.11,.14,.19,.19,.08,.06,.19,.09,.32,.1,.18,.02,.33-.02,.44-.11,.11-.09,.17-.21,.17-.35,0-.12-.03-.22-.09-.29-.06-.08-.14-.14-.24-.19-.1-.04-.23-.08-.39-.13-.22-.08-.4-.15-.54-.23-.14-.08-.26-.19-.35-.33-.08-.13-.12-.29-.12-.49,0-.18,.05-.34,.14-.49,.09-.14,.22-.25,.39-.33,.17-.07,.37-.12,.6-.12,.18,0,.34,.02,.47,.07,.14,.05,.25,.12,.34,.22,.09,.08,.15,.18,.19,.27,.04,.1,.06,.2,.06,.3,0,.08-.02,.16-.07,.22-.05,.07-.11,.1-.19,.1-.06,0-.12-.02-.16-.06-.04-.04-.07-.11-.11-.2-.05-.14-.12-.24-.19-.31-.08-.08-.2-.11-.37-.11-.16,0-.28,.04-.38,.12-.1,.08-.15,.17-.15,.28,0,.07,.02,.13,.05,.18,.04,.05,.08,.09,.14,.13,.06,.04,.11,.07,.17,.09,.06,.02,.16,.06,.29,.1,.17,.05,.32,.11,.45,.17,.14,.06,.26,.13,.35,.22,.09,.09,.17,.2,.22,.33,.05,.13,.09,.28,.09,.46Z"/>
      </g>
    </g>
  </g>
  <g>
    <path class="cls-22" d="M899.92,6.47c.3-.71,.59-1.42,.9-2.13,.08,.72,.17,1.44,.26,2.16,.61-.23,1.21-.51,1.83-.72-.44,.61-.86,1.23-1.28,1.85,.46,.41,.92,.8,1.37,1.22-.62,.07-1.23,.11-1.84,.16-.02,.74-.07,1.49-.1,2.24-.36-.54-.68-1.09-1.03-1.64-.5,.53-1.02,1.06-1.51,1.6,.19-.75,.38-1.51,.56-2.26-.59-.08-1.19-.18-1.78-.27,.58-.37,1.16-.75,1.73-1.13-.23-.65-.48-1.29-.71-1.93,.53,.29,1.06,.55,1.59,.84h0Z"/>
    <path class="cls-42" d="M894.22,16.2c1.55-1.51,2.96-3.23,4.28-5-.6,2.34-1.76,4.51-3.32,6.17-.37,.33-.71,.73-1.12,1.02-1.35,1.04-2.94,1.71-4.59,1.73l.04-.03c1.29-.86,2.54-1.81,3.69-2.88,.34-.33,.71-.64,1.02-1h0Z"/>
    <path class="cls-22" d="M863.54,13.83c.68-.21,1.39-.3,2.1-.29,.77,0,1.56,.05,2.32,.21-.11,.33-.23,.66-.32,1-1.1-.09-2.24-.18-3.33,.11-.33,.1-.76,.25-.84,.7-.01,.33,.26,.53,.5,.61,.79,.25,1.62,.21,2.37,.61,.34,.18,.64,.52,.7,.95,.1,.68-.07,1.43-.5,1.94-.48,.59-1.19,.85-1.86,1-1.4,.25-2.83,.11-4.19-.27,.07-.36,.16-.71,.23-1.06,1.18,.17,2.38,.38,3.55,.1,.44-.11,.94-.38,1.02-.94,.09-.37-.2-.66-.48-.76-.75-.26-1.54-.2-2.28-.52-.32-.13-.62-.37-.75-.74-.22-.64,0-1.41,.43-1.87,.39-.37,.84-.62,1.32-.77h0Z"/>
    <path class="cls-22" d="M890.92,13.54c.49,0,.97,.02,1.44,0,.6,.91,1.23,1.79,1.89,2.62l-.03,.04c-.32,.36-.68,.67-1.02,1-.82-1.16-1.58-2.39-2.28-3.66h0Z"/>
    <path class="cls-22" d="M882.55,10.66c-.16,.92-.32,1.84-.47,2.77-1.27-.04-2.61-.15-3.8,.46-.99,.47-1.81,1.46-2.08,2.66-.27,.97-.23,2.13,.33,2.96,.55,.78,1.45,1.12,2.32,1.17,.96,.05,2-.12,2.8-.8,.74-.63,1.16-1.65,1.33-2.66,.38-2.22,.75-4.45,1.12-6.69-.51,.04-1.03,.08-1.55,.13Zm-1.2,6.63c-.1,.56-.28,1.15-.66,1.54-.47,.49-1.16,.6-1.77,.52-.43-.05-.88-.28-1.08-.74-.24-.53-.17-1.16-.04-1.71,.17-.79,.6-1.51,1.24-1.88,.86-.51,1.85-.5,2.79-.38-.17,.89-.32,1.78-.48,2.66Z"/>
    <path class="cls-22" d="M890.17,14.1c-.51-.5-1.22-.62-1.87-.64-1.23-.03-2.52,.39-3.43,1.37-.71,.74-1.12,1.81-1.17,2.9-.05,.68,.1,1.39,.49,1.92,.46,.7,1.22,1.08,1.97,1.21,1.14,.22,2.36,0,3.32-.74l.04-.03c-1.11,.13-2.31,.17-3.32-.45-.64-.41-.95-1.27-.88-2.08,1.28,.26,2.63,.32,3.87-.22,.51-.23,1.02-.61,1.28-1.19,.28-.66,.21-1.56-.3-2.06Zm-1.8,2.31c-.91,.35-1.9,.26-2.83,.08,.26-.69,.73-1.31,1.34-1.63,.53-.27,1.14-.38,1.71-.21,.27,.07,.51,.33,.52,.66,.07,.53-.34,.94-.74,1.1Z"/>
    <path class="cls-22" d="M875.37,15.79c-.09-.75-.5-1.42-1.07-1.79-.77-.51-1.71-.59-2.57-.49-1.17,.13-2.31,.75-3.06,1.79-.61,.85-.94,1.96-.84,3.06,.06,.77,.48,1.48,1.06,1.87,.75,.51,1.66,.59,2.51,.51,1.29-.13,2.58-.85,3.32-2.08,.5-.82,.77-1.87,.65-2.86Zm-1.68,.85c-.07,.63-.27,1.24-.61,1.74-.49,.7-1.27,1.14-2.06,1.1-.43,0-.88-.12-1.19-.48-.22-.25-.31-.6-.33-.94-.05-1.45,.79-2.96,2.07-3.3,.56-.15,1.22-.1,1.67,.33,.38,.38,.5,1,.44,1.54Z"/>
    <path class="cls-22" d="M905.44,15.7c-.12-.82-.64-1.52-1.3-1.85-.83-.45-1.77-.47-2.66-.33-1.3,.22-2.54,1.07-3.21,2.38-.41,.83-.63,1.82-.45,2.77,.13,.78,.62,1.43,1.25,1.77,.81,.43,1.75,.48,2.62,.35,1.25-.19,2.47-.96,3.15-2.18,.48-.84,.74-1.9,.59-2.9Zm-3.36,3.62c-.58,.27-1.26,.31-1.85,.04-.41-.17-.69-.63-.73-1.13-.11-1.52,.77-3.14,2.12-3.48,.53-.14,1.15-.1,1.59,.27,.36,.29,.54,.79,.54,1.28,.01,1.25-.62,2.54-1.67,3.02Z"/>
    <path class="cls-22" d="M894.06,18.39c.41-.29,.75-.68,1.12-1.02,.91,1.13,1.83,2.25,2.76,3.36-.64-.01-1.29,.01-1.94,0-.17-.12-.28-.29-.42-.44-.53-.62-1.04-1.24-1.52-1.9h0Z"/>
  </g>
  <g>
    <path class="cls-22" d="M873.13,27.05l-.2-.52h-1.68l-.2,.53c-.08,.21-.14,.35-.2,.42s-.14,.11-.27,.11c-.1,0-.2-.04-.28-.12s-.12-.16-.12-.26c0-.06,0-.12,.03-.18,.02-.06,.05-.14,.09-.25l1.06-2.68c.03-.08,.07-.17,.11-.28,.04-.11,.09-.2,.14-.27,.05-.07,.11-.13,.19-.17s.17-.07,.29-.07,.21,.02,.29,.07,.14,.1,.19,.17c.05,.07,.09,.14,.12,.22s.07,.19,.13,.32l1.08,2.67c.08,.2,.13,.35,.13,.44,0,.1-.04,.18-.12,.26s-.18,.12-.29,.12c-.07,0-.12-.01-.17-.03s-.09-.06-.12-.1-.07-.1-.1-.19c-.04-.08-.07-.16-.09-.22Zm-1.66-1.15h1.23l-.62-1.71-.61,1.71Z"/>
    <path class="cls-22" d="M874.58,27.12v-3.34c0-.15,.03-.27,.1-.35s.16-.12,.28-.12,.21,.04,.28,.12,.11,.2,.11,.35v3.34c0,.16-.04,.27-.11,.35s-.17,.12-.28,.12-.2-.04-.28-.12c-.07-.08-.11-.2-.11-.35Z"/>
    <path class="cls-22" d="M876.54,24.1c-.11,0-.2-.03-.28-.1-.08-.07-.12-.16-.12-.28,0-.11,.04-.2,.12-.27,.08-.07,.17-.11,.27-.11s.19,.03,.26,.1c.08,.06,.12,.16,.12,.28s-.04,.21-.11,.28-.16,.1-.27,.1Zm.38,.8v2.22c0,.15-.04,.27-.11,.35-.07,.08-.17,.12-.28,.12s-.2-.04-.28-.12c-.07-.08-.11-.2-.11-.35v-2.2c0-.15,.04-.27,.11-.34,.07-.08,.16-.12,.28-.12s.21,.04,.28,.12c.07,.08,.11,.18,.11,.32Z"/>
    <path class="cls-22" d="M880.27,26.08v1.02c0,.16-.04,.28-.11,.36s-.17,.12-.29,.12-.21-.04-.28-.12-.11-.2-.11-.36v-1.23c0-.19,0-.34-.02-.45-.01-.11-.05-.2-.11-.26-.06-.07-.15-.1-.28-.1-.25,0-.42,.09-.5,.26s-.12,.42-.12,.74v1.04c0,.16-.04,.28-.11,.36-.07,.08-.17,.12-.29,.12s-.21-.04-.29-.12c-.07-.08-.11-.2-.11-.36v-2.2c0-.14,.03-.25,.1-.33,.07-.08,.15-.11,.26-.11s.19,.03,.26,.1c.07,.07,.1,.17,.1,.29v.07c.13-.16,.28-.28,.43-.35,.15-.07,.32-.11,.51-.11s.36,.04,.5,.12,.25,.19,.34,.35c.13-.16,.27-.28,.42-.35,.15-.08,.31-.12,.49-.12,.21,0,.39,.04,.54,.12,.15,.08,.27,.2,.34,.36,.07,.14,.1,.36,.1,.66v1.5c0,.16-.04,.28-.11,.36-.07,.08-.17,.12-.29,.12s-.21-.04-.29-.12c-.07-.08-.11-.2-.11-.36v-1.29c0-.17,0-.3-.02-.4-.01-.1-.05-.18-.12-.25-.06-.07-.16-.1-.28-.1-.1,0-.2,.03-.29,.09s-.16,.14-.21,.24c-.06,.13-.09,.36-.09,.69Z"/>
    <path class="cls-22" d="M884.97,26.21h-1.51c0,.18,.04,.33,.11,.46,.07,.13,.16,.23,.27,.3s.24,.1,.38,.1c.09,0,.18-.01,.25-.03,.08-.02,.15-.06,.22-.1,.07-.05,.14-.09,.2-.15,.06-.05,.14-.12,.23-.21,.04-.03,.1-.05,.17-.05,.08,0,.14,.02,.19,.06,.05,.04,.07,.1,.07,.18,0,.07-.03,.15-.08,.24-.06,.09-.14,.18-.25,.27-.11,.09-.25,.16-.41,.21-.17,.06-.36,.08-.57,.08-.49,0-.88-.14-1.15-.42s-.41-.67-.41-1.15c0-.23,.03-.44,.1-.63,.07-.2,.17-.36,.3-.5,.13-.14,.29-.25,.48-.32,.19-.07,.4-.11,.63-.11,.3,0,.56,.06,.77,.19,.22,.13,.38,.29,.48,.49,.11,.2,.16,.41,.16,.61,0,.19-.06,.32-.17,.38-.11,.06-.27,.09-.47,.09Zm-1.51-.44h1.4c-.02-.26-.09-.46-.21-.59s-.29-.2-.49-.2-.35,.07-.47,.2c-.12,.13-.2,.33-.22,.59Z"/>
    <path class="cls-22" d="M886.95,24.88v.09c.14-.18,.28-.31,.44-.39,.16-.08,.35-.13,.55-.13s.38,.04,.54,.13,.28,.21,.36,.38c.05,.09,.08,.2,.1,.3,.01,.11,.02,.25,.02,.42v1.43c0,.15-.03,.27-.11,.35-.07,.08-.16,.12-.27,.12s-.21-.04-.28-.12-.11-.2-.11-.35v-1.28c0-.25-.03-.45-.11-.58-.07-.13-.21-.2-.42-.2-.14,0-.26,.04-.38,.12-.11,.08-.2,.19-.25,.34-.04,.12-.06,.33-.06,.64v.97c0,.16-.04,.27-.11,.35s-.17,.12-.28,.12-.2-.04-.27-.12c-.07-.08-.11-.2-.11-.35v-2.22c0-.15,.03-.26,.1-.33,.06-.07,.15-.11,.26-.11,.07,0,.13,.02,.18,.05,.06,.03,.1,.08,.13,.14,.03,.06,.05,.14,.05,.23Z"/>
    <path class="cls-22" d="M889.78,24.52h.08v-.46c0-.12,0-.22,.01-.29,0-.07,.02-.13,.05-.18,.03-.05,.07-.1,.13-.13s.12-.05,.19-.05c.1,0,.19,.04,.27,.11,.05,.05,.09,.11,.1,.18,.01,.07,.02,.17,.02,.3v.53h.28c.11,0,.19,.02,.25,.08s.09,.12,.09,.2c0,.1-.04,.18-.12,.22-.08,.04-.2,.06-.35,.06h-.14v1.42c0,.12,0,.21,.01,.28,0,.07,.03,.12,.07,.16,.04,.04,.1,.06,.18,.06,.05,0,.11,0,.18-.02s.14-.02,.18-.02c.06,0,.12,.03,.17,.08s.07,.11,.07,.18c0,.12-.07,.22-.2,.29s-.33,.1-.58,.1-.42-.04-.55-.12-.21-.19-.24-.33c-.04-.14-.06-.33-.06-.57v-1.48h-.1c-.11,0-.2-.03-.25-.08s-.09-.12-.09-.2,.03-.15,.09-.2,.15-.08,.27-.08Z"/>
    <path class="cls-22" d="M893.73,27.15c-.19,.14-.37,.25-.54,.32s-.37,.11-.59,.11c-.2,0-.37-.04-.52-.12-.15-.08-.27-.18-.35-.32-.08-.13-.12-.28-.12-.44,0-.21,.07-.39,.2-.54,.13-.15,.32-.25,.55-.3,.05-.01,.17-.04,.36-.08,.19-.04,.36-.08,.5-.11,.14-.03,.29-.07,.45-.12,0-.2-.05-.35-.12-.45s-.22-.14-.45-.14c-.2,0-.34,.03-.44,.08-.1,.05-.18,.14-.25,.25-.07,.11-.12,.18-.15,.22s-.09,.05-.19,.05c-.09,0-.16-.03-.22-.08s-.09-.13-.09-.21c0-.14,.05-.27,.14-.39,.1-.13,.24-.23,.45-.32,.2-.08,.46-.12,.76-.12,.34,0,.6,.04,.8,.12,.19,.08,.33,.21,.41,.38s.12,.4,.12,.69c0,.18,0,.33,0,.46,0,.13,0,.27,0,.42,0,.14,.02,.3,.07,.45,.05,.16,.07,.26,.07,.3,0,.08-.04,.15-.11,.22-.07,.07-.16,.1-.25,.1-.08,0-.16-.04-.23-.11s-.16-.18-.24-.32Zm-.05-1.11c-.11,.04-.28,.08-.49,.13s-.36,.08-.45,.1-.16,.06-.24,.13-.11,.15-.11,.26,.04,.22,.13,.3c.09,.08,.2,.12,.35,.12,.15,0,.29-.03,.42-.1s.22-.15,.28-.26c.07-.12,.1-.31,.1-.58v-.11Z"/>
    <path class="cls-22" d="M896.66,27.58v.06c.19,.02,.33,.07,.43,.15s.15,.19,.15,.32c0,.11-.04,.21-.11,.29s-.18,.15-.32,.2-.31,.07-.51,.07c-.35,0-.52-.07-.52-.2,0-.04,.01-.07,.04-.09,.03-.03,.06-.04,.09-.04,0,0,.05,0,.12,.01,.08,0,.14,.01,.21,.01,.34,0,.51-.08,.51-.24,0-.06-.03-.11-.08-.15s-.12-.06-.19-.06c-.03,0-.07,0-.13,.01-.06,0-.1,.01-.12,.01-.05,0-.08-.02-.11-.05s-.04-.07-.04-.11c0-.09,.13-.16,.4-.19-.45-.02-.8-.17-1.05-.45-.24-.28-.36-.64-.36-1.08,0-.32,.06-.6,.18-.84,.12-.24,.3-.43,.53-.56,.23-.13,.51-.2,.83-.2,.2,0,.38,.03,.55,.09,.17,.06,.31,.13,.42,.23,.12,.09,.2,.19,.27,.29,.06,.1,.09,.2,.09,.29s-.03,.17-.1,.23c-.07,.06-.15,.09-.25,.09s-.18-.05-.25-.14c-.12-.17-.22-.29-.32-.37-.1-.08-.23-.12-.41-.12-.23,0-.41,.09-.55,.27-.14,.18-.21,.42-.21,.73,0,.14,.02,.28,.05,.4,.04,.12,.09,.22,.16,.31s.15,.15,.25,.19c.09,.04,.2,.07,.32,.07,.16,0,.29-.03,.38-.09,.09-.06,.18-.16,.27-.28,.08-.13,.15-.21,.19-.26s.11-.07,.2-.07c.09,0,.17,.03,.23,.1,.06,.07,.09,.15,.09,.23,0,.13-.05,.26-.15,.41-.1,.14-.25,.27-.45,.37-.2,.1-.44,.16-.71,.17Z"/>
    <path class="cls-22" d="M900.59,27.15c-.19,.14-.37,.25-.54,.32s-.37,.11-.59,.11c-.2,0-.37-.04-.52-.12-.15-.08-.27-.18-.35-.32-.08-.13-.12-.28-.12-.44,0-.21,.07-.39,.2-.54,.13-.15,.32-.25,.55-.3,.05-.01,.17-.04,.36-.08,.19-.04,.36-.08,.5-.11,.14-.03,.29-.07,.45-.12,0-.2-.05-.35-.12-.45s-.22-.14-.45-.14c-.2,0-.34,.03-.44,.08-.1,.05-.18,.14-.25,.25-.07,.11-.12,.18-.15,.22s-.09,.05-.19,.05c-.09,0-.16-.03-.22-.08s-.09-.13-.09-.21c0-.14,.05-.27,.14-.39,.1-.13,.24-.23,.45-.32,.2-.08,.46-.12,.76-.12,.34,0,.6,.04,.8,.12,.19,.08,.33,.21,.41,.38s.12,.4,.12,.69c0,.18,0,.33,0,.46,0,.13,0,.27,0,.42,0,.14,.02,.3,.07,.45,.05,.16,.07,.26,.07,.3,0,.08-.04,.15-.11,.22-.07,.07-.16,.1-.25,.1-.08,0-.16-.04-.23-.11s-.16-.18-.24-.32Zm-1.19-3.33c-.09,0-.16,.06-.19,.19-.03,.11-.08,.17-.15,.17-.04,0-.08-.02-.11-.06s-.05-.09-.05-.16c0-.09,.02-.18,.06-.27,.04-.09,.1-.16,.17-.21s.15-.08,.24-.08,.16,.01,.24,.04c.07,.02,.17,.07,.29,.12,.12,.06,.2,.09,.25,.11s.09,.02,.15,.02,.1-.01,.13-.04c.03-.03,.06-.08,.07-.15,.03-.11,.08-.16,.15-.16,.04,0,.08,.02,.11,.06s.05,.09,.05,.16c0,.1-.04,.22-.12,.36-.08,.13-.2,.2-.37,.2-.06,0-.13-.01-.2-.03s-.16-.06-.28-.11c-.12-.05-.21-.09-.27-.11s-.12-.03-.17-.03Zm1.14,2.22c-.11,.04-.28,.08-.49,.13s-.36,.08-.45,.1-.16,.06-.24,.13-.11,.15-.11,.26,.04,.22,.13,.3c.09,.08,.2,.12,.35,.12,.15,0,.29-.03,.42-.1s.22-.15,.28-.26c.07-.12,.1-.31,.1-.58v-.11Z"/>
    <path class="cls-22" d="M904.96,26.02c0,.23-.04,.44-.11,.63-.07,.19-.17,.36-.31,.5s-.3,.25-.48,.32c-.19,.07-.4,.11-.63,.11s-.44-.04-.63-.11c-.19-.07-.35-.18-.48-.32s-.24-.31-.31-.5c-.07-.19-.11-.4-.11-.63s.04-.45,.11-.64c.07-.19,.17-.36,.31-.5,.13-.14,.29-.24,.48-.32,.19-.07,.4-.11,.63-.11s.44,.04,.63,.11c.19,.07,.35,.18,.49,.32,.14,.14,.24,.3,.31,.5,.07,.19,.11,.4,.11,.63Zm-.77,0c0-.31-.07-.56-.21-.73-.14-.17-.32-.26-.56-.26-.15,0-.28,.04-.4,.12-.11,.08-.2,.19-.26,.35-.06,.15-.09,.33-.09,.53s.03,.38,.09,.53c.06,.15,.15,.27,.26,.35s.25,.12,.4,.12c.23,0,.42-.09,.56-.26,.14-.18,.21-.42,.21-.73Z"/>
  </g>
  <g>
    <path class="cls-18" d="M935.74,24.64c-.08,0-.15-.07-.15-.15V14.98c0-1.83,1.49-3.32,3.32-3.32h2.8c1.82,0,3.31,1.49,3.31,3.32v2.02c0,1.83-1.49,3.32-3.32,3.32h-3.96c-.08,0-.15-.07-.15-.15s.07-.15,.15-.15h3.96c1.66,0,3.01-1.35,3.01-3.01v-2.02c0-1.65-1.35-3-3-3.01h-2.8c-1.66,0-3.01,1.35-3.01,3.01v9.5c0,.08-.07,.15-.15,.15Z"/>
    <path class="cls-18" d="M948.16,20.37c-.08,0-.15-.07-.15-.15v-7.1c0-.63-.51-1.15-1.15-1.15h-1.22c-.08,0-.15-.07-.15-.15s.07-.15,.15-.15h1.22c.8,0,1.45,.65,1.45,1.45v7.1c0,.08-.07,.15-.15,.15Z"/>
    <path class="cls-31" d="M947.9,10.72l-.55-.55c-.14-.14-.14-.36,0-.5h0s.55-.55,.55-.55c.14-.14,.36-.14,.5,0l.55,.55c.14,.14,.14,.36,0,.5h0s-.55,.55-.55,.55c-.14,.14-.36,.14-.5,0h0"/>
    <path class="cls-18" d="M956.84,15.75c-.28,0-.56-.11-.77-.32l-2.82-2.82c-.41-.41-.96-.64-1.55-.64h-1.21c-.08,0-.15-.07-.15-.15s.07-.15,.15-.15h1.21c.67,0,1.29,.26,1.76,.73l2.82,2.82c.3,.31,.8,.31,1.11,0,0,0,0,0,0,0l2.81-2.81c.47-.47,1.1-.73,1.76-.73h.98c.08,0,.15,.07,.15,.15s-.07,.15-.15,.15h-.98c-.58,0-1.13,.23-1.54,.64l-2.81,2.81s0,0,0,0c-.21,.21-.49,.32-.77,.32Z"/>
    <path class="cls-18" d="M951.7,20.3h-1.21c-.08,0-.15-.07-.15-.15s.07-.15,.15-.15h1.21c.58,0,1.13-.23,1.55-.64l2.82-2.82c.42-.42,1.12-.42,1.54,0l2.81,2.81c.41,.41,.96,.64,1.55,.64h.98c.08,0,.15,.07,.15,.15s-.07,.15-.15,.15h-.98c-.67,0-1.29-.26-1.76-.73l-2.81-2.81c-.31-.31-.8-.3-1.11,0l-2.82,2.82c-.47,.47-1.1,.73-1.76,.73Z"/>
    <path class="cls-31" d="M928.55,21.95c-.6,0-1.18-.24-1.6-.66l-2.32-2.32c-.17-.16-.44-.16-.61,0l-2.32,2.32c-.42,.43-1,.67-1.6,.66h-.45l2.93,2.93c.92,.91,2.4,.91,3.32,0l2.94-2.94h-.28Z"/>
    <path class="cls-31" d="M920.09,13.77c.6,0,1.18,.24,1.6,.66l2.32,2.32c.17,.17,.44,.17,.61,0l2.31-2.31c.42-.43,1-.67,1.6-.66h.28l-2.94-2.94c-.92-.92-2.4-.92-3.32,0,0,0,0,0,0,0l-2.93,2.93h.45Z"/>
    <path class="cls-31" d="M931.26,16.21l-1.78-1.78s-.08,.03-.13,.03h-.81c-.42,0-.82,.17-1.12,.46l-2.31,2.31c-.43,.43-1.14,.43-1.57,0l-2.32-2.32c-.3-.3-.7-.46-1.12-.47h-.99s-.08,0-.12-.02l-1.79,1.78c-.91,.92-.91,2.4,0,3.32l1.78,1.78s.08-.02,.12-.02h1c.42,0,.82-.17,1.12-.47l2.32-2.32c.42-.42,1.15-.42,1.57,0l2.31,2.31c.3,.3,.7,.46,1.12,.46h.81s.09,0,.13,.03l1.78-1.78c.92-.92,.92-2.4,0-3.32,0,0,0,0,0,0"/>
  </g>
  <path class="cls-26" d="M1012.36,27.1h-8.29l-2.87-10.77h2.05c.41,.04,1.98-.58,1.98-2.13,0-1.4-1.29-1.38-1.74-1.4h-2.56l-5.54,14.3h-8.21l-5.54-15.11h6.78l2.67,8.02,3.18-12.51h12.15c3.28,0,5.95,2.8,5.95,6.26,0,2.35-1.23,4.39-3.04,5.46l3.04,7.89h0Z"/>
  <g>
    <path class="cls-21" d="M1055.63,19.59h1.15c.68,0,.96,.3,1.17,1.01l.4,1.34c.17,.54,.38,1.08,.52,1.41h2.87c-.28-.52-.64-1.41-.82-2.04l-.51-1.69c-.3-.98-.64-1.64-1.83-1.64h-.16l2.98-3.76h-2.96l-2.52,3.6h-.3v-6.77h-2.66v12.29h2.66v-3.76Z"/>
    <rect class="cls-21" x="1041.38" y="14.23" width="2.72" height="9.13"/>
    <path class="cls-21" d="M1066.39,14.05c-2.96,0-4.89,1.99-4.89,4.63,0,3.05,2.16,4.84,5.22,4.84,.92,0,1.85-.12,2.61-.44l.19-2.05c-.68,.31-1.38,.49-2.16,.49-1.24,0-2.66-.57-2.93-2.07h6.9c.07-3.27-1.6-5.4-4.95-5.4Zm-2.02,3.62c.23-.99,.96-1.74,2.11-1.74,1.08,0,1.85,.64,1.99,1.74h-4.09Z"/>
    <path class="cls-21" d="M1050.16,16.26c.59,0,1.15,.19,1.55,.44l.77-2.05c-.84-.38-1.65-.59-2.72-.59-2.89,0-4.84,1.85-4.84,4.72s1.98,4.77,4.86,4.77c.68,0,1.46-.14,2.02-.42l.24-2.21c-.44,.21-1.01,.4-1.71,.4-1.58,.02-2.59-1.01-2.59-2.54s.96-2.51,2.42-2.51Z"/>
    <path class="cls-21" d="M1036.93,23.35V13.49h3.54l.33-2.44h-8.46c-.25,.79-.45,1.61-.61,2.44h2.32v9.86h2.89Z"/>
    <rect class="cls-21" x="1041.38" y="11.06" width="2.72" height="2"/>
    <path class="cls-21" d="M1074.59,18.53v-2.09h1.5l.37-2.04h-1.83v-3.27l-2.72,1.1v6.2c-.02,2.63,1.06,4.11,1.53,4.93h2.68c.02-.07,.03-.15,.05-.22-.81-1.15-1.58-2.57-1.58-4.6Z"/>
  </g>
  <g>
    <path class="cls-39" d="M1120.01,8.71v5.31c0,.29,.08,.51,.25,.67,.17,.15,.35,.23,.55,.23h.04c.19-.01,.36-.09,.53-.24,.16-.15,.24-.37,.24-.66v-5.31c0-.29-.08-.51-.24-.66s-.34-.22-.53-.24h-.04c-.2,0-.38,.07-.55,.22-.17,.15-.25,.37-.25,.67h0Zm-2.29,4.76v-4.65c0-1.04,.3-1.78,.91-2.22,.61-.43,1.34-.65,2.2-.65,.11,0,.23,0,.35,.02,.12,.01,.23,.02,.35,.03,.61,.09,1.16,.35,1.66,.77,.5,.42,.75,1.1,.75,2.05v4.65c0,1.03-.25,1.85-.75,2.46-.5,.61-1.32,.91-2.45,.91s-1.95-.34-2.37-1.03c-.43-.68-.64-1.47-.64-2.34h0Zm-4.69-2.98h.5c.21,0,.4-.1,.58-.3,.18-.2,.26-.3,.26-.75v-.45c0-.61-.25-.96-.48-1.06-.23-.1-.52-.15-.86-.15v2.71h0Zm-2.18,6.14V6.2h3.16c1.57,0,2.53,.47,2.58,2.18,.02,.67-.09,1.22-.26,1.66s-.48,.77-.9,.99c.33,.1,.6,.27,.79,.49,.19,.22,.27,.5,.28,.83l.09,2.98c.01,.39,.04,.65,.12,.78,.08,.14,.17,.2,.26,.2v.33h-1.93c-.28,0-.46-.05-.54-.15-.08-.1-.12-.34-.12-.73v-2.48c0-.34-.06-.6-.18-.77-.12-.17-.34-.25-.66-.25h-.5v4.38h-2.18Zm-4.97-7.93v5.31c0,.29,.08,.51,.25,.67,.17,.15,.35,.23,.55,.23h.04c.19-.01,.36-.09,.53-.24,.16-.15,.24-.37,.24-.66v-5.31c0-.29-.08-.51-.24-.66-.16-.15-.34-.22-.53-.24h-.04c-.2,0-.38,.07-.55,.22-.17,.15-.25,.37-.25,.67h0Zm-2.29,4.76v-4.65c0-1.04,.3-1.78,.91-2.22s1.34-.65,2.2-.65c.11,0,.23,0,.35,.02,.12,.01,.23,.02,.35,.03,.61,.09,1.16,.35,1.66,.77,.5,.42,.75,1.1,.75,2.05v4.65c0,1.03-.25,1.85-.75,2.46-.5,.61-1.32,.91-2.45,.91s-1.95-.34-2.37-1.03c-.43-.68-.64-1.47-.64-2.34h0Zm-4.65,.22c-.12,1.97,1.82,1.7,1.72,.21-.04-.59-1.12-1.3-1.87-2.02-.41-.4-.91-.73-1.3-1.21-.97-1.18-.7-3.09,.35-4.08,.98-.93,2.94-.95,4.07,0,.59,.5,.89,1.27,.91,2.33h-2.15c.07-1.67-1.58-1.45-1.58-.45,0,.32,.11,.59,.32,.81,1.62,1.64,3.42,2.71,3.42,4.33,0,1.23-.31,2.08-.94,2.53-1.2,.87-3.38,1.05-4.41-.2-.44-.54-.67-1.29-.67-2.27h2.15Z"/>
    <path class="cls-39" d="M1120.18,26.79c.41,0,.74-.06,1-.18,.26-.12,.38-.43,.38-.92v-5.09c0-.41-.11-.67-.33-.79-.22-.12-.47-.19-.73-.2-.06,0-.11,0-.16,0h-.16v7.18h0Zm-2.25,1.61v-10.44h2.57c1.22,0,2.08,.15,2.58,.46,.5,.31,.75,.95,.75,1.94v5.53c0,.76-.22,1.37-.66,1.83-.44,.45-1.17,.68-2.19,.68h-3.06Zm-6.5,0v-10.44h5.28v1.96h-3v2.01h2.51v2.18h-2.51v2.22h3v2.07h-5.28Zm-5.16-6.14h.5c.21,0,.4-.1,.58-.3,.18-.2,.26-.3,.26-.75v-.45c0-.61-.25-.96-.48-1.06-.23-.1-.52-.15-.86-.15v2.71h0Zm-2.18,6.14v-10.44h3.16c1.57,0,2.53,.47,2.58,2.18,.02,.67-.09,1.22-.26,1.66-.18,.44-.48,.77-.9,.99,.33,.1,.6,.27,.79,.49,.19,.22,.27,.5,.28,.83l.09,2.98c.01,.39,.04,.65,.12,.78,.08,.14,.17,.2,.26,.2v.33h-1.93c-.28,0-.46-.05-.54-.15-.08-.1-.12-.34-.12-.73v-2.48c0-.34-.06-.6-.18-.77-.12-.17-.34-.25-.66-.25h-.5v4.38h-2.18Zm-1.27-3.61v1.13c0,.79-.22,1.38-.67,1.78-.44,.4-.93,.67-1.46,.79-.16,.04-.32,.07-.48,.09-.16,.02-.31,.02-.45,.02-1.05,0-1.82-.26-2.32-.77-.5-.52-.75-1.37-.75-2.56v-4.6c0-.82,.23-1.51,.68-2.08,.45-.57,1.25-.86,2.39-.86,.92,0,1.66,.25,2.22,.75,.56,.5,.83,1.27,.83,2.3v.61h-2.38v-1.05c0-.21-.07-.37-.2-.49-.14-.12-.29-.19-.45-.21h-.14c-.18,.02-.34,.1-.48,.22-.14,.13-.21,.32-.21,.58v5.47c0,.24,.07,.43,.21,.58,.14,.15,.3,.24,.48,.26h.13s.03,0,.04-.02c.19-.02,.35-.12,.5-.29,.15-.18,.22-.42,.22-.74v-.92h2.28Z"/>
    <path class="cls-37" d="M1098.68,3.57h2.34v2.53c-.76-.27-1.63-.27-2.34,0V3.57Z"/>
    <path class="cls-35" d="M1101.02,28.4v2.63h-2.34v-2.54c.32,.08,.69,.12,1.09,.12,.14,0,.29,0,.45-.02,.16-.02,.32-.04,.48-.09,.11-.03,.22-.06,.32-.09Z"/>
  </g>
  <g>
    <path d="M473.78,26.06c-.42,0-.75-.34-.75-.75,0,0,0,0,0-.01V8.77c0-.42,.34-.75,.75-.75,.42,0,.75,.34,.75,.75h0V25.3c0,.42-.32,.76-.74,.77,0,0,0,0-.01,0Z"/>
    <path d="M497.5,26.03c-.42,0-.75-.34-.75-.75V8.77c0-.42,.34-.75,.75-.75,.42,0,.75,.34,.75,.75h0V25.27c0,.42-.34,.75-.75,.75Z"/>
    <path d="M470.39,26.03c-.42,0-.75-.33-.76-.75,0,0,0,0,0,0V8.77c0-.42,.34-.75,.75-.75,.42,0,.75,.34,.75,.75h0V25.27c0,.41-.33,.75-.75,.75Z"/>
    <path d="M480.56,26.03c-.41,0-.74-.34-.74-.75V8.77c0-.42,.34-.75,.75-.75s.75,.34,.75,.75V25.27c0,.42-.34,.75-.75,.75,0,0,0,0,0,0Z"/>
    <path d="M477.92,8.77v9.78h-1.51V8.77c0-.42,.34-.75,.75-.75s.75,.34,.75,.75Z"/>
    <path d="M476.41,20.04h1.51v2.15c0,.42-.34,.75-.75,.75s-.75-.34-.75-.75h0s0-2.15,0-2.15Z"/>
    <path d="M491.47,8.77v9.78h-1.51V8.77c0-.42,.34-.75,.75-.75,.42,0,.75,.34,.75,.75Z"/>
    <path d="M489.97,20.04h1.51v2.15c0,.42-.34,.75-.75,.75-.42,0-.75-.34-.75-.75v-2.15Z"/>
    <path d="M484.7,8.77v9.78h-1.51V8.77c0-.42,.34-.75,.75-.75,.42,0,.75,.34,.75,.75h0Z"/>
    <path d="M483.19,20.06h1.51v2.15c0,.42-.34,.75-.75,.75s-.75-.34-.75-.75h0v-2.15Z"/>
    <path d="M487.33,26.03c-.42,0-.75-.34-.75-.75V8.77c-.05-.41,.25-.79,.67-.83,.41-.05,.79,.25,.83,.67,0,.06,0,.11,0,.17V25.27c0,.41-.33,.75-.74,.75Z"/>
    <path d="M494.11,26.06c-.42,0-.75-.34-.75-.75,0,0,0,0,0-.01V8.77c0-.42,.34-.75,.75-.75,.42,0,.75,.34,.75,.75h0V25.3c0,.42-.32,.76-.74,.77,0,0,0,0-.01,0Z"/>
  </g>
</svg>