<?xml version="1.0" encoding="UTF-8"?>
<svg id="Layer_1" data-name="Layer 1" xmlns="http://www.w3.org/2000/svg" width="1310" height="34.14" xmlns:xlink="http://www.w3.org/1999/xlink" viewBox="0 0 1310 34.14">
  <defs>
    <style>
      .cls-1 {
        fill: url(#linear-gradient);
      }

      .cls-1, .cls-2, .cls-3, .cls-4, .cls-5, .cls-6, .cls-7, .cls-8, .cls-9, .cls-10, .cls-11, .cls-12, .cls-13, .cls-14, .cls-15, .cls-16, .cls-17, .cls-18, .cls-19, .cls-20, .cls-21, .cls-22, .cls-23, .cls-24, .cls-25, .cls-26, .cls-27, .cls-28, .cls-29, .cls-30, .cls-31, .cls-32, .cls-33, .cls-34, .cls-35, .cls-36, .cls-37, .cls-38, .cls-39, .cls-40, .cls-41, .cls-42, .cls-43, .cls-44 {
        stroke-width: 0px;
      }

      .cls-2 {
        fill: url(#radial-gradient);
      }

      .cls-3 {
        fill: url(#linear-gradient-2);
        isolation: isolate;
        opacity: .65;
      }

      .cls-4 {
        fill: #005a9b;
      }

      .cls-4, .cls-5, .cls-6, .cls-7, .cls-8, .cls-9, .cls-10 {
        fill-rule: evenodd;
      }

      .cls-5 {
        fill: #49aa53;
      }

      .cls-6 {
        fill: #a78e3f;
      }

      .cls-7 {
        fill: #dd3738;
      }

      .cls-8 {
        fill: #ffe700;
      }

      .cls-9, .cls-35 {
        fill: #f37421;
      }

      .cls-10 {
        fill: #faa929;
      }

      .cls-12 {
        fill: #f79e1b;
      }

      .cls-13 {
        fill: #f9f9fa;
      }

      .cls-14 {
        fill: #32bcad;
      }

      .cls-15 {
        fill: #353a37;
      }

      .cls-16 {
        fill: #2c2a7a;
      }

      .cls-17 {
        fill: #284d8a;
      }

      .cls-18 {
        fill: #26a6d1;
      }

      .cls-19 {
        fill: #38a7e4;
      }

      .cls-20 {
        fill: #2566af;
      }

      .cls-21 {
        fill: #0a9b4a;
      }

      .cls-22 {
        fill: #110f0d;
      }

      .cls-23 {
        fill: #231f20;
      }

      .cls-24 {
        fill: #21c25e;
      }

      .cls-25 {
        fill: #203c92;
      }

      .cls-26 {
        fill: #c7d540;
      }

      .cls-27 {
        fill: #d32011;
      }

      .cls-28 {
        fill: #d52b1e;
      }

      .cls-29 {
        fill: #b82126;
      }

      .cls-30 {
        fill: #6c6bbd;
      }

      .cls-31 {
        fill: #0099df;
      }

      .cls-32 {
        fill: #939598;
      }

      .cls-33 {
        fill: #ff5f00;
      }

      .cls-34 {
        fill: #fbc707;
      }

      .cls-36 {
        fill: #fff;
      }

      .cls-37 {
        fill: #ec1c24;
      }

      .cls-38 {
        fill: #e6a540;
      }

      .cls-39 {
        fill: #ef3120;
      }

      .cls-40 {
        fill: #eb001b;
      }

      .cls-41 {
        fill: #f79410;
      }

      .cls-42 {
        fill: #00538a;
      }

      .cls-43 {
        fill: #007858;
      }

      .cls-44 {
        fill: #0079be;
      }

      .cls-45 {
        fill: #ea1f27;
        stroke: #ea1f27;
        stroke-miterlimit: 10;
        stroke-width: .16px;
      }
    </style>
    <linearGradient id="linear-gradient" x1="430.19" y1="666.68" x2="427.31" y2="662.16" gradientTransform="translate(.05 -646.02)" gradientUnits="userSpaceOnUse">
      <stop offset="0" stop-color="#f89f20"/>
      <stop offset=".25" stop-color="#f79a20"/>
      <stop offset=".53" stop-color="#f68d20"/>
      <stop offset=".62" stop-color="#f58720"/>
      <stop offset=".72" stop-color="#f48120"/>
      <stop offset="1" stop-color="#f37521"/>
    </linearGradient>
    <linearGradient id="linear-gradient-2" x1="429.74" y1="666.61" x2="425.52" y2="658.37" gradientTransform="translate(.05 -646.02)" gradientUnits="userSpaceOnUse">
      <stop offset="0" stop-color="#f58720"/>
      <stop offset=".36" stop-color="#e16f27"/>
      <stop offset=".7" stop-color="#d4602c"/>
      <stop offset=".98" stop-color="#d05b2e"/>
    </linearGradient>
    <radialGradient id="radial-gradient" cx="1243.01" cy="252.12" fx="1243.01" fy="252.12" r="4.92" gradientTransform="translate(-16521.28 3570.78) rotate(-2.45) scale(13.96 -11.16)" gradientUnits="userSpaceOnUse">
      <stop offset="0" stop-color="#ee2e60"/>
      <stop offset="1" stop-color="#ee2e60" stop-opacity="0"/>
    </radialGradient>
  </defs>
  <path class="cls-13" d="m5,0h46c2.8,0,5,2.2,5,5v24c0,2.8-2.2,5-5,5H5c-2.8,0-5-2.2-5-5V5C0,2.2,2.2,0,5,0Z"/>
  <path class="cls-13" d="m62,0h46c2.8,0,5,2.2,5,5v24c0,2.8-2.2,5-5,5h-46c-2.8,0-5-2.2-5-5V5c0-2.8,2.2-5,5-5Z"/>
  <path class="cls-13" d="m119,0h46c2.8,0,5,2.2,5,5v24c0,2.8-2.2,5-5,5h-46c-2.8,0-5-2.2-5-5V5c0-2.8,2.2-5,5-5Z"/>
  <path class="cls-13" d="m176,0h46c2.8,0,5,2.2,5,5v24c0,2.8-2.2,5-5,5h-46c-2.8,0-5-2.2-5-5V5c0-2.8,2.2-5,5-5Z"/>
  <path class="cls-13" d="m233,0h46c2.8,0,5,2.2,5,5v24c0,2.8-2.2,5-5,5h-46c-2.8,0-5-2.2-5-5V5c0-2.8,2.2-5,5-5Z"/>
  <path class="cls-13" d="m290,0h46c2.8,0,5,2.2,5,5v24c0,2.8-2.2,5-5,5h-46c-2.8,0-5-2.2-5-5V5c0-2.8,2.2-5,5-5Z"/>
  <path class="cls-13" d="m347,0h46c2.8,0,5,2.2,5,5v24c0,2.8-2.2,5-5,5h-46c-2.8,0-5-2.2-5-5V5c0-2.8,2.2-5,5-5Z"/>
  <path class="cls-13" d="m404,0h46c2.8,0,5,2.2,5,5v24c0,2.8-2.2,5-5,5h-46c-2.8,0-5-2.2-5-5V5c0-2.8,2.2-5,5-5Z"/>
  <path class="cls-13" d="m461,0h46c2.8,0,5,2.2,5,5v24c0,2.8-2.2,5-5,5h-46c-2.8,0-5-2.2-5-5V5c0-2.8,2.2-5,5-5Z"/>
  <path class="cls-13" d="m518.07.14h46c2.8,0,5,2.2,5,5v24c0,2.8-2.2,5-5,5h-46c-2.8,0-5-2.2-5-5V5.14c0-2.8,2.2-5,5-5Z"/>
  <path class="cls-13" d="m575,0h46c2.8,0,5,2.2,5,5v24c0,2.8-2.2,5-5,5h-46c-2.8,0-5-2.2-5-5V5c0-2.8,2.2-5,5-5Z"/>
  <path class="cls-13" d="m632,0h46c2.8,0,5,2.2,5,5v24c0,2.8-2.2,5-5,5h-46c-2.8,0-5-2.2-5-5V5c0-2.8,2.2-5,5-5Z"/>
  <path class="cls-13" d="m689,0h46c2.8,0,5,2.2,5,5v24c0,2.8-2.2,5-5,5h-46c-2.8,0-5-2.2-5-5V5c0-2.8,2.2-5,5-5Z"/>
  <path class="cls-13" d="m746,0h46c2.8,0,5,2.2,5,5v24c0,2.8-2.2,5-5,5h-46c-2.8,0-5-2.2-5-5V5c0-2.8,2.2-5,5-5Z"/>
  <path class="cls-13" d="m803,0h46c2.8,0,5,2.2,5,5v24c0,2.8-2.2,5-5,5h-46c-2.8,0-5-2.2-5-5V5c0-2.8,2.2-5,5-5Z"/>
  <path class="cls-13" d="m860,0h46c2.8,0,5,2.2,5,5v24c0,2.8-2.2,5-5,5h-46c-2.8,0-5-2.2-5-5V5c0-2.8,2.2-5,5-5Z"/>
  <path class="cls-13" d="m917,0h46c2.8,0,5,2.2,5,5v24c0,2.8-2.2,5-5,5h-46c-2.8,0-5-2.2-5-5V5c0-2.8,2.2-5,5-5Z"/>
  <path class="cls-13" d="m974,0h46c2.8,0,5,2.2,5,5v24c0,2.8-2.2,5-5,5h-46c-2.8,0-5-2.2-5-5V5c0-2.8,2.2-5,5-5Z"/>
  <path class="cls-13" d="m1031,0h46c2.8,0,5,2.2,5,5v24c0,2.8-2.2,5-5,5h-46c-2.8,0-5-2.2-5-5V5c0-2.8,2.2-5,5-5Z"/>
  <path class="cls-13" d="m1088,0h46c2.8,0,5,2.2,5,5v24c0,2.8-2.2,5-5,5h-46c-2.8,0-5-2.2-5-5V5c0-2.8,2.2-5,5-5Z"/>
  <path class="cls-13" d="m1145,0h46c2.8,0,5,2.2,5,5v24c0,2.8-2.2,5-5,5h-46c-2.8,0-5-2.2-5-5V5c0-2.8,2.2-5,5-5Z"/>
  <path class="cls-13" d="m1202,0h46c2.8,0,5,2.2,5,5v24c0,2.8-2.2,5-5,5h-46c-2.8,0-5-2.2-5-5V5c0-2.8,2.3-5,5-5Z"/>
  <path class="cls-13" d="m1259,0h46c2.8,0,5,2.2,5,5v24c0,2.8-2.2,5-5,5h-46c-2.8,0-5-2.2-5-5V5c0-2.8,2.3-5,5-5Z"/>
  <g>
    <path class="cls-20" d="m25.5,23h-3.1l2-12h3.1l-2,12Zm-5.8-12l-3,8.2-.4-1.8h0l-1.1-5.4s-.1-1.1-1.5-1.1h-4.7l-.1.2s1.5.3,3.3,1.4l2.7,10.5h3.2l5-12h-3.4Zm24.5,12h2.9l-2.5-12h-2.5c-1.2,0-1.4.9-1.4.9l-4.7,11.1h3.2l.7-1.8h4l.3,1.8h0Zm-3.4-4.2l1.6-4.5.9,4.5c.1,0-2.5,0-2.5,0Zm-4.6-4.9l.4-2.6s-1.4-.5-2.8-.5c-1.5,0-5.2.7-5.2,4,0,3.1,4.3,3.1,4.3,4.8s-3.9,1.3-5.1.3l-.5,2.7s1.4.7,3.5.7,5.3-1.1,5.3-4.1-4.4-3.4-4.4-4.8,3.2-1.2,4.5-.5h0Z"/>
    <path class="cls-38" d="m16.4,17.5l-1.1-5.4s-.1-1.1-1.5-1.1h-4.8l-.1.2s2.4.5,4.6,2.3c2.2,1.8,2.9,4,2.9,4h0Z"/>
  </g>
  <g>
    <path class="cls-23" d="m101.8,30.5h0q.1.1,0,0c.1.1.1,0,.1,0,0,0,0,.1-.1,0q.1,0,0,0h0Zm.1,0h0c.1,0,.1.1.1.1h-.1l.1.1h-.1l-.1-.1h0v.1h-.1v-.3c.1.1.2.1.2.1Zm0,.4h0c.1,0,.1-.1.2-.1l.1-.1v-.2l-.1-.1h-.4c-.1.1-.1.2-.1.2l.1.1q0,.1.2.2c-.1-.1-.1,0,0,0m0-.6c.1,0,.2,0,.2.1l.1.1v.2s0,.1-.1.1c0,0-.1,0-.1.1h-.2s-.1,0-.1-.1l-.1-.1v-.2s0-.1.1-.1t.2-.1,0,0m-26.8-1c0-.5.3-.9.9-.9s.9.4.9.9-.3.9-.9.9-.9-.4-.9-.9m2.3,0v-1.4h-.6v.4c-.2-.3-.5-.4-.9-.4-.8,0-1.4.6-1.4,1.5s.6,1.5,1.4,1.5c.4,0,.7-.2.9-.4v.4h.6v-1.6h0Zm21.1,0c0-.5.3-.9.9-.9s.9.4.9.9-.3.9-.9.9-.9-.4-.9-.9m2.3,0v-2.6h-.6v1.5c-.2-.3-.5-.4-.9-.4-.8,0-1.4.6-1.4,1.5s.6,1.5,1.4,1.5c.4,0,.7-.2.9-.4v.4h.6v-1.5Zm-15.6-.9c.4,0,.7.2.7.7h-1.5c.1-.4.3-.7.8-.7m0-.6c-.8,0-1.4.6-1.4,1.5s.6,1.5,1.5,1.5c.4,0,.8-.1,1.2-.4l-.4-.4c-.2.2-.6.3-.8.3-.4,0-.8-.2-.9-.7h2.1v-.2c0-1-.5-1.6-1.3-1.6m7.5,1.5c0-.5.3-.9.9-.9s.9.4.9.9-.3.9-.9.9-.9-.4-.9-.9m2.3,0v-1.4h-.6v.4c-.2-.3-.5-.4-.9-.4-.8,0-1.4.6-1.4,1.5s.6,1.5,1.4,1.5c.4,0,.7-.2.9-.4v.4h.6v-1.6h0Zm-5.8,0c0,.9.6,1.5,1.5,1.5.4,0,.7-.1,1-.3l-.3-.5c-.2.2-.5.3-.8.3-.5,0-.9-.4-.9-.9s.4-.9.9-.9c.3,0,.5.1.8.3l.3-.5c-.3-.2-.6-.3-1-.3-.9-.2-1.5.5-1.5,1.3m8-1.5c-.4,0-.6.2-.8.4v-.4h-.6v2.9h.6v-1.6c0-.5.2-.7.6-.7.1,0,.3,0,.4.1l.2-.6c-.1,0-.2-.1-.4-.1m-16.7.3c-.3-.2-.7-.3-1.2-.3-.7,0-1.2.4-1.2.9s.3.8,1,.9h.3c.3,0,.5.1.5.3s-.2.4-.7.4-.7-.1-1-.3l-.2.5c.3.2.8.4,1.2.4.8,0,1.3-.4,1.3-.9s-.4-.8-1-.9h-.3c-.3,0-.5-.1-.5-.3s.2-.3.6-.3.7.1.9.2l.3-.6h0Zm8.1-.3c-.4,0-.6.2-.8.4v-.4h-.6v2.9h.6v-1.6c0-.5.2-.7.6-.7.1,0,.3,0,.4.1l.2-.6c-.2,0-.3-.1-.4-.1m-5.4.1h-1v-.9h-.6v.9h-.6v.6h.6v1.3c0,.7.3,1.1,1,1.1.3,0,.6-.1.8-.2l-.2-.5c-.2.1-.4.2-.6.2-.3,0-.4-.2-.4-.5v-1.3h1v-.7h0Zm-9.3,2.9v-1.8c0-.7-.4-1.1-1.1-1.1-.4,0-.7.1-1,.5-.2-.3-.5-.5-.9-.5-.3,0-.6.1-.8.4v-.4h-.6v2.9h.6v-1.6c0-.5.3-.8.7-.8s.6.3.6.8v1.6h.6v-1.6c0-.5.3-.8.7-.8s.6.3.6.8v1.6h.6Z"/>
    <path class="cls-41" d="m102.2,21.2v-.4h-.1l-.1.3-.1-.3h-.1v.4h.1v-.3l.1.3h.1l.1-.3v.3h0Zm-.7,0v-.4h.1v-.1h-.4v.1h.1l.2.4h0Z"/>
    <path class="cls-33" d="m89.7,23h-9.5V6h9.5v17Z"/>
    <path class="cls-40" d="m80.9,14.5c0-3.4,1.6-6.5,4.1-8.5-1.9-1.5-4.3-2.3-6.7-2.3-6,0-10.8,4.8-10.8,10.8s4.8,10.8,10.8,10.8c2.4,0,4.8-.8,6.7-2.3-2.5-2-4.1-5-4.1-8.5"/>
    <path class="cls-12" d="m102.5,14.5c0,6-4.8,10.8-10.8,10.8-2.4,0-4.8-.8-6.7-2.3,2.5-2,4.1-5.1,4.1-8.5s-1.6-6.5-4.1-8.5c1.9-1.5,4.3-2.3,6.7-2.3,5.9,0,10.8,4.8,10.8,10.8"/>
  </g>
  <path class="cls-18" d="m124.3,11.6l-5.1,11.4h6.2l.8-1.8h1.8l.8,1.8h6.8v-1.4l.4,1.4h3.5l.6-1.4v1.4h14.1l1.7-1.8,1.6,1.8h7.2l-5.2-5.7,5.2-5.7h-7.1l-1.7,1.7-1.6-1.7h-15.3l-1.3,2.9-1.4-2.9h-6.1v1.3l-.7-1.3h-5.2Zm1.2,1.6h3l3.4,7.7v-7.7h3.3l2.6,5.5,2.4-5.5h3.3v8.2h-2v-6.4l-2.9,6.4h-1.8l-2.8-6.4v6.4h-4.1l-.8-1.8h-4.2l-.8,1.8h-2.2l3.6-8.2h0Zm19.9,0h8.1l2.5,2.7,2.6-2.7h2.5l-3.8,4.1,3.8,4.1h-2.6l-2.5-2.7-2.6,2.7h-8v-8.2h0Zm-18.4,1.4l-1.4,3.3h2.8l-1.4-3.3Zm20.4.3v1.5h4.4v1.7h-4.4v1.6h5l2.3-2.4-2.2-2.4h-5.1Z"/>
  <g>
    <path class="cls-44" d="m211.4,17.4c0-6.1-5.1-10.3-10.7-10.3h-4.8c-5.6,0-10.3,4.2-10.3,10.3,0,5.6,4.6,10.2,10.3,10.1h4.8c5.6.1,10.7-4.5,10.7-10.1h0Z"/>
    <path class="cls-36" d="m196,7.9c-5.2,0-9.3,4.2-9.4,9.4,0,5.2,4.2,9.4,9.4,9.4s9.4-4.2,9.4-9.4c-.1-5.2-4.3-9.4-9.4-9.4h0Z"/>
    <path class="cls-44" d="m190.1,17.3c0-2.5,1.6-4.7,3.8-5.5v11.1c-2.2-.9-3.8-3.1-3.8-5.6h0Zm8,5.5v-11.1c2.2.9,3.8,3,3.8,5.5,0,2.6-1.6,4.8-3.8,5.6h0Z"/>
  </g>
  <g>
    <path class="cls-29" d="m245.7,7.4h-4.7c-2.1.1-3.8.9-4.3,2.7-.3.9-.4,1.9-.6,2.8-1,4.8-1.9,9.7-2.9,14.3h36.8c2.8,0,4.8-.6,5.3-2.9.2-1,.5-2.2.7-3.4.9-4.5,1.8-9,2.8-13.6l-33.1.1"/>
    <path class="cls-36" d="m264.7,19.2c-.5.5-1.9.6-1.8-.5.1-1,1.2-1.2,2.4-1.1-.2.6-.3,1.3-.6,1.6Zm-1.6-3.8c0,.3-.1.5-.2.8.6-.1,2.4-.6,2.6.2.1.3,0,.5-.1.7-1.6-.2-3,.1-3.3,1.3-.2.8,0,1.6.5,1.8,1,.4,2.1-.1,2.5-.7,0,.2-.1.5-.1.7h.9c0-.8.1-1.5.2-2.2.1-.6.3-1.2.3-1.8-.1-1.3-2.2-.9-3.3-.8h0Zm8.5,4.2c-.7,0-1-.4-1-1.1,0-1.2.5-2.5,1.6-2.6.5-.1.9.1,1.2.2-.4,1.3-.2,3.5-1.8,3.5h0Zm2.2-6.3c-.1.7-.2,1.5-.4,2.1-2.4-.8-3.9,1-3.9,3.2,0,.4.1.9.4,1.1.5.5,1.8.6,2.4.2.1-.1.3-.2.4-.4.1-.1.2-.3.2-.2,0,.2-.1.5-.1.7h.9c.2-2.5.7-4.6,1.1-6.9l-1,.2h0Zm-25.3,5.9c-.5.6-1.8.5-1.9-.4,0-.4.1-.8.2-1.3.1-.4.1-.8.2-1.2.5-.6,2.1-.7,2.2.4.1.9-.3,2.1-.7,2.5h0Zm.8-3.8c-.8-.3-1.9.1-2.3.4h0c0-.1.1-.3.1-.4h-.9c-.4,2.4-.8,4.7-1.2,6.9h1c.1-.9.2-1.8.4-2.6.2.9,1.7.7,2.3.4,1.3-.8,2.3-4.1.6-4.7h0Zm4.6,1.6h-2.3c.1-.5.6-1.1,1.3-1.1.7-.1,1.3.2,1,1.1h0Zm-.9-1.7c-.7.1-1.3.3-1.8.7-.5.6-.9,1.8-.8,2.9.2,1.6,2.2,1.5,3.8,1.1,0-.3.1-.5.1-.8-.6.2-1.8.6-2.5.2-.5-.3-.5-1.1-.4-1.8h3.2c.1-.5.3-1,.1-1.5-.1-.7-.9-.9-1.7-.8h0Zm-8.7.1h0c-.2,1.7-.5,3.2-.9,4.8h1c.2-1.6.5-3.2.9-4.8,0,0-1,0-1,0Zm25.8,0c-.9-.4-1.6.3-1.9.7.1-.2.1-.5.2-.8h-.9c-.2,1.6-.5,3.2-.9,4.8h1c0-.6.1-1.1.2-1.7.2-1.3.5-2.8,2.1-2.4.1-.1.2-.4.2-.6h0Zm-11.1,3.6c-.1-.2-.1-.6-.1-.9,0-.7.3-1.5.7-1.8.5-.5,1.5-.4,2.4-.1,0-.3.1-.5.1-.8-1.3-.2-2.6-.1-3.3.6-.7.7-1.1,2.3-.8,3.3.4,1.2,2,1.2,3.2.8.1-.2.1-.5.1-.7-.6.2-2,.4-2.3-.4h0Zm-.5-3.6c-.9-.4-1.6.2-1.9.8.1-.2.1-.5.2-.8h-.9c-.2,1.7-.5,3.2-.8,4.8h1c.1-.9.2-2.2.5-3.1.2-.7.9-1.3,1.8-1,0-.3,0-.5.1-.7h0Zm-16-2c-.1.9-.3,1.8-.5,2.7h-3.1c.2-.9.3-1.8.5-2.7h-1.1c-.4,2.2-.8,4.5-1.2,6.7h1.1c.2-1.1.3-2.3.6-3.3,1,0,2.1-.1,3,0-.2,1.1-.4,2.2-.6,3.3h1.1c.4-2.3.7-4.5,1.2-6.7h-1Zm2.8,1c.2-.1.4-.8.2-1-.1-.1-.2-.1-.5-.1-.2,0-.3.1-.4.2-.1.2-.2.7-.1.9s.7.1.8,0h0Z"/>
  </g>
  <g>
    <polygon class="cls-35" points="291.6 9.2 291.6 22.2 294.6 22.2 294.6 16.8 299.4 16.8 299.4 22.2 302.3 22.2 302.3 9.2 299.4 9.2 299.4 14.2 294.6 14.2 294.6 9.2 291.6 9.2"/>
    <path class="cls-35" d="m327.6,18.4c0-.2.1-.6.1-1.1,0-2.3-1.1-4.7-4.2-4.7-3.3,0-4.7,2.6-4.7,5,0,2.9,1.8,4.8,5,4.8,1.3,0,2.4-.2,3.4-.6l-.4-2c-.8.2-1.6.4-2.6.4-1.4,0-2.5-.6-2.6-1.8h6Zm-6.1-2c.1-.8.6-1.9,1.8-1.9,1.4,0,1.6,1.2,1.6,1.9h-3.4Z"/>
    <path class="cls-35" d="m328.6,22.2h2.9v-4.8c0-.2,0-.5.1-.6.2-.9.9-1.5,2-1.5.3,0,.6,0,.8.1v-2.7h-.6c-.9,0-2.1.6-2.5,1.9h-.1l-.1-1.7h-2.5c0,.8.1,1.7.1,3.1l-.1,6.2h0Z"/>
    <path class="cls-8" d="m305.3,8.7c.8,0,1.5.7,1.5,1.5s-.7,1.5-1.5,1.5-1.5-.7-1.5-1.5.6-1.5,1.5-1.5h0Z"/>
    <path class="cls-9" d="m311.4,20h1.5c1.5,0,2.1-.9,2.1-1.9s-.1-3.2-1.9-3.2c-2.1,0-1.8,2.8-1.7,4.2v.9h0Zm-7.6-7.2h3v5.3c0,1,.5,1.9,1.8,1.9,0-2.4,0-4.8-.1-7.2h2.5c0,.5.1.9.1,1.4,1.2-2.4,4.9-1.9,6.2.2,1.3,2.1,1.7,8-4.4,8h-1.4v3.6h-3v-3.6c-3.2,0-4.7-2.1-4.7-4.2v-5.4h0Z"/>
  </g>
  <g>
    <g id="g56">
      <path id="path58" class="cls-34" d="m354.3,12.5c.5-.2,1-.3,1.6-.3,2.4,0,4.5,1.7,5,4.1l3.5-.7c-.8-3.9-4.3-6.9-8.4-6.9-1,0-1.9.2-2.7.4l1,3.4h0Z"/>
    </g>
    <g id="g60">
      <path id="path62" class="cls-19" d="m350.2,23.7l2.3-2.6c-1-.9-1.7-2.3-1.7-3.8s.7-2.9,1.7-3.8l-2.3-2.7c-1.8,1.6-2.9,3.9-2.9,6.4s1.1,5,2.9,6.5"/>
    </g>
    <g id="g64">
      <path id="path66" class="cls-39" d="m360.8,18.3c-.5,2.3-2.5,4-5,4-.6,0-1.1-.1-1.6-.3l-1.1,3.4c.9.3,1.8.4,2.7.4,4.1,0,7.6-3,8.4-6.9l-3.4-.6h0Z"/>
    </g>
    <g id="g68">
      <path id="path70" class="cls-23" d="m374.3,20.1h0l-.1-.1c-.3.5-.7.8-1.3,1.1-1.1.5-2,.3-2.8-.3l-.1.2h0l-1.2,1.8c.3.2.6.4,1,.5,1.3.5,2.7.5,4-.1,1-.4,1.7-1.1,2.3-1.9l-1.8-1.2h0Zm-3.8-4.4c-1.1.5-1.7,1.5-1.6,2.8l4.8-2c-.8-1-1.9-1.4-3.2-.8m-3.1,5.5c-.1-.2-.3-.5-.4-.7-.5-1.3-.6-2.6-.1-3.9.5-1.4,1.5-2.4,2.7-3,1.6-.7,3.3-.6,4.9.4,1,.6,1.6,1.4,2.2,2.6.1.1.1.3.2.5l-9.5,4.1h0Z"/>
    </g>
    <g id="g72">
      <path id="path74" class="cls-23" d="m380.1,11v10l1.6.6-.9,2.1-1.7-.7c-.4-.2-.6-.4-.9-.7-.2-.3-.3-.7-.3-1.2v-10.1h2.2Z"/>
    </g>
    <g id="g76">
      <path id="path78" class="cls-23" d="m384.1,18.5c0-.9.4-1.6,1-2.1l-1.6-1.8c-1.1,1-1.8,2.4-1.8,3.9,0,1.6.7,3,1.8,3.9l1.6-1.8c-.6-.5-.9-1.3-1-2.1"/>
    </g>
    <g id="g80">
      <path id="path82" class="cls-23" d="m387,21.3c-.3,0-.6,0-.9-.1l-.8,2.3c.5.2,1.1.3,1.7.3,2.5,0,4.6-1.8,5.1-4.2l-2.4-.5c-.2,1.2-1.3,2.2-2.7,2.2"/>
    </g>
    <g id="g84">
      <path id="path86" class="cls-23" d="m387,13.2c-.6,0-1.1.1-1.7.3l.8,2.3c.3-.1.6-.1.9-.1,1.4,0,2.5,1,2.8,2.3l2.4-.5c-.5-2.5-2.7-4.3-5.2-4.3"/>
    </g>
  </g>
  <g>
    <polygon class="cls-30" points="602.7 23 593.3 23 593.3 6 602.7 6 602.7 23"/>
    <path class="cls-27" d="m593.9,14.5c0-3.4,1.6-6.5,4.1-8.5-1.8-1.4-4.2-2.3-6.7-2.3-6,0-10.8,4.8-10.8,10.8s4.8,10.8,10.8,10.8c2.5,0,4.8-.9,6.7-2.3-2.5-1.9-4.1-5-4.1-8.5"/>
    <path class="cls-31" d="m615.5,14.5c0,6-4.8,10.8-10.8,10.8-2.5,0-4.8-.9-6.7-2.3,2.5-2,4.1-5.1,4.1-8.5s-1.6-6.5-4.1-8.4c1.8-1.4,4.2-2.3,6.7-2.3,5.9-.1,10.8,4.8,10.8,10.7"/>
    <path class="cls-22" d="m605.9,27.9c.1,0,.3,0,.4.1l-.2.6c-.1,0-.3-.1-.4-.1-.4,0-.6.3-.6.7v1.6h-.6v-2.9h.6v.4c.2-.3.5-.4.8-.4h0Zm-2.3.6h-1v1.3c0,.3.1.5.4.5.2,0,.4,0,.5-.2l.2.5c-.2.1-.5.2-.8.2-.7,0-1-.4-1-1.1v-1.3h-.6v-.6h.6v-.8h.6v.9h1l.1.6h0Zm-8,.6c.1-.4.3-.7.8-.7.4,0,.7.2.7.7h-1.5Zm2.2.3c0-.9-.6-1.5-1.4-1.5s-1.4.6-1.4,1.5.6,1.5,1.5,1.5c.4,0,.8-.1,1.2-.4l-.3-.5c-.2.2-.5.3-.8.3-.4,0-.8-.2-.9-.7h2.1c0-.1,0-.2,0-.2h0Zm2.7-.8c-.2-.1-.5-.2-.9-.2-.3,0-.5.1-.5.3s.2.2.5.3h.3c.6.1,1,.4,1,.9s-.5.9-1.3.9c-.5,0-.9-.1-1.2-.4l.3-.5c.2.2.5.3,1,.3s.7-.1.7-.4c0-.2-.2-.2-.5-.3h-.3c-.6-.1-1-.4-1-.9,0-.6.5-.9,1.2-.9.5,0,.9.1,1.2.3l-.5.6h0Zm7.7-.2c-.1,0-.2,0-.4.1s-.2.1-.3.2-.1.2-.2.3-.1.2-.1.4,0,.3.1.4.1.2.2.3.2.1.3.2c.1,0,.2.1.4.1s.2,0,.4-.1.2-.1.3-.2.2-.2.2-.3.1-.2.1-.4,0-.3-.1-.4-.1-.2-.2-.3c-.1-.1-.2-.1-.3-.2-.1,0-.2-.1-.4-.1h0Zm0-.5c.2,0,.4,0,.6.1s.3.2.5.3.2.3.3.5.1.4.1.6,0,.4-.1.6-.2.4-.3.5-.3.2-.5.3-.4.1-.6.1-.4,0-.6-.1-.3-.2-.5-.3-.2-.3-.3-.5-.1-.4-.1-.6,0-.4.1-.6.2-.3.3-.5c.1-.1.3-.2.5-.3s.4-.1.6-.1h0Zm-16.2,1.5c0-.5.3-.9.9-.9s.9.4.9.9-.3.9-.9.9-.9-.4-.9-.9h0Zm2.3,0v-1.4h-.6v.4c-.2-.3-.5-.4-.9-.4-.8,0-1.4.6-1.4,1.5s.6,1.5,1.4,1.5c.4,0,.7-.2.9-.4v.4h.6v-1.6Zm-3.5,1.4v-1.8c0-.7-.4-1.1-1.1-1.1-.4,0-.8.1-1,.5-.2-.3-.5-.5-1-.5-.3,0-.6.1-.8.4v-.4h-.6v2.9h.6v-1.6c0-.5.3-.8.7-.8s.6.3.6.8v1.6h.6v-1.6c0-.5.3-.8.7-.8s.6.3.6.8v1.6h.7Z"/>
  </g>
  <g>
    <path class="cls-10" d="m644.1,20c5.2-2.2,12.5-4.2,22.2-2.2l.1-2.4c-10.2-1.1-17.5,2.1-22.3,4.4v.2h0Z"/>
    <polygon class="cls-4" points="634.7 21.8 639.6 21.8 639.6 23.3 636.6 23.3 636.5 24.7 639.6 24.7 639.6 26.1 636.5 26.1 636.5 27.4 639.5 27.4 639.5 28.9 634.7 28.9 634.7 21.8"/>
    <polygon class="cls-4" points="640.8 21.2 642.6 21.2 642.6 28.9 640.8 28.9 640.8 21.2"/>
    <path class="cls-4" d="m648.8,28.3c-.6.5-1.5.8-2.3.8-1.9,0-2.7-1.3-2.7-2.7,0-1.6,1.2-2.9,2.8-2.9,2,0,2.6,1.4,2.6,3.2h-3.6c0,.4.3,1.1,1.2,1.1.6,0,1-.2,1.5-.5l.5,1h0Zm-1.3-2.6c0-.5-.3-1-.8-1-.6,0-1,.5-1.1,1h1.9Z"/>
    <path class="cls-4" d="m654.5,28.6c-.5.3-1.3.5-1.9.5-1.6,0-2.8-.9-2.8-2.6s1.2-2.9,2.9-2.9c.6,0,1.3.2,1.8.5l-.6,1.2c-.3-.1-.5-.2-.8-.2-.9,0-1.5.5-1.5,1.4,0,.7.6,1.3,1.3,1.3.3,0,.7-.1,1-.3l.6,1.1h0Z"/>
    <path class="cls-4" d="m655.1,23.8h.8v-1.8h1.7v1.8h1.5v1.3h-1.5v1.9c0,.4.1.7.5.7.2,0,.5-.1.7-.2l.4,1.2c-.5.3-1.2.5-1.8.5-1.5,0-1.5-.9-1.5-2.1v-2h-.8v-1.3h0Z"/>
    <path class="cls-4" d="m660,23.8h1.8v.7h0c.3-.4.6-.9,1.3-.9.2,0,.4,0,.6.1l-.2,1.8c-.2,0-.4-.1-.6-.1-.6,0-1.1.5-1.1.6v3h-1.8v-5.2h0Z"/>
    <path class="cls-4" d="m666.9,23.6c1.9,0,2.9,1.2,2.9,2.8s-1,2.8-2.9,2.8-2.9-1.2-2.9-2.8,1-2.8,2.9-2.8h0Zm0,4.1c.8,0,1.1-.7,1.1-1.4s-.3-1.4-1.1-1.4-1.1.7-1.1,1.4.3,1.4,1.1,1.4h0Z"/>
    <path class="cls-4" d="m670.8,23.8h1.8v.6c.4-.4,1-.8,1.7-.8,1.1,0,1.7.6,1.7,2v3.3h-1.8v-3.1c0-.4-.1-.8-.7-.8-.3,0-.7.2-.9.5v3.3h-1.8v-5h0Z"/>
    <polygon class="cls-4" points="649.4 13.1 651.6 5.7 653.7 5.7 651.4 13.1 649.4 13.1"/>
    <path class="cls-4" d="m648.5,5.7l-1.8,3.1c-.5.8-.7,1.2-.9,1.8h0c0-.7-.1-1.5-.1-1.9l-.2-3h-3.4v.2c.9,0,1.4.4,1.5,1.3l.7,5.9h2.1l4.2-7.4h-2.1Z"/>
    <path class="cls-4" d="m664.1,13.1l-.1-1.1h-2.5l-.5,1.1h-2.2l4-7.4h2.7l.7,7.4h-2.1Zm-.2-4.4v-1.8h0c-.1.4-.7,1.5-.9,2l-.8,1.6h1.8l-.1-1.8h0Z"/>
    <path class="cls-4" d="m655.8,13.3c-1.4,0-2.4-.4-3-.9l1-1.5c.6.3,1.1.7,2.2.7.3,0,.7-.1.9-.4.3-.5-.1-.7-.8-1.2l-.4-.2c-1.2-.8-1.7-1.6-1.1-2.9.3-.8,1.3-1.5,2.8-1.5,1,0,2,.5,2.6.9l-1.1,1.3c-.6-.4-1-.7-1.6-.7-.4,0-.8.2-.9.4-.2.4.1.7.7,1.1l.5.3c1.4.9,1.8,1.8,1.4,2.7-.8,1.6-2,1.9-3.2,1.9h0Z"/>
  </g>
  <g>
    <path class="cls-23" d="m404.5,13.4h-2.2v7.8h2.2c1.2,0,2-.3,2.8-.9.9-.7,1.4-1.9,1.4-3,0-2.3-1.7-3.9-4.2-3.9Zm1.8,5.8c-.5.4-1.1.6-2.1.6h-.4v-5.2h.4c1,0,1.6.2,2.1.6.5.5.8,1.2.8,1.9,0,.9-.3,1.7-.8,2.1Z"/>
    <rect class="cls-23" x="409.4" y="13.4" width="1.5" height="7.8"/>
    <path class="cls-23" d="m414.6,16.4c-.9-.3-1.2-.6-1.2-1,0-.5.5-.9,1.1-.9.5,0,.8.2,1.2.6l.8-1c-.7-.6-1.4-.9-2.3-.9-1.4,0-2.5,1-2.5,2.2,0,1.1.5,1.6,1.9,2.1.6.2.9.4,1,.4.3.2.5.5.5.8,0,.6-.5,1.1-1.2,1.1s-1.3-.4-1.7-1l-1,1c.7,1,1.5,1.5,2.7,1.5,1.6,0,2.7-1,2.7-2.6.3-1.1-.2-1.7-2-2.3h0Z"/>
    <path class="cls-23" d="m417.4,17.3c0,2.3,1.8,4.1,4.1,4.1.7,0,1.2-.1,1.9-.5v-1.8c-.6.6-1.1.9-1.8.9-1.5,0-2.6-1.1-2.6-2.7,0-1.5,1.1-2.7,2.6-2.7.7,0,1.3.3,1.9.9v-1.8c-.7-.3-1.2-.5-1.9-.5-2.3,0-4.2,1.8-4.2,4.1h0Z"/>
    <polygon class="cls-23" points="435.6 18.6 433.5 13.4 431.8 13.4 435.1 21.4 436 21.4 439.3 13.4 437.7 13.4 435.6 18.6"/>
    <polygon class="cls-23" points="440 21.2 444.4 21.2 444.4 19.9 441.6 19.9 441.6 17.8 444.3 17.8 444.3 16.4 441.6 16.4 441.6 14.7 444.4 14.7 444.4 13.4 440 13.4 440 21.2"/>
    <path class="cls-23" d="m450.4,15.7c0-1.5-1-2.3-2.8-2.3h-2.3v7.8h1.5v-3.1h.2l2.1,3.1h1.9l-2.5-3.3c1.3-.2,1.9-1,1.9-2.2h0Zm-3.1,1.3h-.4v-2.4h.5c1,0,1.5.4,1.5,1.2-.1.7-.6,1.2-1.6,1.2Z"/>
    <circle class="cls-1" cx="428.1" cy="17.3" r="4.2"/>
    <circle class="cls-3" cx="428.1" cy="17.3" r="4.2"/>
    <g>
      <path class="cls-23" d="m451.4,13.6c0-.1-.1-.2-.3-.2h-.2v.7h.2v-.3l.2.3h.2l-.2-.3s.1-.1.1-.2h0Zm-.3.2h0v-.2h0q.1,0,.1.1s0,.1-.1.1Z"/>
      <path class="cls-23" d="m451.2,13.2c-.3,0-.6.3-.6.6s.3.6.6.6.6-.3.6-.6-.3-.6-.6-.6Zm0,1.1c-.3,0-.5-.2-.5-.5s.2-.5.5-.5.5.2.5.5-.3.5-.5.5Z"/>
    </g>
  </g>
  <g id="g18">
    <path id="path6" class="cls-16" d="m711.5,13.3c-2.2,0-3.1.5-3.6,2.1q0,.1.1.1l1.6.4q.1,0,.1-.1c.1-.2.3-.8.9-.8h1.7c.3,0,.6.2.6.5v1h-2.7c-1.3,0-2.6,1.1-2.6,2.7,0,1.5.9,2.7,3.8,2.7,2.6,0,3.6-1,3.6-2.4v-3.8c-.1-.6-.5-2.5-3.5-2.4h0Zm1.4,6.5c0,.2-.1.5-.7.5h-1.9c-.4,0-.8-.4-.8-.9s.2-.9.9-.9h2.5v1.3h0Z"/>
    <path id="path8" class="cls-16" d="m731.1,22.1c2.2,0,3.1-.5,3.6-2.1q0-.1-.1-.1l-1.6-.5q-.1,0-.1.1c-.1.2-.3.8-.9.8h-1.7c-.3,0-.6-.2-.6-.5v-1h2.7c1.3,0,2.6-1.1,2.6-2.7,0-1.5-.9-2.7-3.8-2.7-2.6,0-3.6,1-3.6,2.4v3.8c.1.7.5,2.6,3.5,2.5h0Zm-1.5-6.4c0-.2.1-.5.7-.5h1.9c.5,0,.8.3.8.8s-.1.9-.8.9h-2.5v-1.2h-.1Z"/>
    <path id="path10" class="cls-16" d="m721.3,18.2c1.4,0,2.6-2,2.8-2.4,0-.1.1-.1.1-.1h0c.1,0,.1.1.1.1v6.2c0,.1.1.2.2.2h1.7c.1,0,.2-.1.2-.2v-7.2c0-.9-.7-1.6-1.6-1.6h0c-.9,0-1.3.4-1.8,1s-1.4,2.1-1.7,2.1-1.2-1.4-1.7-2.1c-.5-.6-1-1-1.8-1h0c-.9,0-1.6.7-1.6,1.6v7.2c0,.1.1.2.2.2h1.7c.1,0,.2-.1.2-.2v-6.1c0-.1.1-.1.1-.1h0s.1,0,.1.1c.2.3,1.4,2.3,2.8,2.3h0Z"/>
    <g id="g16">
      <path id="path12" class="cls-2" d="m696.3,23.6h0c.4,0,.8-.2,1.2-.5l7-7c.3-.3.5-.7.5-1.1h0c0-.4-.2-.8-.5-1.1l-2.7-2.6c-.2-.2-.5-.3-.8-.3h-9.4c-.3,0-.5.1-.8.3l-2.7,2.6c-.3.3-.5.7-.5,1.1v.1c0,.4.2.8.5,1.1l7,7c.4.3.8.4,1.2.4h0Z"/>
      <path id="path14" class="cls-16" d="m691.5,11h0c.3,0,.6.1.8.3l3.2,2.8c.2.2.4.2.6.2h.4c.2,0,.5-.1.6-.2l3.2-2.9c.2-.2.5-.3.8-.3h0l-9.6.1h0Z"/>
    </g>
  </g>
  <path class="cls-24" d="m755.2,22h2.2v-6.4h-2.2v6.4Zm3-10.8h-1.5v1.5h1.5v-1.5Zm-8.3.7h-2.1v1.9h2c1.2,0,2,.6,2,1.7s-.7,1.8-2,1.8h-2v-3.5h-2.2v8.2h2.2v-2.8h2.1c2.5,0,4-1.4,4-3.7s-1.5-3.5-4-3.6h0Zm9.7-2.1h-4.4v4.4h4.4v-4.4Zm-.7,3.6h-3v-2.9h3v2.9Zm12.9-1.5h-2v1.9h1.9c1.2,0,2,.6,2,1.7s-.7,1.8-2,1.8h-1.9v-3.5h-2.2v8.2h2.2v-2.8h2c2.5,0,4-1.4,4-3.7s-1.5-3.5-4-3.6h0Zm18.4,2.4l-1.9,4.8-1.9-4.8h-2.3l3,7.7-1.2,2.9h2.3l4.2-10.6h-2.2Zm-9.9-.1c-1.3,0-2.3.3-3.5.9l.7,1.5c.8-.5,1.6-.7,2.3-.7,1.1,0,1.6.5,1.6,1.3v.1h-2.1c-1.9,0-2.9.9-2.9,2.3s1,2.4,2.6,2.4c1.1,0,1.8-.4,2.4-1v.8h2.2v-5c-.1-1.6-1.2-2.6-3.3-2.6h0Zm1.3,5.2c-.2.6-.9,1.2-1.8,1.2-.8,0-1.2-.4-1.2-1s.4-.9,1.2-.9h1.7l.1.7h0Zm-18.6.9c-1.1,0-1.8-.8-1.8-2.1s.8-2,1.8-2c.8,0,1.3.3,1.7.8l1.5-1.1c-.7-1-1.8-1.6-3.3-1.6-2.3,0-3.9,1.6-3.9,3.9s1.6,3.9,3.9,3.9c1.6,0,2.8-.6,3.4-1.7l-1.5-1c-.4.6-1,.9-1.8.9h0Z"/>
  <g>
    <g>
      <path class="cls-25" d="m842.5,6.5c.3-.7.6-1.4.9-2.1.1.7.2,1.4.3,2.2.6-.2,1.2-.5,1.8-.7-.4.6-.9,1.2-1.3,1.8.5.4.9.8,1.4,1.2-.6.1-1.2.1-1.8.2,0,.7-.1,1.5-.1,2.2-.4-.5-.7-1.1-1-1.6-.5.5-1,1.1-1.5,1.6.2-.8.4-1.5.6-2.3-.6-.1-1.2-.2-1.8-.3.6-.4,1.2-.8,1.7-1.1-.2-.7-.5-1.3-.7-1.9.4.2.9.5,1.5.8h0Z"/>
      <path class="cls-45" d="m836.8,16.2c1.5-1.5,3-3.2,4.3-5-.6,2.3-1.8,4.5-3.3,6.2-.4.3-.7.7-1.1,1-1.3,1-2.9,1.7-4.6,1.7h0c1.3-.9,2.5-1.8,3.7-2.9.3-.3.7-.6,1-1h0Z"/>
      <path class="cls-25" d="m806.1,13.8c.7-.2,1.4-.3,2.1-.3.8,0,1.6.1,2.3.2-.1.3-.2.7-.3,1-1.1-.1-2.2-.2-3.3.1-.3.1-.8.2-.8.7,0,.3.3.5.5.6.8.2,1.6.2,2.4.6.3.2.6.5.7,1,.1.7-.1,1.4-.5,1.9-.5.6-1.2.9-1.9,1-1.4.2-2.8.1-4.2-.3.1-.4.2-.7.2-1.1,1.2.2,2.4.4,3.5.1.4-.1.9-.4,1-.9.1-.4-.2-.7-.5-.8-.8-.3-1.5-.2-2.3-.5-.3-.1-.6-.4-.8-.7-.2-.6,0-1.4.4-1.9.5-.3,1-.5,1.5-.7h0Z"/>
      <path class="cls-25" d="m833.5,13.5h1.4c.6.9,1.2,1.8,1.9,2.6h0c-.3.4-.7.7-1,1-.9-1.1-1.6-2.3-2.3-3.6h0Z"/>
      <path class="cls-25" d="m825.1,10.7c-.2.9-.3,1.8-.5,2.8-1.3,0-2.6-.1-3.8.5-1,.5-1.8,1.5-2.1,2.7-.3,1-.2,2.1.3,3,.5.8,1.5,1.1,2.3,1.2,1,0,2-.1,2.8-.8.7-.6,1.2-1.6,1.3-2.7.4-2.2.8-4.4,1.1-6.7-.3-.1-.9-.1-1.4,0h0Zm-1.2,6.6c-.1.6-.3,1.1-.7,1.5-.5.5-1.2.6-1.8.5-.4,0-.9-.3-1.1-.7-.2-.5-.2-1.2,0-1.7.2-.8.6-1.5,1.2-1.9.9-.5,1.8-.5,2.8-.4-.1.9-.2,1.8-.4,2.7h0Z"/>
      <path class="cls-25" d="m832.7,14.1c-.5-.5-1.2-.6-1.9-.6-1.2,0-2.5.4-3.4,1.4-.7.7-1.1,1.8-1.2,2.9,0,.7.1,1.4.5,1.9.5.7,1.2,1.1,2,1.2,1.1.2,2.4,0,3.3-.7h0c-1.1.1-2.3.2-3.3-.5-.6-.4-1-1.3-.9-2.1,1.3.3,2.6.3,3.9-.2.5-.2,1-.6,1.3-1.2.3-.7.2-1.6-.3-2.1h0Zm-1.8,2.3c-.9.4-1.9.3-2.8.1.3-.7.7-1.3,1.3-1.6.5-.3,1.1-.4,1.7-.2.3.1.5.3.5.7.1.4-.3.8-.7,1h0Z"/>
      <path class="cls-25" d="m817.9,15.8c-.1-.8-.5-1.4-1.1-1.8-.8-.5-1.7-.6-2.6-.5-1.2.1-2.3.8-3.1,1.8-.6.8-.9,2-.8,3.1.1.8.5,1.5,1.1,1.9.8.5,1.7.6,2.5.5,1.3-.1,2.6-.9,3.3-2.1.6-.9.8-1.9.7-2.9h0Zm-1.7.8c-.1.6-.3,1.2-.6,1.7-.5.7-1.3,1.1-2.1,1.1-.4,0-.9-.1-1.2-.5-.2-.2-.3-.6-.3-.9,0-1.5.8-3,2.1-3.3.6-.1,1.2-.1,1.7.3.4.5.5,1.1.4,1.6h0Z"/>
      <path class="cls-25" d="m848,15.7c-.1-.8-.6-1.5-1.3-1.9-.8-.4-1.8-.5-2.7-.3-1.3.2-2.5,1.1-3.2,2.4-.4.8-.6,1.8-.5,2.8.1.8.6,1.4,1.2,1.8.8.4,1.8.5,2.6.4,1.2-.2,2.5-1,3.2-2.2.6-.9.8-2,.7-3h0Zm-3.4,3.6c-.6.3-1.3.3-1.8,0-.4-.2-.7-.6-.7-1.1-.1-1.5.8-3.1,2.1-3.5.5-.1,1.2-.1,1.6.3.4.3.5.8.5,1.3,0,1.3-.6,2.5-1.7,3h0Z"/>
      <path class="cls-25" d="m836.6,18.4c.4-.3.8-.7,1.1-1,.9,1.1,1.8,2.2,2.8,3.4h-1.9c-.2-.1-.3-.3-.4-.4-.6-.7-1.1-1.4-1.6-2h0Z"/>
    </g>
    <g>
      <g>
        <path class="cls-25" d="m823.9,24.7h-.2v1.2c0,.1,0,.3-.1.3q-.1.1-.2.1c-.1,0-.2,0-.2-.1s-.1-.2-.1-.3v-2.8c0-.2,0-.3.1-.3s.2-.1.3-.1h1.4c.1,0,.2,0,.3.1.1,0,.2.1.3.2s.1.2.2.3.1.2.1.4c0,.3-.1.5-.2.6-.1.2-.3.3-.6.4.1.1.2.1.3.3.1.1.2.2.3.4.1.1.1.3.2.4,0,.1.1.2.1.2v.1l-.1.1h-.4c-.1,0-.1-.1-.1-.1,0,0-.1-.1-.1-.2l-.2-.5c-.1-.2-.2-.3-.2-.4q-.1-.1-.2-.2c-.5-.1-.6-.1-.7-.1h0Zm.3-1.5h-.6v1h.6c.2,0,.3,0,.4-.1.1,0,.2-.1.2-.2.1-.1.1-.2.1-.3s0-.2-.1-.2c0-.1-.1-.1-.2-.2,0,0-.2,0-.4,0Z"/>
        <path class="cls-25" d="m828.2,23.1h-1.4v.9h1.3c.1,0,.2,0,.2.1,0,0,.1.1.1.2s0,.1-.1.2c0,.1-.1.1-.2.1h-1.3v1l1.5-.1c.1,0,.2,0,.2.1,0,0,.1.1.1.2s0,.1-.1.2c0,0-.1.1-.2.1l-1.7.1c-.1,0-.2,0-.3-.1s-.1-.2-.1-.3v-2.8c0-.1.1-.1.1-.1h1.9c.1,0,.2,0,.2.1,0,0,.1.1.1.2s0,.1-.1.2q-.1-.3-.2-.3h0Z"/>
        <path class="cls-25" d="m830.9,23.1h-1.2v.8h1.2s.1.1.1.2,0,.1-.1.2c0,0-.1.1-.2.1h-1v1.1c0,.1,0,.2-.1.3s-.1.1-.2.1-.2,0-.2-.1-.1-.2-.1-.3v-2.7c0-.1.1-.1.1-.1h1.7c.1,0,.2,0,.2.1,0,0,.1.1.1.2s0,.1-.1.2c0-.2-.1-.1-.2-.1h0Z"/>
        <path class="cls-25" d="m833.7,23h-1.4v.8h1.5s.1.1.1.2,0,.1-.1.2-.1.1-.2.1h-1.3v.9l1.4-.1c.1,0,.2,0,.2.1.1,0,.1.1.1.2s0,.1-.1.2c0,0-.1.1-.2.1l-1.7.1c-.1,0-.2,0-.3-.1,0-.1-.1-.2-.1-.3v-2.6l.1-.1h1.9c.1,0,.2,0,.2.1,0,0,.1.1.1.2s0,.1-.1.2c.1-.2,0-.2-.1-.2h0Z"/>
        <path class="cls-25" d="m834.5,25.2v-2.3c0-.1,0-.2.1-.3q.1-.1.2-.1c.1,0,.2,0,.2.1s.1.1.1.3v2.3c0,.1,0,.2-.1.3q-.1.1-.2.1c-.1,0-.2,0-.2-.1-.1-.1-.1-.2-.1-.3Z"/>
        <path class="cls-25" d="m837.2,25.3h0c.1,0,.2.1.3.1s.1.1.1.2,0,.1-.1.2-.1.1-.2.1-.2.1-.4.1h-.4v-.1h.4c.2,0,.3-.1.3-.2,0,0,0-.1-.1-.1h-.5v-.1c0-.1.1-.1.3-.2h-.3c-.1,0-.2,0-.3-.1-.1,0-.2-.1-.2-.1-.1-.1-.2-.2-.3-.3-.1-.1-.1-.2-.2-.4,0-.1-.1-.3-.1-.5s0-.4.1-.6.2-.4.3-.5c.2-.1.3-.2.5-.3.2-.1.4-.1.6-.1s.5,0,.7.1.3.2.4.3c.1.1.2.2.2.4q0,.1-.1.2s-.1.1-.2.1h-.2c-.1,0-.1-.1-.1-.1,0-.1-.1-.2-.2-.2,0-.1-.1-.1-.2-.2-.1,0-.2-.1-.3-.1-.3,0-.5.1-.6.3-.2.2-.2.4-.2.8,0,.2,0,.4.1.5s.2.2.3.3c.1.1.3.1.4.1.2,0,.3-.1.5-.2s.2-.2.3-.4c.1-.2.2-.3.3-.3s.1,0,.2.1c0,0,.1.1.1.2s0,.1-.1.2c0,.1-.1.2-.2.3-.1.1-.2.2-.3.2,0,.2-.3.3-.6.3h0Z"/>
        <path class="cls-25" d="m841,24.7l-.1-.3-1.3.1-.2.4c-.1.1-.1.2-.2.3,0,0-.1.1-.2.1s-.1,0-.2-.1c-.1,0-.1-.1-.1-.2v-.1s0-.1.1-.2l.8-1.8s.1-.1.1-.2.1-.1.1-.2.1-.1.1-.1h.4l.1.1.1.1s0,.1.1.2l.8,1.6c.1.1.1.2.1.3s0,.1-.1.2c-.1,0-.1.1-.2.1h-.1s-.1,0-.1-.1c0,0,0-.1-.1-.1.2,0,.1,0,.1-.1h0Zm-1.1-2.7q-.1,0-.2.1c0,.1-.1.1-.1.1h-.1v-.1q0-.1.1-.2c0-.1.1-.1.1-.1h.4s.1,0,.2.1c.1,0,.2.1.2.1h.2l.1-.1c0-.1.1-.1.1-.1h.1v.1q0,.1-.1.2c-.1.1-.2.1-.3.1h-.2s-.1,0-.2-.1c-.1,0-.2-.1-.2-.1,0,0-.1,0-.1,0h0Zm-.1,2.1h.9l-.4-1.1-.5,1.1h0Z"/>
        <path class="cls-25" d="m843.6,22.3c.3,0,.6,0,.8.1s.4.2.5.4c.1.2.2.4.2.6s0,.4-.1.5-.2.3-.3.4-.3.2-.5.3c-.2.1-.4.1-.7.1-.2,0-.5,0-.6-.1-.2,0-.3-.1-.5-.2-.1-.1-.2-.2-.3-.4-.1-.2-.1-.3-.1-.5s0-.4.1-.5c.1-.2.2-.3.3-.4s.3-.2.5-.3c.3.1.5,0,.7,0h0Zm.9,1.3c0-.2,0-.3-.1-.5-.1-.1-.2-.2-.3-.3-.1-.1-.3-.1-.5-.1-.1,0-.2,0-.3.1-.1,0-.2.1-.3.2s-.1.2-.2.3c0,.1-.1.2-.1.4v.4c0,.1.1.2.2.3.1.1.2.1.3.1h.3c.2,0,.3,0,.5-.1.1-.1.2-.2.3-.3.1-.2.1-.3.2-.5h0Z"/>
      </g>
      <g>
        <path class="cls-37" d="m835.6,28.4h-.6v.7c0,.1,0,.2-.1.2s-.1.1-.2.1-.2,0-.2-.1c-.1,0-.1-.1-.1-.2l.1-1.9c0-.1,0-.2.1-.2s.2-.1.3-.1h1.3c.1,0,.2.1.3.1.1.1.2.1.2.2s.1.2.1.3c0,.3-.1.5-.3.6-.2.2-.5.3-.9.3h0Zm-.1-1.2h-.4v.8h.8c.1,0,.2-.1.2-.1,0-.1.1-.1.1-.2s0-.2-.1-.3c-.1-.1-.3-.2-.6-.2h0Z"/>
        <path class="cls-37" d="m838.8,29.4l-.1-.4-1.2-.1-.2.3c0,.1-.1.2-.2.3,0,0-.1.1-.2.1s-.1,0-.2-.1c-.1,0-.1-.1-.1-.2v-.1s0-.1.1-.1l.8-1.7q0-.1.1-.2c0-.1.1-.1.1-.2l.1-.1h.4l.1.1s.1.1.1.2c0,0,.1.1.1.2l.8,1.9c.1.1.1.3.1.3q0,.1-.1.2t-.2.1h-.1s-.1,0-.1-.1c0,0,0-.1-.1-.1s0-.3,0-.3h0Zm-1.2-.9h.9l-.4-1.2-.5,1.2h0Z"/>
        <path class="cls-37" d="m842.2,29c0,.2,0,.4-.1.5-.1.2-.2.3-.4.3s-.5.2-.7.2c-.3,0-.5-.1-.7-.2-.1-.1-.2-.2-.3-.4-.1-.1-.1-.3-.1-.4s0-.1.1-.2c0,0,.1-.1.2-.1s.1,0,.2.1c0,0,.1.1.1.2s.1.2.1.3.1.1.2.2c.1,0,.2.1.3.1.2,0,.3,0,.4-.1.1-.1.2-.2.2-.3s0-.2-.1-.3-.1-.1-.2-.2-.2-.1-.4-.1c-.2-.1-.4-.1-.5-.2s-.3-.2-.3-.3-.1-.3-.1-.4c0-.2,0-.3.1-.4s.2-.2.4-.3c.2-.1.4-.1.6-.1s.3,0,.5.1c.1,0,.2.1.3.2s.2.2.2.2c0,.1.1.2.1.3s0,.1-.1.2-.1.1-.2.1-.1,0-.2-.1c0,0-.1-.1-.1-.2s-.1-.2-.2-.3c-.1-.1-.2-.1-.4-.1s-.3,0-.4.1q-.1.1-.1.2v.2l.1.1c.1,0,.1.1.2.1,0,0,.2,0,.3.1.2,0,.3.1.5.1s.3.1.3.2c.1.1.2.2.2.3s0,.1,0,.3h0Z"/>
        <path class="cls-37" d="m845,29.2c0,.2,0,.4-.1.6s-.2.3-.4.4-.4.1-.7.1-.5-.1-.7-.3c-.1-.1-.2-.2-.3-.4-.1-.2-.1-.3-.1-.5q0-.1.1-.2s.1-.1.2-.1.1,0,.2.1c0,.1.1.1.1.2s.1.2.1.3.1.1.2.2c.1.1.2.1.3.1.2,0,.3,0,.4-.1s.2-.2.2-.4c0-.1,0-.2-.1-.3q-.1-.1-.2-.2c-.1,0-.2-.1-.4-.1-.2-.1-.4-.1-.5-.2s-.3-.2-.3-.3c-.1-.1-.1-.3-.1-.5s0-.3.1-.5c.1-.1.2-.2.4-.3.2-.1.4-.1.6-.1s.3,0,.5.1c.1,0,.2.1.3.2s.2.2.2.3.1.2.1.3,0,.2-.1.2c0,.1-.1.1-.2.1s-.1,0-.2-.1c0,0-.1-.1-.1-.2s-.1-.2-.2-.3c-.1-.1-.2-.1-.4-.1s-.3,0-.4.1-.2.2-.2.3v.2l.1.1c.1,0,.1.1.2.1s.2.1.3.1c.2,0,.3.1.5.2.1.1.3.1.3.2.1.1.2.2.2.3s.1.3.1.4h0Z"/>
      </g>
    </g>
  </g>
  <g>
    <path class="cls-25" d="m899.9,6.5c.3-.7.6-1.4.9-2.1.1.7.2,1.4.3,2.2.6-.2,1.2-.5,1.8-.7-.4.6-.9,1.2-1.3,1.8.5.4.9.8,1.4,1.2-.6.1-1.2.1-1.8.2,0,.7-.1,1.5-.1,2.2-.4-.5-.7-1.1-1-1.6-.5.5-1,1.1-1.5,1.6.2-.8.4-1.5.6-2.3-.6-.1-1.2-.2-1.8-.3.6-.4,1.2-.8,1.7-1.1-.2-.7-.5-1.3-.7-1.9.4.2,1,.5,1.5.8h0Z"/>
    <path class="cls-45" d="m894.2,16.2c1.5-1.5,3-3.2,4.3-5-.6,2.3-1.8,4.5-3.3,6.2-.4.3-.7.7-1.1,1-1.3,1-2.9,1.7-4.6,1.7h0c1.3-.9,2.5-1.8,3.7-2.9.3-.3.7-.6,1-1h0Z"/>
    <path class="cls-25" d="m863.5,13.8c.7-.2,1.4-.3,2.1-.3.8,0,1.6.1,2.3.2-.1.3-.2.7-.3,1-1.1-.1-2.2-.2-3.3.1-.3.1-.8.2-.8.7,0,.3.3.5.5.6.8.2,1.6.2,2.4.6.3.2.6.5.7,1,.1.7-.1,1.4-.5,1.9-.5.6-1.2.9-1.9,1-1.4.2-2.8.1-4.2-.3.1-.4.2-.7.2-1.1,1.2.2,2.4.4,3.5.1.4-.1.9-.4,1-.9.1-.4-.2-.7-.5-.8-.8-.3-1.5-.2-2.3-.5-.3-.1-.6-.4-.8-.7-.2-.6,0-1.4.4-1.9.6-.3,1-.5,1.5-.7h0Z"/>
    <path class="cls-25" d="m890.9,13.5h1.4c.6.9,1.2,1.8,1.9,2.6h0c-.3.4-.7.7-1,1-.8-1.1-1.6-2.3-2.3-3.6h0Z"/>
    <path class="cls-25" d="m882.5,10.7c-.2.9-.3,1.8-.5,2.8-1.3,0-2.6-.1-3.8.5-1,.5-1.8,1.5-2.1,2.7-.3,1-.2,2.1.3,3,.5.8,1.5,1.1,2.3,1.2,1,0,2-.1,2.8-.8.7-.6,1.2-1.6,1.3-2.7.4-2.2.8-4.4,1.1-6.7-.3-.1-.8-.1-1.4,0h0Zm-1.2,6.6c-.1.6-.3,1.1-.7,1.5-.5.5-1.2.6-1.8.5-.4,0-.9-.3-1.1-.7-.2-.5-.2-1.2,0-1.7.2-.8.6-1.5,1.2-1.9.9-.5,1.8-.5,2.8-.4,0,.9-.2,1.8-.4,2.7h0Z"/>
    <path class="cls-25" d="m890.2,14.1c-.5-.5-1.2-.6-1.9-.6-1.2,0-2.5.4-3.4,1.4-.7.7-1.1,1.8-1.2,2.9,0,.7.1,1.4.5,1.9.5.7,1.2,1.1,2,1.2,1.1.2,2.4,0,3.3-.7h0c-1.1.1-2.3.2-3.3-.5-.6-.4-1-1.3-.9-2.1,1.3.3,2.6.3,3.9-.2.5-.2,1-.6,1.3-1.2.3-.7.2-1.6-.3-2.1h0Zm-1.8,2.3c-.9.4-1.9.3-2.8.1.3-.7.7-1.3,1.3-1.6.5-.3,1.1-.4,1.7-.2.3.1.5.3.5.7.1.4-.3.8-.7,1h0Z"/>
    <path class="cls-25" d="m875.4,15.8c-.1-.8-.5-1.4-1.1-1.8-.8-.5-1.7-.6-2.6-.5-1.2.1-2.3.8-3.1,1.8-.6.8-.9,2-.8,3.1.1.8.5,1.5,1.1,1.9.8.5,1.7.6,2.5.5,1.3-.1,2.6-.9,3.3-2.1.5-.9.8-1.9.7-2.9h0Zm-1.7.8c-.1.6-.3,1.2-.6,1.7-.5.7-1.3,1.1-2.1,1.1-.4,0-.9-.1-1.2-.5-.2-.2-.3-.6-.3-.9,0-1.5.8-3,2.1-3.3.6-.1,1.2-.1,1.7.3.3.5.4,1.1.4,1.6h0Z"/>
    <path class="cls-25" d="m905.4,15.7c-.1-.8-.6-1.5-1.3-1.9-.8-.4-1.8-.5-2.7-.3-1.3.2-2.5,1.1-3.2,2.4-.4.8-.6,1.8-.5,2.8.1.8.6,1.4,1.2,1.8.8.4,1.8.5,2.6.4,1.2-.2,2.5-1,3.2-2.2.6-.9.9-2,.7-3h0Zm-3.3,3.6c-.6.3-1.3.3-1.8,0-.4-.2-.7-.6-.7-1.1-.1-1.5.8-3.1,2.1-3.5.5-.1,1.2-.1,1.6.3.4.3.5.8.5,1.3,0,1.3-.7,2.5-1.7,3h0Z"/>
    <path class="cls-25" d="m894.1,18.4c.4-.3.8-.7,1.1-1,.9,1.1,1.8,2.2,2.8,3.4h-1.9c-.2-.1-.3-.3-.4-.4-.7-.7-1.2-1.4-1.6-2h0Z"/>
  </g>
  <g>
    <path class="cls-25" d="m873.1,27l-.2-.5h-1.7l-.2.5c-.1.2-.1.4-.2.4s-.1.1-.3.1c-.1,0-.2,0-.3-.1s-.1-.2-.1-.3v-.2q0-.1.1-.2l1.1-2.7c0-.1.1-.2.1-.3s.1-.2.1-.3.1-.1.2-.2.2-.1.3-.1.2,0,.3.1.1.1.2.2.1.1.1.2.1.2.1.3l1.1,2.7c.1.2.1.4.1.4,0,.1,0,.2-.1.3s-.2.1-.3.1h-.2c-.1,0-.1-.1-.1-.1,0,0-.1-.1-.1-.2.1.1.1,0,0-.1h0Zm-1.6-1.1h1.2l-.6-1.7s-.6,1.7-.6,1.7Z"/>
    <path class="cls-25" d="m874.6,27.1v-3.3c0-.1,0-.3.1-.4s.2-.1.3-.1.2,0,.3.1.1.2.1.4v3.3c0,.2,0,.3-.1.4s-.2.1-.3.1-.2,0-.3-.1-.1-.2-.1-.4h0Z"/>
    <path class="cls-25" d="m876.5,24.1c-.1,0-.2,0-.3-.1s-.1-.2-.1-.3,0-.2.1-.3.2-.1.3-.1.2,0,.3.1.1.2.1.3,0,.2-.1.3-.2.1-.3.1h0Zm.4.8v2.2c0,.1,0,.3-.1.4s-.2.1-.3.1-.2,0-.3-.1-.1-.2-.1-.4v-2.2c0-.1,0-.3.1-.3.1-.1.2-.1.3-.1s.2,0,.3.1.1.2.1.3Z"/>
    <path class="cls-25" d="m880.3,26.1v1c0,.2,0,.3-.1.4s-.2.1-.3.1-.2,0-.3-.1-.1-.2-.1-.4v-1.7c0-.1,0-.2-.1-.3-.1-.1-.2-.1-.3-.1-.2,0-.4.1-.5.3s-.1.4-.1.7v1c0,.2,0,.3-.1.4s-.2.1-.3.1-.2,0-.3-.1-.1-.2-.1-.4v-2.2c0-.1,0-.2.1-.3.1-.1.2-.1.3-.1s.2,0,.3.1.1.2.1.3v.1c.1-.2.3-.3.4-.4.2-.1.3-.1.5-.1s.4,0,.5.1.2.2.3.4c.1-.2.3-.3.4-.4.2-.1.3-.1.5-.1s.4,0,.5.1c.2.1.3.2.3.4.1.1.1.4.1.7v1.5c0,.2,0,.3-.1.4s-.2.1-.3.1-.2,0-.3-.1-.1-.2-.1-.4v-1.7c0-.1,0-.2-.1-.2-.1-.1-.2-.1-.3-.1s-.2,0-.3.1-.2.1-.2.2c0,.1-.1.3,0,.7h0Z"/>
    <path class="cls-25" d="m885,26.2h-1.5c0,.2,0,.3.1.5s.2.2.3.3.2.1.4.1h.2c.1,0,.2-.1.2-.1.1,0,.1-.1.2-.1s.1-.1.2-.2h.2q.1,0,.2.1s.1.1.1.2,0,.1-.1.2-.1.2-.2.3-.2.2-.4.2c-.2.1-.4.1-.6.1-.5,0-.9-.1-1.2-.4s-.4-.7-.4-1.1c0-.2,0-.4.1-.6s.2-.4.3-.5.3-.2.5-.3.4-.1.6-.1c.3,0,.6.1.8.2s.4.3.5.5.2.4.2.6-.1.3-.2.4-.3-.3-.5-.3h0Zm-1.5-.4h1.4c0-.3-.1-.5-.2-.6s-.3-.2-.5-.2-.3.1-.5.2c-.1.1-.2.3-.2.6h0Z"/>
    <path class="cls-25" d="m887,24.9h0c.1-.1.3-.2.4-.3s.3-.1.5-.1.4,0,.5.1.3.2.4.4c0,.1.1.2.1.3v1.8c0,.1,0,.3-.1.4s-.2.1-.3.1-.2,0-.3-.1-.1-.2-.1-.4v-1.3c0-.2,0-.5-.1-.6s-.2-.2-.4-.2c-.1,0-.3,0-.4.1-.1.1-.2.2-.2.3s-.1.3-.1.6v1c0,.2,0,.3-.1.4s-.2.1-.3.1-.2,0-.3-.1-.1-.2-.1-.4v-2.2c0-.1,0-.3.1-.3.1-.1.2-.1.3-.1h.2c.1,0,.1.1.1.1,0,0,.1.3.2.4h0Z"/>
    <path class="cls-25" d="m889.8,24.5h0l.1-.5v-.5l.1-.1h.2c.1,0,.2,0,.3.1,0,0,.1.1.1.2v.8h.3c.1,0,.2,0,.2.1s.1.1.1.2,0,.2-.1.2-.2.1-.3.1h-.1v1.7q0,.1.1.2s.1.1.2.1h.4q.1,0,.2.1t.1.2c0,.1-.1.2-.2.3s-.3.1-.6.1-.4,0-.5-.1-.2-.2-.2-.3-.1-.3-.1-.6v-1.5h-.1c-.1,0-.2,0-.2-.1s-.1-.1-.1-.2,0-.1.1-.2-.1-.2,0-.3h0Z"/>
    <path class="cls-25" d="m893.7,27.1c-.2.1-.4.2-.5.3s-.4.1-.6.1-.4,0-.5-.1-.3-.2-.3-.3c-.1-.1-.1-.3-.1-.4,0-.2.1-.4.2-.5.1-.1.3-.2.5-.3,0,0,.2,0,.4-.1.2,0,.4-.1.5-.1s.3-.1.5-.1c0-.2,0-.4-.1-.5s-.2-.1-.5-.1c-.2,0-.3,0-.4.1s-.2.1-.2.2-.1.2-.2.2h-.2c-.1,0-.2,0-.2-.1s-.1-.1-.1-.2,0-.3.1-.4.2-.2.5-.3c.2-.1.5-.1.8-.1s.6,0,.8.1.3.2.4.4.1.4.1.7v.9c0,.1,0,.3.1.5,0,.2.1.3.1.3q0,.1-.1.2c-.1.1-.2.1-.2.1-.1,0-.2,0-.2-.1s-.5-.2-.6-.4h0Zm0-1.1c-.1,0-.3.1-.5.1s-.4.1-.5.1-.2.1-.2.1c0,0-.1.1-.1.3s0,.2.1.3.2.1.3.1c.2,0,.3,0,.4-.1s.2-.1.3-.3c.1,0,.2-.2.2-.6h0Z"/>
    <path class="cls-25" d="m896.7,27.6h0c.2.1.3.1.4.2s.2.2.2.3,0,.2-.1.3-.2.1-.3.2-.3.1-.5.1c-.3,0-.5-.1-.5-.2v-.1h.4c.3,0,.5-.1.5-.2s0-.1-.1-.1-.1-.1-.2-.1h-.3v-.1c0-.1.1-.2.4-.2-.5,0-.8-.2-1-.5s-.4-.6-.4-1.1c0-.3.1-.6.2-.8s.3-.4.5-.6c.2-.1.5-.2.8-.2.2,0,.4,0,.5.1s.3.1.4.2c.1.1.2.2.3.3.1.1.1.2.1.3s0,.2-.1.2c-.1.1-.2.1-.2.1,0,0-.2,0-.2-.1-.1-.2-.2-.3-.3-.4s-.2-.1-.4-.1-.4.1-.5.3-.2.4-.2.7v.4c0,.1.1.2.2.3s.2.1.2.2c.1,0,.2.1.3.1.2,0,.3,0,.4-.1s.2-.2.3-.3c.1-.1.2-.2.2-.3s.1-.1.2-.1.2,0,.2.1.1.1.1.2,0,.3-.2.4c-.1.1-.2.3-.5.4s-.5.2-.8.2h0Z"/>
    <path class="cls-25" d="m900.6,27.1c-.2.1-.4.2-.5.3s-.4.1-.6.1-.4,0-.5-.1-.3-.2-.3-.3c-.1-.1-.1-.3-.1-.4,0-.2.1-.4.2-.5.1-.1.3-.2.5-.3,0,0,.2,0,.4-.1.2,0,.4-.1.5-.1s.3-.1.5-.1c0-.2,0-.4-.1-.5s-.4-.1-.6-.1-.3,0-.4.1-.2.1-.2.2-.1.2-.2.2h-.2c-.1,0-.2,0-.2-.1s-.1-.1-.1-.2,0-.3.1-.4.2-.2.5-.3c.2-.1.5-.1.8-.1s.6,0,.8.1.3.2.4.4.1.4.1.7v.9c0,.1,0,.3.1.5,0,.2.1.3.1.3q0,.1-.1.2c-.1.1-.2.1-.2.1-.1,0-.2,0-.2-.1s-.4-.2-.5-.4h0Zm-1.2-3.3c-.1,0-.2.1-.2.2s-.1.2-.2.2c0,0-.1,0-.1-.1v-.2c0-.1,0-.2.1-.3s.1-.2.2-.2.2-.1.2-.1h.2c.1,0,.2.1.3.1.1.1.2.1.2.1h.2q.1,0,.1,0l.1-.1c0-.1.1-.2.2-.2,0,0,.1,0,.1.1v.2c0,.1,0,.2-.1.4-.1.1-.2.2-.4.2h-.2c-.1,0-.1-.1-.3-.1-.1,0-.2-.1-.3-.1s-.1-.1-.1-.1h0Zm1.1,2.2c-.1,0-.3.1-.5.1s-.4.1-.5.1-.2.1-.2.1c0,0-.1.1-.1.3s0,.2.1.3.2.1.3.1c.2,0,.3,0,.4-.1s.2-.1.3-.3c.2,0,.2-.2.2-.6h0Z"/>
    <path class="cls-25" d="m905,26c0,.2,0,.4-.1.6s-.2.4-.3.5-.3.2-.5.3c-.2.1-.4.1-.6.1s-.4,0-.6-.1-.3-.2-.5-.3-.2-.3-.3-.5-.1-.4-.1-.6,0-.5.1-.6c.1-.2.2-.4.3-.5s.3-.2.5-.3c.2-.1.4-.1.6-.1s.4,0,.6.1.3.2.5.3.2.3.3.5c0,.2.1.4.1.6h0Zm-.8,0c0-.3-.1-.6-.2-.7s-.3-.3-.6-.3c-.2,0-.3,0-.4.1-.1.1-.2.2-.3.4-.1.1-.1.3-.1.5s0,.4.1.5.2.3.3.4.2.1.4.1.4-.1.6-.3c.1-.1.2-.3.2-.7h0Z"/>
  </g>
  <g>
    <path class="cls-32" d="m935.7,24.6c-.1,0-.2-.1-.2-.1v-9.5c0-1.8,1.5-3.3,3.3-3.3h2.8c1.8,0,3.3,1.5,3.3,3.3v2c0,1.8-1.5,3.3-3.3,3.3h-4c-.1,0-.2-.1-.2-.1,0,0,.1-.1.2-.1h4c1.7,0,3-1.4,3-3v-2c0-1.6-1.3-3-3-3h-2.8c-1.7,0-3,1.4-3,3v9.5c.1,0,0,0-.1,0h0Z"/>
    <path class="cls-32" d="m948.2,20.4c-.1,0-.2-.1-.2-.1v-7.1c0-.6-.5-1.1-1.2-1.1h-1.2c-.1,0-.2-.1-.2-.1,0,0,.1-.1.2-.1h1.2c.8,0,1.5.6,1.5,1.4v7.1c0-.1-.1,0-.1,0h0Z"/>
    <path class="cls-14" d="m947.9,10.7l-.5-.6c-.1-.1-.1-.4,0-.5h0l.5-.6c.1-.1.4-.1.5,0l.5.6c.1.1.1.4,0,.5h0l-.5.6c-.1.2-.4.2-.5,0h0"/>
    <path class="cls-32" d="m956.8,15.8c-.3,0-.6-.1-.8-.3l-2.8-2.8c-.4-.4-1-.6-1.5-.6h-1.2c-.1,0-.2-.1-.2-.1,0,0,.1-.1.2-.1h1.2c.7,0,1.3.3,1.8.7l2.8,2.8c.3.3.8.3,1.1,0h0l2.8-2.8c.5-.5,1.1-.7,1.8-.7h1c.1,0,.2.1.2.1,0,0-.2,0-.3,0h-1c-.6,0-1.1.2-1.5.6l-2.8,2.8h0c-.2.2-.5.4-.8.4Z"/>
    <path class="cls-32" d="m951.7,20.3h-1.2c-.1,0-.2-.1-.2-.1,0,0,.1-.1.2-.1h1.2c.6,0,1.1-.2,1.5-.6l2.8-2.8c.4-.4,1.1-.4,1.5,0l2.8,2.8c.4.4,1,.6,1.5.6h1c.1,0,.2.1.2.1,0,0-.1.1-.2.1h-1c-.7,0-1.3-.3-1.8-.7l-2.8-2.8c-.3-.3-.8-.3-1.1,0l-2.8,2.8c-.3.4-.9.7-1.6.7h0Z"/>
    <path class="cls-14" d="m928.5,22c-.6,0-1.2-.2-1.6-.7l-2.3-2.3c-.2-.2-.4-.2-.6,0l-2.3,2.3c-.4.4-1,.7-1.6.7h-.5l2.9,2.9c.9.9,2.4.9,3.3,0l2.9-2.9h-.2Z"/>
    <path class="cls-14" d="m920.1,13.8c.6,0,1.2.2,1.6.7l2.3,2.3c.2.2.4.2.6,0l2.3-2.3c.4-.4,1-.7,1.6-.7h.3l-2.9-2.9c-.9-.9-2.4-.9-3.3,0h0l-2.9,2.9h.4Z"/>
    <path class="cls-14" d="m931.3,16.2l-1.8-1.8h-.9c-.4,0-.8.2-1.1.5l-2.3,2.3c-.4.4-1.1.4-1.6,0l-2.3-2.3c-.3-.3-.7-.5-1.1-.5h-1.1l-1.8,1.8c-.9.9-.9,2.4,0,3.3l1.8,1.8h1.1c.4,0,.8-.2,1.1-.5l2.3-2.3c.4-.4,1.2-.4,1.6,0l2.3,2.3c.3.3.7.5,1.1.5h.9l1.8-1.8c.9-.9.9-2.4,0-3.3h0"/>
  </g>
  <path class="cls-21" d="m1012.4,27.1h-8.3l-2.9-10.8h2c.4,0,2-.6,2-2.1,0-1.4-1.3-1.4-1.7-1.4h-2.6l-5.5,14.3h-8.2l-5.6-15.1h6.8l2.7,8,3.2-12.5h12.2c3.3,0,6,2.8,6,6.3,0,2.4-1.2,4.4-3,5.5l2.9,7.8h0Z"/>
  <g>
    <path class="cls-28" d="m1055.6,19.6h1.2c.7,0,1,.3,1.2,1l.4,1.3c.2.5.4,1.1.5,1.4h2.9c-.3-.5-.6-1.4-.8-2l-.5-1.7c-.3-1-.6-1.6-1.8-1.6h-.2l3-3.8h-3l-2.5,3.6h-.3v-6.8h-2.7v12.3h2.7l-.1-3.7h0Z"/>
    <rect class="cls-28" x="1041.4" y="14.2" width="2.7" height="9.1"/>
    <path class="cls-28" d="m1066.4,14.1c-3,0-4.9,2-4.9,4.6,0,3,2.2,4.8,5.2,4.8.9,0,1.8-.1,2.6-.4l.2-2c-.7.3-1.4.5-2.2.5-1.2,0-2.7-.6-2.9-2.1h6.9c.1-3.3-1.6-5.4-4.9-5.4h0Zm-2,3.6c.2-1,1-1.7,2.1-1.7s1.8.6,2,1.7h-4.1Z"/>
    <path class="cls-28" d="m1050.2,16.3c.6,0,1.2.2,1.6.4l.8-2.1c-.8-.4-1.7-.6-2.7-.6-2.9,0-4.8,1.9-4.8,4.7s2,4.8,4.9,4.8c.7,0,1.5-.1,2-.4l.2-2.2c-.4.2-1,.4-1.7.4-1.6,0-2.6-1-2.6-2.5s.8-2.5,2.3-2.5h0Z"/>
    <path class="cls-28" d="m1036.9,23.4v-9.9h3.5l.3-2.4h-8.5c-.2.8-.4,1.6-.6,2.4h2.3v9.9h3Z"/>
    <rect class="cls-28" x="1041.4" y="11.1" width="2.7" height="2"/>
    <path class="cls-28" d="m1074.6,18.5v-2.1h1.5l.4-2h-1.8v-3.3l-2.7,1.1v6.2c0,2.6,1.1,4.1,1.5,4.9h2.7q0-.1.1-.2c-.9-1.1-1.7-2.5-1.7-4.6h0Z"/>
  </g>
  <g>
    <path class="cls-6" d="m1120,8.7v5.3c0,.3.1.5.2.7.2.1.3.2.6.2h0c.2,0,.4-.1.5-.2.2-.1.2-.4.2-.7v-5.3c0-.3-.1-.5-.2-.7s-.3-.2-.5-.2h0c-.2,0-.4.1-.6.2-.1.2-.2.4-.2.7h0Zm-2.3,4.8v-4.7c0-1,.3-1.8.9-2.2.6-.4,1.3-.7,2.2-.7h.6c.6.1,1.2.3,1.7.8s.8,1.1.8,2.1v4.6c0,1-.2,1.9-.8,2.5s-1.3.9-2.4.9-1.9-.3-2.4-1c-.4-.7-.6-1.5-.6-2.3h0Zm-4.7-3h.5c.2,0,.4-.1.6-.3s.3-.3.3-.8v-.4c0-.6-.2-1-.5-1.1s-.5-.2-.9-.2v2.8h0Zm-2.2,6.1V6.2h3.2c1.6,0,2.5.5,2.6,2.2,0,.7-.1,1.2-.3,1.7s-.5.8-.9,1c.3.1.6.3.8.5.2.2.3.5.3.8l.1,3c0,.4,0,.6.1.8.1.1.2.2.3.2v.3h-1.9c-.3,0-.5,0-.5-.1-.1-.1-.1-.3-.1-.7v-2.5c0-.3-.1-.6-.2-.8s-.3-.2-.7-.2h-.5v4.4l-2.3-.2h0Zm-4.9-7.9v5.3c0,.3.1.5.2.7.2.1.3.2.6.2h0c.2,0,.4-.1.5-.2.2-.1.2-.4.2-.7v-5.3c0-.3-.1-.5-.2-.7-.2-.2-.3-.2-.5-.2h0c-.2,0-.4.1-.6.2-.1.2-.2.4-.2.7h0Zm-2.3,4.8v-4.7c0-1,.3-1.8.9-2.2s1.3-.7,2.2-.7h.6c.6.1,1.2.3,1.7.8s.8,1.1.8,2.1v4.6c0,1-.2,1.9-.8,2.5s-1.3.9-2.4.9-1.9-.3-2.4-1c-.4-.7-.6-1.5-.6-2.3h0Zm-4.7.2c-.1,2,1.8,1.7,1.7.2,0-.6-1.1-1.3-1.9-2-.4-.4-.9-.7-1.3-1.2-1-1.2-.7-3.1.3-4.1,1-.9,2.9-.9,4.1,0,.6.5.9,1.3.9,2.3h-2.2c.1-1.7-1.6-1.4-1.6-.4,0,.3.1.6.3.8,1.6,1.6,3.4,2.7,3.4,4.3,0,1.2-.3,2.1-.9,2.5-1.2.9-3.4,1-4.4-.2-.4-.5-.7-1.3-.7-2.3l2.3.1h0Z"/>
    <path class="cls-6" d="m1120.2,26.8c.4,0,.7-.1,1-.2s.4-.4.4-.9v-5.1c0-.4-.1-.7-.3-.8s-.5-.2-.7-.2h-.4v7.2h0Zm-2.3,1.6v-10.4h2.6c1.2,0,2.1.1,2.6.5s.8,1,.8,1.9v5.5c0,.8-.2,1.4-.7,1.8-.4.5-1.2.7-2.2.7h-3.1Zm-6.5,0v-10.4h5.3v2h-3v2h2.5v2.2h-2.5v2.2h3v2.1h-5.3v-.1Zm-5.1-6.1h.5c.2,0,.4-.1.6-.3.2-.2.3-.3.3-.8v-.5c0-.6-.2-1-.5-1.1s-.5-.1-.9-.1v2.8h0Zm-2.2,6.1v-10.4h3.2c1.6,0,2.5.5,2.6,2.2,0,.7-.1,1.2-.3,1.7-.2.4-.5.8-.9,1,.3.1.6.3.8.5.2.2.3.5.3.8l.1,3c0,.4,0,.6.1.8.1.1.2.2.3.2v.3h-1.9c-.3,0-.5,0-.5-.1-.1-.1-.1-.3-.1-.7v-2.7c0-.3-.1-.6-.2-.8s-.3-.2-.7-.2h-.5v4.4h-2.3Zm-1.3-3.6v1.1c0,.8-.2,1.4-.7,1.8-.4.4-.9.7-1.5.8-.2,0-.3.1-.5.1h-.4c-1.1,0-1.8-.3-2.3-.8s-.8-1.4-.8-2.6v-4.6c0-.8.2-1.5.7-2.1.4-.6,1.2-.9,2.4-.9.9,0,1.7.2,2.2.8.6.5.8,1.3.8,2.3v.6h-2.4v-1c0-.2-.1-.4-.2-.5s-.3-.2-.4-.2h-.1c-.2,0-.3.1-.5.2-.1.1-.2.3-.2.6v5.5c0,.2.1.4.2.6s.3.2.5.3h.1c.2,0,.3-.1.5-.3.2-.2.2-.4.2-.7v-.9l2.4-.1h0Z"/>
    <path class="cls-7" d="m1098.7,3.6h2.3v2.5c-.8-.3-1.6-.3-2.3,0v-2.5Z"/>
    <path class="cls-5" d="m1101,28.4v2.6h-2.3v-2.5c.3.1.7.1,1.1.1h.4c.2,0,.3,0,.5-.1.1,0,.2-.1.3-.1h0Z"/>
  </g>
  <g>
    <path class="cls-11" d="m473.8,26.1c-.4,0-.8-.3-.8-.8h0V8.8c0-.4.3-.8.8-.8.4,0,.8.3.8.8h0v16.5c-.1.4-.4.8-.8.8h0Z"/>
    <path class="cls-11" d="m497.5,26c-.4,0-.8-.3-.8-.8V8.8c0-.4.3-.8.8-.8.4,0,.8.3.8.8h0v16.5c-.1.4-.4.7-.8.7h0Z"/>
    <path class="cls-11" d="m470.4,26c-.4,0-.8-.3-.8-.8h0V8.8c0-.4.3-.8.8-.8.4,0,.8.3.8.8h0v16.5c-.1.4-.4.7-.8.7h0Z"/>
    <path class="cls-11" d="m480.6,26c-.4,0-.7-.3-.7-.8V8.8c0-.4.3-.8.8-.8s.8.3.8.8v16.5c-.2.4-.5.7-.9.7h0Z"/>
    <path class="cls-11" d="m477.9,8.8v9.8h-1.5v-9.8c0-.4.3-.8.8-.8s.7.4.7.8h0Z"/>
    <path class="cls-11" d="m476.4,20h1.5v2.1c0,.4-.3.8-.8.8s-.8-.3-.8-.8h0l.1-2.1h0Z"/>
    <path class="cls-11" d="m491.5,8.8v9.8h-1.5v-9.8c0-.4.3-.8.8-.8.3,0,.7.4.7.8h0Z"/>
    <path class="cls-11" d="m490,20h1.5v2.1c0,.4-.3.8-.8.8-.4,0-.8-.3-.8-.8l.1-2.1h0Z"/>
    <path class="cls-11" d="m484.7,8.8v9.8h-1.5v-9.8c0-.4.3-.8.8-.8.4,0,.7.4.7.8h0Z"/>
    <path class="cls-11" d="m483.2,20.1h1.5v2.1c0,.4-.3.8-.8.8s-.8-.3-.8-.8h0l.1-2.1h0Z"/>
    <path class="cls-11" d="m487.3,26c-.4,0-.8-.3-.8-.8V8.8c0-.4.2-.8.7-.8.4-.1.8.2.8.7v16.7c.1.3-.2.6-.7.6h0Z"/>
    <path class="cls-11" d="m494.1,26.1c-.4,0-.8-.3-.8-.8h0V8.8c0-.4.3-.8.8-.8.4,0,.8.3.8.8h0v16.5c0,.4-.4.8-.8.8h0Z"/>
  </g>
  <path class="cls-42" d="m1151.3,14l2.8,2.8c.2.2.2.6,0,.8h0l-2.8,2.8v3.3l6-5.9c.3-.3.3-.9,0-1.2h0l-6-5.9v3.3Z"/>
  <path class="cls-42" d="m1144.3,16.6c-.3.3-.3.9,0,1.2h0l6,5.9v-3.3l-2.8-2.8c-.2-.2-.2-.6,0-.8h0l2.8-2.8v-3.3l-6,5.9Z"/>
  <path class="cls-42" d="m1168.8,13.3c-.4,0-.7.2-.8.6h0l-2.4,7.2h1.7l.5-1.6h3.1l.5,1.6h1.7l-2.6-7.8h-1.7Zm.5,1.3l1.2,3.7h-2.3l1.1-3.7Z"/>
  <path class="cls-42" d="m1173.7,13.3v7.8h3.5c1.5,0,2.3-.7,2.3-1.8h0v-.8c0-.8-.4-1.3-1.2-1.4h0c.6-.3.9-.6.9-1.3h0v-.8c0-1.1-.6-1.7-2.2-1.7h-3.3Zm1.6,1.3h1.5c.6,0,.8.2.8.6h0v.7c0,.5-.2.7-.8.7h-1.5v-2Zm0,3.2h1.8c.6,0,.9.3.9.8h0v.6c0,.6-.3.8-1,.8h-1.6v-2.2h-.1Z"/>
  <path class="cls-42" d="m1162.7,13.1c-2,0-2.9.8-2.9,2.3h0v3.5c0,1.4.9,2.2,2.9,2.3h2.2v-.6c0-.4-.3-.8-.8-.8h-1.4c-1,0-1.3-.4-1.3-1.2h0v-3c0-.8.3-1.1,1.3-1.2h2.3v-.6c0-.4-.3-.8-.8-.8h-1.5v.1Z"/>
  <path class="cls-42" d="m1188.8,13.2c-.5,0-.9.4-.9.9h0v7.1h5v-1.3h-3.4v-6.6l-.7-.1Z"/>
  <path class="cls-42" d="m1183.3,13.3c-.5,0-1,.3-1.1.8h0l-2.4,7h1.7l.5-1.6h3.1l.5,1.6h1.7l-2.6-7.8h-1.4Zm.3,1.3l1.2,3.7h-2.3l1.1-3.7Z"/>
  <g>
    <path class="cls-15" d="m1214.8,18.4h-1.8c-.2,0-.4-.2-.4-.4v-8c0-.2.2-.4.4-.4h1.8c.2,0,.4.2.4.4v8c.1.2-.1.4-.4.4Z"/>
    <path class="cls-15" d="m1225.9,17.5h-9.3v-7.3c1.4-.8,6-3.3,7.5-3.3.5,0,1.2.3,1.7.6l-3.5,5.1c-.4.6,0,1.4.7,1.4h2.8c.9,0,1.7.6,1.8,1.5.3,1-.6,2-1.7,2h0Z"/>
    <path class="cls-21" d="m1237.4,12.4l-10.6,15.2c-.1.2-.4.2-.6.1l-8.2-5.7c-.2-.1-.2-.4-.1-.6l1.8-2.5h2.2l-.7,1c.8.5,1,1.6.4,2.5l3.1,2.2c.5-.8,1.6-1,2.5-.4l7.1-10.1c-.8-.5-1-1.6-.4-2.5l-3.1-2.2c-.5.8-1.6,1-2.5.4l-2,2.9h-2.2l4.5-6.5c.1-.2.4-.2.6-.1l8.2,5.7c.1.1.1.4,0,.6h0Z"/>
  </g>
  <g>
    <path class="cls-43" d="m1287.15,7.25c-1.95,0-3.86.58-5.48,1.67-.11.08-.88.63-.92.65-1.28.96-2.14,1.13-3.32.83-.07-.02-.41-.13-.52-.17-3.79-1.43-8.02.49-9.45,4.28-1.43,3.79.49,8.02,4.28,9.45,1.58.59,3.31.63,4.9.09,1.76-.52,2.71-.38,3.81.4.22.16.75.5.86.58,4.38,3.22,10.55,2.27,13.76-2.11,3.22-4.38,2.27-10.55-2.11-13.76-1.69-1.24-3.73-1.91-5.83-1.91Z"/>
    <path class="cls-36" d="m1283.6,18.62c-.58.57-1.47.66-2.15.23l-.65,1.04c1.17.74,2.68.58,3.67-.39l-.86-.88Zm-1.18-4.22c-1.64-.03-3,1.28-3.02,2.93,0,.59.16,1.17.48,1.67l5.39-2.3c-.31-1.33-1.49-2.27-2.85-2.29h0Zm-1.79,3.16c-.1-.96.59-1.82,1.55-1.93.58-.06,1.15.17,1.53.61l-3.08,1.32Zm6.32-4.5v5.74l1,.41-.47,1.13-.99-.41c-.2-.09-.37-.23-.49-.41-.13-.21-.2-.46-.19-.71v-5.76h1.14Zm-8.68,0v5.74l.99.41-.47,1.13-.99-.41c-.19-.09-.36-.23-.47-.4-.13-.21-.2-.46-.19-.71v-5.77h1.13Z"/>
    <path class="cls-26" d="m1291.86,15.79c.87.42,1.24,1.47.82,2.34,0,0,0,0,0,0l1.1.53c.71-1.48.09-3.26-1.4-3.97-1.09-.52-2.39-.33-3.29.48l.82.9c.53-.48,1.3-.6,1.94-.28h0Z"/>
    <path class="cls-36" d="m1290.35,18.95c-.87-.42-1.24-1.47-.82-2.34l-1.1-.53c-.71,1.48-.07,3.26,1.41,3.96,1.09.52,2.38.33,3.27-.48l-.82-.9c-.53.48-1.29.59-1.93.28Zm-14.32.08v-1.66c0-1.64-1.33-2.96-2.96-2.96s-2.96,1.33-2.96,2.96,1.33,2.96,2.96,2.96c.46,0,.91-.11,1.32-.31l-.48-1.11c-.85.47-1.91.16-2.38-.69-.14-.26-.22-.55-.22-.85,0-.29.07-.57.2-.82.24-.45.66-.77,1.15-.88.13-.03.26-.05.4-.05.97,0,1.76.78,1.76,1.75v1.65c0,.25.06.49.19.71.12.18.29.32.49.41l.56.22.47-1.13-.49-.19Z"/>
  </g>
  <path class="cls-17" d="m539.97,11.73c-2.34.24-4.01.88-5.09,1.96-.53.53-1.01,1.44-1.17,2.21-.12.6-.13,1.84,0,2.45.38,1.96,1.96,3.35,4.44,3.92.24.05.58.13.75.18.63.14,2.71.22,4.12.14.73-.04,1.44-.1,1.59-.13.14-.03.47-.1.72-.14,1.11-.19,1.4-.26,1.54-.32.13-.07.14-.12.14-1.09,0-.57-.03-1.02-.07-1.05-.03-.02-.24.05-.45.16-.22.11-.43.2-.48.2s-.16.04-.26.09c-.17.09-.55.21-1.24.39-.47.12-1.75.3-2.19.3s-1.35-.16-1.81-.33c-1.05-.39-1.75-1.1-2.11-2.15-.2-.61-.22-2.07-.02-2.67.54-1.65,1.94-2.53,3.98-2.53,1.38,0,2.9.36,4.3,1.03.12.05.24.08.28.05.05-.03.07-.41.07-1.02,0-.95,0-.98-.14-1.08-.15-.1-.36-.14-1.5-.33-.31-.05-.63-.11-.72-.13-.39-.09-2.36-.24-3.07-.23-.42,0-1.14.05-1.59.09h0Zm-12.1.28s-.05,1.44-.05,3.14c0,3.3-.03,3.71-.33,4.38-.18.4-.71.92-1.16,1.13-.4.19-1.15.36-1.58.36-.81,0-2.54-.37-3.28-.7-.11-.05-.24-.09-.28-.09-.04,0-.26-.09-.47-.2-.22-.11-.45-.18-.49-.17-.07.03-.09.27-.09,1.06v1.02l.22.09c.22.09.42.13,1.71.34,1.11.18,1.51.22,2.72.26,1.29.05,2.97-.04,3.51-.17.93-.22,1.35-.35,1.74-.53,1.1-.51,1.73-1.2,2.12-2.3.14-.41.14-.46.14-4.02v-3.61l-2.21-.02c-1.21,0-2.22,0-2.24.03h0Zm20.78,0c-.07.03-.09,1.12-.09,5.14,0,5.09,0,5.11.13,5.19.1.05,1.66.07,5.37.05,5.73-.03,5.6-.02,6.44-.43.43-.21,1.04-.79,1.23-1.16.42-.81.32-1.82-.25-2.54-.4-.51-1.14-.91-2.12-1.14-.18-.04-.32-.11-.31-.14,0-.03.15-.09.32-.14,1.34-.34,2.12-1.44,1.94-2.74-.16-1.12-1-1.82-2.47-2.07-.35-.06-10.05-.08-10.19-.02h0Zm7.68,1.63c.45.23.77.75.77,1.24,0,.54-.41,1.12-.9,1.27-.27.08-3.28.12-3.35.05-.06-.05-.1-2.3-.05-2.51l.03-.15h1.65c1.38,0,1.67.02,1.85.11Zm.3,4.3c.63.28.93.93.79,1.67-.07.33-.12.44-.37.69-.41.41-.68.46-2.61.46-1.44,0-1.54,0-1.6-.12-.07-.14-.09-2.42-.03-2.68l.04-.14h1.74c1.62,0,1.75,0,2.04.14h0Z"/>
</svg>